<svg xmlns="http://www.w3.org/2000/svg" viewBox="0 0 489.2 488.4">
  <defs>
    <style>
      .cls-1 {
        fill: #ecf1ff;
      }
    </style>
  </defs>
  <g id="calendar-svgrepo-com" transform="translate(0 -0.4)">
    <g id="Group_93" data-name="Group 93">
      <path id="Path_150" data-name="Path 150" class="cls-1" d="M177.8,238.1a8.066,8.066,0,0,1-8.1,8.1H139.3a8.066,8.066,0,0,1-8.1-8.1V207.7a8.066,8.066,0,0,1,8.1-8.1h30.4a8.066,8.066,0,0,1,8.1,8.1Zm63.5-30.3a8.066,8.066,0,0,0-8.1-8.1H202.8a8.066,8.066,0,0,0-8.1,8.1v30.4a8.066,8.066,0,0,0,8.1,8.1h30.4a8.066,8.066,0,0,0,8.1-8.1Zm63.5,0a8.066,8.066,0,0,0-8.1-8.1H266.3a8.066,8.066,0,0,0-8.1,8.1v30.4a8.066,8.066,0,0,0,8.1,8.1h30.4a8.066,8.066,0,0,0,8.1-8.1Zm-127,61.8a8.066,8.066,0,0,0-8.1-8.1H139.3a8.066,8.066,0,0,0-8.1,8.1V300a8.066,8.066,0,0,0,8.1,8.1h30.4a8.066,8.066,0,0,0,8.1-8.1Zm63.5,0a8.066,8.066,0,0,0-8.1-8.1H202.8a8.066,8.066,0,0,0-8.1,8.1V300a8.066,8.066,0,0,0,8.1,8.1h30.4a8.066,8.066,0,0,0,8.1-8.1Zm55.4-8.1H266.3a8.066,8.066,0,0,0-8.1,8.1V300a8.066,8.066,0,0,0,8.1,8.1h30.4a8.066,8.066,0,0,0,8.1-8.1V269.6A8.066,8.066,0,0,0,296.7,261.5ZM106.1,323.3H75.8a8.066,8.066,0,0,0-8.1,8.1v30.4a8.066,8.066,0,0,0,8.1,8.1h30.4a8.066,8.066,0,0,0,8.1-8.1V331.4A8.152,8.152,0,0,0,106.1,323.3Zm8.2-53.7a8.066,8.066,0,0,0-8.1-8.1H75.8a8.066,8.066,0,0,0-8.1,8.1V300a8.066,8.066,0,0,0,8.1,8.1h30.4a8.066,8.066,0,0,0,8.1-8.1Zm118.9,53.7H202.8a8.066,8.066,0,0,0-8.1,8.1v30.4a8.066,8.066,0,0,0,8.1,8.1h30.4a8.066,8.066,0,0,0,8.1-8.1V331.4A8.066,8.066,0,0,0,233.2,323.3Zm-63.5,0H139.3a8.066,8.066,0,0,0-8.1,8.1v30.4a8.066,8.066,0,0,0,8.1,8.1h30.4a8.066,8.066,0,0,0,8.1-8.1V331.4A8.066,8.066,0,0,0,169.7,323.3Zm190.5-77a8.066,8.066,0,0,0,8.1-8.1V207.8a8.066,8.066,0,0,0-8.1-8.1H329.8a8.066,8.066,0,0,0-8.1,8.1v30.4a8.066,8.066,0,0,0,8.1,8.1ZM47.7,435.9H278.4a124.333,124.333,0,0,1-5.9-36.8H47.7a10.819,10.819,0,0,1-10.8-10.8V171H398.6V272.1a124.234,124.234,0,0,1,36.8,5.7V94.9a47.756,47.756,0,0,0-47.7-47.7H334.3V17.8A17.412,17.412,0,0,0,316.9.4H289.8a17.412,17.412,0,0,0-17.4,17.4V47.3H163V17.8A17.413,17.413,0,0,0,145.6.4H118.5a17.413,17.413,0,0,0-17.4,17.4V47.3H47.7A47.756,47.756,0,0,0,0,95V388.3A47.735,47.735,0,0,0,47.7,435.9Zm441.5-38.2a91.1,91.1,0,1,1-91.1-91.1A91.117,91.117,0,0,1,489.2,397.7Zm-45.1-23.6a10.573,10.573,0,0,0-3.2-7.7,10.925,10.925,0,0,0-15.5,0L385.8,406l-15.2-15.2a10.925,10.925,0,0,0-15.5,0,10.739,10.739,0,0,0-3.2,7.7,10.573,10.573,0,0,0,3.2,7.7L378,429.1a10.925,10.925,0,0,0,15.5,0l47.3-47.3A10.288,10.288,0,0,0,444.1,374.1Z"/>
    </g>
  </g>
</svg>
