<svg xmlns="http://www.w3.org/2000/svg" viewBox="0 0 15.121 15.12">
  <defs>
    <style>
      .cls-1 {
        fill: #fff;
      }
    </style>
  </defs>
  <g id="phone-svgrepo-com" transform="translate(0 19.997)">
    <g id="Group_74" data-name="Group 74" transform="translate(0 -19.997)">
      <path id="Path_95" data-name="Path 95" class="cls-1" d="M15.432,12.326a8.351,8.351,0,0,0-2.495-2.156c-.444-.253-.98-.281-1.233.17a10.121,10.121,0,0,1-.8.875A1.49,1.49,0,0,1,8.785,11l-1.61-1.61-1.61-1.61a1.49,1.49,0,0,1-.21-2.12,10.121,10.121,0,0,1,.875-.8c.451-.253.423-.789.17-1.233A8.351,8.351,0,0,0,4.244,1.138a1.1,1.1,0,0,0-1.3.195l-.712.711C-.019,4.3,1.092,6.845,3.347,9.1l2.061,2.061,2.061,2.061c2.255,2.255,4.8,3.366,7.057,1.11l.711-.711A1.1,1.1,0,0,0,15.432,12.326Z" transform="translate(-0.721 -0.727)"/>
      <path id="Path_96" data-name="Path 96" class="cls-1" d="M11.118,15.122c-1.413,0-2.953-.812-4.569-2.426L2.428,8.573A8.018,8.018,0,0,1,.106,4.91,3.888,3.888,0,0,1,1.317,1.12L2.028.409A1.376,1.376,0,0,1,3.653.165a8.464,8.464,0,0,1,2.266,2.6A1.386,1.386,0,0,1,6.1,3.811a.933.933,0,0,1-.433.56,9.392,9.392,0,0,0-.8.728,1.213,1.213,0,0,0,.177,1.763l3.22,3.22a1.214,1.214,0,0,0,1.764.176,9.443,9.443,0,0,0,.727-.8.932.932,0,0,1,.56-.433,1.38,1.38,0,0,1,1.043.181,8.476,8.476,0,0,1,2.6,2.268h0a1.376,1.376,0,0,1-.244,1.625L14,13.806A4.025,4.025,0,0,1,11.118,15.122ZM3.005.564a.82.82,0,0,0-.58.242l-.711.711A3.319,3.319,0,0,0,.652,4.784,7.486,7.486,0,0,0,2.824,8.177L6.946,12.3c2.578,2.578,4.819,2.951,6.66,1.11l.711-.711a.818.818,0,0,0,.145-.966h0a8.158,8.158,0,0,0-2.389-2.045.866.866,0,0,0-.613-.126.378.378,0,0,0-.234.192L11.2,9.8a8.266,8.266,0,0,1-.858.927,1.768,1.768,0,0,1-2.475-.244L4.645,7.258A1.768,1.768,0,0,1,4.4,4.783a8.294,8.294,0,0,1,.927-.858L5.37,3.9a.378.378,0,0,0,.192-.234.862.862,0,0,0-.128-.616A8.148,8.148,0,0,0,3.391.66.824.824,0,0,0,3.005.564Z" transform="translate(0 -0.003)"/>
    </g>
  </g>
</svg>
