<svg id="doctor-svgrepo-com_2_" data-name="doctor-svgrepo-com (2)" xmlns="http://www.w3.org/2000/svg" width="196.802" height="241.967" viewBox="0 0 196.802 241.967">
  <defs>
    <style>
      .cls-1 {
        fill: #80362d;
      }

      .cls-2 {
        fill: #ffd7a3;
      }

      .cls-3 {
        fill: #545465;
      }

      .cls-4 {
        fill: #fdc88e;
      }

      .cls-5 {
        fill: #ffe1b2;
      }

      .cls-6 {
        fill: #e4ebf0;
      }

      .cls-7 {
        fill: #d0d7dc;
      }

      .cls-8 {
        fill: #b2b9bf;
      }
    </style>
  </defs>
  <g id="Group_25" data-name="Group 25" transform="translate(0 0)">
    <g id="Group_8" data-name="Group 8" transform="translate(105.97 7.318)">
      <path id="Path_41" data-name="Path 41" class="cls-1" d="M250.005,12.724,223.513,156.541l18.924,3.784C282.49,130.995,299.679,12.724,250.005,12.724Z" transform="translate(-223.513 -12.724)"/>
    </g>
    <g id="Group_9" data-name="Group 9" transform="translate(25.148)">
      <path id="Path_42" data-name="Path 42" class="cls-1" d="M190.3,7.318c-6.623-4.021-41.579-14.234-68.124,0-32.643,17.5-61.185,80.108-15.138,143.817.066.09,34.062-3.784,34.062-3.784Z" transform="translate(-82.988 0)"/>
    </g>
    <g id="Group_10" data-name="Group 10" transform="translate(64.339 124.643)">
      <path id="Path_43" data-name="Path 43" class="cls-2" d="M211.889,225.554h-.206v-8.84H158.7v8.831c0,8.651-.036,18.055-7.57,23.743v84.75h68.124V249.156C211.912,243.453,211.889,234.131,211.889,225.554Z" transform="translate(-151.129 -216.714)"/>
    </g>
    <g id="Group_11" data-name="Group 11" transform="translate(75.693 198.67)">
      <path id="Path_44" data-name="Path 44" class="cls-3" d="M193.578,350.874a86.852,86.852,0,0,1-22.708-2.953v40.8h52.985v-43.3A82.529,82.529,0,0,1,193.578,350.874Z" transform="translate(-170.87 -345.424)"/>
    </g>
    <g id="Group_12" data-name="Group 12" transform="translate(71.908 124.422)">
      <path id="Path_45" data-name="Path 45" class="cls-4" d="M221.059,265.752a20.881,20.881,0,0,0,3.784.675V248.993c-7.34-5.7-7.364-15.025-7.364-23.6l-.005-.22v-8.84l-41.832.22-11.354,3.784C171.858,228.851,195.04,258.656,221.059,265.752Z" transform="translate(-164.289 -216.331)"/>
    </g>
    <g id="Group_13" data-name="Group 13" transform="translate(45.416 33.81)">
      <path id="Path_46" data-name="Path 46" class="cls-5" d="M224.2,100.417c0,30.308-30.142,68.124-52.985,68.124s-52.985-37.816-52.985-68.124,23.723-41.632,52.985-41.632S224.2,70.109,224.2,100.417Z" transform="translate(-118.228 -58.785)"/>
    </g>
    <g id="Group_14" data-name="Group 14" transform="translate(33.691 14.887)">
      <path id="Path_47" data-name="Path 47" class="cls-1" d="M170.121,25.884c-2.126,0-9.03,2.389-14.673,4.483l-.465-.7-2.127,1.673c-3.139,1.192-5.442,2.112-5.442,2.112l.885,1.476C133.934,46.247,101.16,72.137,98.213,75.084c-3.784,3.784,22.708,100.343,22.708,45.416,0-45.889,25.495-54.977,49.2-60.554C180.844,57.423,184,51.115,185.26,44.808S173.906,25.884,170.121,25.884Z" transform="translate(-97.843 -25.884)"/>
    </g>
    <g id="Group_15" data-name="Group 15" transform="translate(109.755 7.318)">
      <path id="Path_48" data-name="Path 48" class="cls-1" d="M237.662,43c6.939,24.915,20.816,36.191,33.826,39.5,7.129,1.815,4.021-20.579,4.021-20.579s-10.093-25.862-11.354-26.492S252.8,12.724,252.8,12.724L230.093,31.648Z" transform="translate(-230.093 -12.724)"/>
    </g>
    <g id="Group_16" data-name="Group 16" transform="translate(0 152.682)">
      <path id="Path_49" data-name="Path 49" class="cls-6" d="M107.759,265.465c-3.545,5.759-10.771,9.807-25.6,9.807H80.9A41.632,41.632,0,0,0,39.264,316.9V343.4A11.354,11.354,0,0,0,50.618,354.75h77.661Z" transform="translate(-39.264 -265.465)"/>
    </g>
    <g id="Group_17" data-name="Group 17" transform="translate(107.787 152.682)">
      <path id="Path_50" data-name="Path 50" class="cls-6" d="M247.191,265.465c3.545,5.759,10.771,9.807,25.6,9.807h1.261A41.632,41.632,0,0,1,315.686,316.9V343.4a11.354,11.354,0,0,1-11.354,11.354H226.671Z" transform="translate(-226.671 -265.465)"/>
    </g>
    <g id="Group_18" data-name="Group 18" transform="translate(30.277 211.69)">
      <ellipse id="Ellipse_10" data-name="Ellipse 10" class="cls-7" cx="11.354" cy="11.354" rx="11.354" ry="11.354"/>
    </g>
    <g id="Group_19" data-name="Group 19" transform="translate(133.41 171.004)">
      <path id="Path_51" data-name="Path 51" class="cls-7" d="M307.2,362.323l-4.679-3.216c4.158-6.049,6.543-15.119,6.543-24.885C309.068,317.3,301.7,303,292.983,303S276.9,317.3,276.9,334.222c0,9.765,2.385,18.836,6.543,24.885l-4.679,3.216c-4.792-6.973-7.541-17.215-7.541-28.1,0-20.692,9.558-36.9,21.762-36.9s21.762,16.209,21.762,36.9C314.744,345.108,312,355.35,307.2,362.323Z" transform="translate(-271.222 -297.322)"/>
    </g>
    <g id="Group_20" data-name="Group 20" transform="translate(140.032 230.613)">
      <ellipse id="Ellipse_11" data-name="Ellipse 11" class="cls-3" cx="3.784" cy="3.784" rx="3.784" ry="3.784"/>
    </g>
    <g id="Group_21" data-name="Group 21" transform="translate(162.74 230.613)">
      <ellipse id="Ellipse_12" data-name="Ellipse 12" class="cls-3" cx="3.784" cy="3.784" rx="3.784" ry="3.784"/>
    </g>
    <g id="Group_22" data-name="Group 22" transform="translate(38.793 152.08)">
      <path id="Path_52" data-name="Path 52" class="cls-7" d="M109.55,330.652a2.838,2.838,0,0,1-2.838-2.838c0-49.045,23.181-62.488,24.168-63.036a2.839,2.839,0,0,1,2.771,4.955c-.278.161-21.262,12.752-21.262,58.081A2.838,2.838,0,0,1,109.55,330.652Z" transform="translate(-106.712 -264.419)"/>
    </g>
    <g id="Group_23" data-name="Group 23" transform="translate(35.638 217.051)">
      <ellipse id="Ellipse_13" data-name="Ellipse 13" class="cls-8" cx="5.992" cy="5.992" rx="5.992" ry="5.992"/>
    </g>
    <g id="Group_24" data-name="Group 24" transform="translate(144.763 159.651)">
      <path id="Path_53" data-name="Path 53" class="cls-7" d="M301.369,294.614a2.841,2.841,0,0,1-2.677-1.9c-2.466-6.988-6.481-9.945-6.521-9.973a2.839,2.839,0,1,1,3.256-4.651c.224.157,5.513,3.935,8.618,12.735a2.84,2.84,0,0,1-2.677,3.783Z" transform="translate(-290.961 -277.583)"/>
    </g>
  </g>
  <g id="Group_26" data-name="Group 26" transform="translate(136.248 75.442)">
    <path id="Path_54" data-name="Path 54" class="cls-5" d="M285.657,131.515c6.193-1.419,10.25,1.613,10.25,7.57,0,7.885-8.328,27.2-17.082,15.138S285.657,131.515,285.657,131.515Z" transform="translate(-276.156 -131.17)"/>
  </g>
</svg>
