<svg id="Logo-02" xmlns="http://www.w3.org/2000/svg" xmlns:xlink="http://www.w3.org/1999/xlink" viewBox="0 0 960 641.953">
  <defs>
    <style>
      .cls-1 {
        fill: url(#linear-gradient);
      }

      .cls-2 {
        fill: url(#linear-gradient-2);
      }

      .cls-3 {
        fill: url(#linear-gradient-3);
      }

      .cls-4 {
        fill: url(#linear-gradient-4);
      }

      .cls-5 {
        fill: url(#linear-gradient-5);
      }

      .cls-6 {
        fill: url(#linear-gradient-6);
      }

      .cls-7 {
        fill: url(#linear-gradient-7);
      }

      .cls-8 {
        fill: url(#linear-gradient-8);
      }

      .cls-9 {
        fill: url(#linear-gradient-9);
      }

      .cls-10 {
        fill: url(#linear-gradient-10);
      }

      .cls-11 {
        fill: url(#linear-gradient-11);
      }

      .cls-12 {
        fill: #fff;
      }

      .cls-13 {
        fill: url(#linear-gradient-12);
      }

      .cls-14 {
        fill: none;
      }

      .cls-15 {
        fill: url(#linear-gradient-13);
      }

      .cls-16 {
        fill: url(#linear-gradient-14);
      }

      .cls-17 {
        fill: url(#linear-gradient-15);
      }

      .cls-18 {
        fill: url(#linear-gradient-16);
      }

      .cls-19 {
        fill: url(#linear-gradient-17);
      }

      .cls-20 {
        fill: url(#linear-gradient-18);
      }

      .cls-21 {
        fill: url(#linear-gradient-19);
      }

      .cls-22 {
        fill: url(#linear-gradient-20);
      }

      .cls-23 {
        fill: url(#linear-gradient-21);
      }

      .cls-24 {
        fill: url(#linear-gradient-22);
      }

      .cls-25 {
        fill: url(#linear-gradient-23);
      }

      .cls-26 {
        fill: url(#linear-gradient-24);
      }

      .cls-27 {
        fill: url(#linear-gradient-25);
      }

      .cls-28 {
        fill: url(#linear-gradient-26);
      }

      .cls-29 {
        fill: url(#linear-gradient-27);
      }

      .cls-30 {
        fill: url(#linear-gradient-28);
      }

      .cls-31 {
        fill: url(#linear-gradient-29);
      }

      .cls-32 {
        fill: url(#linear-gradient-30);
      }

      .cls-33 {
        fill: url(#linear-gradient-31);
      }

      .cls-34 {
        fill: url(#linear-gradient-32);
      }

      .cls-35 {
        fill: url(#linear-gradient-33);
      }
    </style>
    <linearGradient id="linear-gradient" x1="0.507" y1="-0.306" x2="0.498" y2="0.896" gradientUnits="objectBoundingBox">
      <stop offset="0" stop-color="#b57e10"/>
      <stop offset="0.151" stop-color="#b57e10"/>
      <stop offset="0.464" stop-color="#e5c35c"/>
      <stop offset="0.613" stop-color="#f9df7b"/>
      <stop offset="0.72" stop-color="#fff3a6"/>
      <stop offset="0.839" stop-color="#f9df7b"/>
      <stop offset="1" stop-color="#b57e10"/>
    </linearGradient>
    <linearGradient id="linear-gradient-2" x1="0.511" y1="-0.752" x2="0.5" y2="0.849" xlink:href="#linear-gradient"/>
    <linearGradient id="linear-gradient-3" x1="0.516" y1="-0.717" x2="0.503" y2="0.855" xlink:href="#linear-gradient"/>
    <linearGradient id="linear-gradient-4" x1="0.502" y1="-0.285" x2="0.495" y2="0.917" xlink:href="#linear-gradient"/>
    <linearGradient id="linear-gradient-5" x1="0.506" y1="-0.321" x2="0.421" y2="0.92" xlink:href="#linear-gradient"/>
    <linearGradient id="linear-gradient-6" x1="0.571" y1="-0.278" x2="0.452" y2="0.925" xlink:href="#linear-gradient"/>
    <linearGradient id="linear-gradient-7" x1="0.572" y1="-0.276" x2="0.453" y2="0.926" xlink:href="#linear-gradient"/>
    <linearGradient id="linear-gradient-8" x1="0.508" y1="-0.316" x2="0.424" y2="0.926" xlink:href="#linear-gradient"/>
    <linearGradient id="linear-gradient-9" x1="0.508" y1="-0.711" x2="0.496" y2="0.882" xlink:href="#linear-gradient"/>
    <linearGradient id="linear-gradient-10" x1="0.508" y1="-0.705" x2="0.5" y2="0.918" xlink:href="#linear-gradient"/>
    <linearGradient id="linear-gradient-11" x1="0.502" y1="-0.685" x2="0.485" y2="0.901" xlink:href="#linear-gradient"/>
    <linearGradient id="linear-gradient-12" x1="-0.001" y1="0.5" x2="1" y2="0.5" xlink:href="#linear-gradient"/>
    <linearGradient id="linear-gradient-13" x1="0.511" y1="-0.567" x2="0.485" y2="0.893" xlink:href="#linear-gradient"/>
    <linearGradient id="linear-gradient-14" x1="0.507" y1="-2.361" x2="0.498" y2="1.75" xlink:href="#linear-gradient"/>
    <linearGradient id="linear-gradient-15" x1="-10.118" y1="0.503" x2="-9.122" y2="0.503" xlink:href="#linear-gradient"/>
    <linearGradient id="linear-gradient-16" x1="-13.793" y1="1.242" x2="-14.546" y2="-0.059" xlink:href="#linear-gradient"/>
    <linearGradient id="linear-gradient-17" x1="-8.055" y1="0.498" x2="-7.057" y2="0.498" xlink:href="#linear-gradient"/>
    <linearGradient id="linear-gradient-18" x1="19.614" y1="-0.232" x2="19.599" y2="0.889" xlink:href="#linear-gradient"/>
    <linearGradient id="linear-gradient-19" x1="-13.171" y1="-0.583" x2="-13.197" y2="0.877" xlink:href="#linear-gradient"/>
    <linearGradient id="linear-gradient-20" x1="0.478" y1="-2.379" x2="0.469" y2="1.732" xlink:href="#linear-gradient"/>
    <linearGradient id="linear-gradient-21" x1="0.515" y1="4.213" x2="0.515" y2="-6.549" xlink:href="#linear-gradient"/>
    <linearGradient id="linear-gradient-22" x1="0.454" y1="7.527" x2="0.454" y2="-6.464" xlink:href="#linear-gradient"/>
    <linearGradient id="linear-gradient-23" x1="0.585" y1="0.9" x2="0.585" y2="-12.216" xlink:href="#linear-gradient"/>
    <linearGradient id="linear-gradient-24" x1="0.396" y1="3.338" x2="0.396" y2="-11.924" xlink:href="#linear-gradient"/>
    <linearGradient id="linear-gradient-25" x1="0.5" y1="2.66" x2="0.5" y2="-0.048" xlink:href="#linear-gradient"/>
    <linearGradient id="linear-gradient-26" x1="0.504" y1="-0.233" x2="0.484" y2="0.905" xlink:href="#linear-gradient"/>
    <linearGradient id="linear-gradient-27" x1="0.519" y1="-0.245" x2="0.505" y2="0.897" xlink:href="#linear-gradient"/>
    <linearGradient id="linear-gradient-28" x1="1.313" y1="0.802" x2="-2.951" y2="-0.856" xlink:href="#linear-gradient"/>
    <linearGradient id="linear-gradient-29" x1="2.065" y1="1.55" x2="0.115" y2="0.229" xlink:href="#linear-gradient"/>
    <linearGradient id="linear-gradient-30" x1="0.161" y1="0.613" x2="3.449" y2="-1.49" xlink:href="#linear-gradient"/>
    <linearGradient id="linear-gradient-31" x1="-0.698" y1="1.428" x2="0.761" y2="0.29" xlink:href="#linear-gradient"/>
    <linearGradient id="linear-gradient-32" x1="3.535" y1="1.818" x2="-0.28" y2="0.092" xlink:href="#linear-gradient"/>
    <linearGradient id="linear-gradient-33" x1="3.778" y1="1.338" x2="-5.72" y2="-1.089" xlink:href="#linear-gradient"/>
  </defs>
  <rect id="Rectangle_80" data-name="Rectangle 80" width="960" height="641.953"/>
  <g id="Group_90" data-name="Group 90" transform="translate(82.023 83.139)">
    <g id="Group_79" data-name="Group 79" transform="translate(0 337.855)">
      <g id="Group_77" data-name="Group 77">
        <g id="Group_76" data-name="Group 76">
          <path id="Path_100" data-name="Path 100" class="cls-1" d="M29.4,231.528V150.9H41.675l28.736,45.2,28.736-45.2h12.276v80.628H98.031v-54.4L70.69,219.531,43.07,177.125v54.4Z" transform="translate(-29.4 -150.9)"/>
          <path id="Path_101" data-name="Path 101" class="cls-2" d="M111.286,167.816v-8.37h13.949v58.309H111.286v-8.37c-1.953,5.58-8.928,9.765-18.692,9.765A28.439,28.439,0,0,1,71.67,210.5q-8.37-8.788-8.37-21.761c0-8.649,2.79-15.9,8.37-21.482,5.58-5.859,12.554-8.649,20.924-8.649C102.079,158.33,109.333,162.236,111.286,167.816ZM107.1,201.294a17.444,17.444,0,0,0,5.3-12.833,16.849,16.849,0,0,0-5.3-12.833,17.033,17.033,0,0,0-12.554-5.022,16.406,16.406,0,0,0-12.276,5.022c-3.348,3.348-4.743,7.533-4.743,12.833a18.676,18.676,0,0,0,4.743,12.833,16.406,16.406,0,0,0,12.276,5.022A17.033,17.033,0,0,0,107.1,201.294Z" transform="translate(31.277 -137.127)"/>
          <path id="Path_102" data-name="Path 102" class="cls-3" d="M143.94,168.075,135.291,177a19.625,19.625,0,0,0-14.786-6.417,16.849,16.849,0,0,0-12.833,5.3c-3.348,3.348-5.022,7.812-5.022,13.112a18.334,18.334,0,0,0,5.022,13.112,17.911,17.911,0,0,0,12.833,5.3A19.08,19.08,0,0,0,135.291,201l8.649,8.928q-9.207,10.044-23.435,10.044c-8.928,0-16.46-2.79-22.6-8.649a30.985,30.985,0,0,1,0-44.08,31.606,31.606,0,0,1,22.6-8.928A29.254,29.254,0,0,1,143.94,168.075Z" transform="translate(76.74 -137.665)"/>
          <path id="Path_103" data-name="Path 103" class="cls-4" d="M134.872,231.528,110.6,150.9h6.138l20.645,67.794L158.307,150.9h4.464L183.7,218.694,204.061,150.9H210.2l-24.272,80.628h-4.185L160.26,163.175l-21.482,68.352Z" transform="translate(115.939 -150.9)"/>
          <path id="Path_104" data-name="Path 104" class="cls-5" d="M150.771,159.036a4.62,4.62,0,0,1,0-5.859c3.627-4.185,10.044,2.232,5.859,5.859A4.624,4.624,0,0,1,150.771,159.036Zm0,70.863V171.591h5.859V229.9Z" transform="translate(185.968 -149.272)"/>
          <path id="Path_105" data-name="Path 105" class="cls-6" d="M157.3,231.528V150.9h5.859v80.628Z" transform="translate(199.526 -150.9)"/>
          <path id="Path_106" data-name="Path 106" class="cls-7" d="M164.5,231.528V150.9h5.859v80.628Z" transform="translate(212.414 -150.9)"/>
          <path id="Path_107" data-name="Path 107" class="cls-8" d="M172.371,159.036a4.62,4.62,0,0,1,0-5.859c3.627-4.185,10.044,2.232,5.859,5.859A4.624,4.624,0,0,1,172.371,159.036Zm0,70.863V171.591h5.859V229.9Z" transform="translate(224.63 -149.272)"/>
          <path id="Path_108" data-name="Path 108" class="cls-9" d="M230.45,159.437h5.859v58.309H230.45v-12c-1.395,3.906-3.906,6.975-8.37,9.765-4.185,2.79-9.207,3.906-14.786,3.906a28,28,0,0,1-20.924-8.649Q178,201.983,178,189.01t8.37-21.761a28,28,0,0,1,20.924-8.649,28.5,28.5,0,0,1,14.786,3.906c4.185,2.79,6.975,5.859,8.37,9.486Zm-6.138,47.149c4.464-4.743,6.7-10.881,6.7-18.134s-2.232-13.391-6.7-18.134a23.264,23.264,0,0,0-33.758,0,25.343,25.343,0,0,0-6.7,17.855,26.03,26.03,0,0,0,6.7,18.134,22.157,22.157,0,0,0,16.739,7.254C213.99,213.84,219.569,211.329,224.312,206.586Z" transform="translate(236.577 -137.118)"/>
          <path id="Path_109" data-name="Path 109" class="cls-10" d="M285.723,182.114V218.1h-5.859V183.23c0-11.717-5.859-18.971-15.344-18.971-10.323,0-17.018,8.649-17.018,21.761v31.8h-5.859V182.951c0-11.439-6.138-18.971-15.344-18.971-10.044,0-16.739,8.928-16.739,22.319v31.247H203.7V159.237h5.859V170.4c3.069-8.091,9.207-12,18.134-12s15.344,5.022,17.855,13.391q4.185-13.391,20.087-13.391C278.19,158.958,285.723,167.886,285.723,182.114Z" transform="translate(282.577 -137.476)"/>
          <path id="Path_110" data-name="Path 110" class="cls-11" d="M240.885,203.138c2.232,6.417,8.091,10.6,16.739,10.6,9.486,0,13.67-4.743,13.67-10.6q0-5.022-3.348-7.533a57.019,57.019,0,0,0-11.439-6.138c-10.6-4.464-15.344-8.091-15.344-16.739,0-8.37,6.7-14.228,16.181-14.228,7.254,0,12.555,3.069,15.623,9.207l-4.743,2.511a11.653,11.653,0,0,0-10.6-6.138c-6.138,0-10.322,3.348-10.322,8.928,0,5.859,3.906,8.649,13.391,12.275,12,5.022,17.018,9.486,17.018,18.134,0,8.928-6.975,16.181-19.529,16.181-10.6,0-18.692-5.3-21.482-13.949Z" transform="translate(341.643 -137.297)"/>
          <path id="Path_111" data-name="Path 111" class="cls-12" d="M256.3,231.528V150.9h5.58l31.8,56.077L325.768,150.9h5.58v80.628H325.21V163.175l-31.526,54.682-31.526-54.4v68.352H256.3Z" transform="translate(376.725 -150.9)"/>
          <path id="Path_112" data-name="Path 112" class="cls-12" d="M291,231.528V150.9h24.272c12.834,0,22.877,3.627,30.41,11.16,7.533,7.254,11.16,17.018,11.16,29.294s-3.627,21.761-11.16,29.294q-10.881,10.881-30.131,10.881Zm6.138-5.58h18.134c11.439,0,20.087-3.069,26.5-9.486,6.138-6.417,9.486-14.786,9.486-25.388s-3.069-18.971-9.486-25.388c-6.138-6.417-15.065-9.486-26.5-9.486H297.417v69.747Z" transform="translate(438.834 -150.9)"/>
        </g>
      </g>
      <g id="Group_78" data-name="Group 78" transform="translate(445.824 106.853)">
        <path id="Path_113" data-name="Path 113" class="cls-12" d="M195.059,200.918a8.834,8.834,0,0,1-1.116-4.464,7.364,7.364,0,0,1,1.953-5.3,8.17,8.17,0,0,1,10.6,0,6.119,6.119,0,0,1,1.953,4.743,5.3,5.3,0,0,1-1.395,3.627h10.323v3.069h-5.859v1.674a23.117,23.117,0,0,1-1.674,9.486l5.022,5.58h-3.906l-2.511-2.79a11.6,11.6,0,0,1-8.37,3.627c-3.348,0-5.859-.837-7.812-2.79a9.672,9.672,0,0,1-3.069-7.254Q189.2,203.847,195.059,200.918ZM199.8,217.1a7.2,7.2,0,0,0,6.138-2.79l-3.627-3.906-2.511-2.511c-.558-.558-.837-1.116-1.395-1.395a15.336,15.336,0,0,1-1.953-2.511c-3.069,1.395-4.464,3.348-4.464,6.417C192.269,214.309,195.338,217.1,199.8,217.1Zm7.812-6.138a21.771,21.771,0,0,0,.837-6.7v-1.674h-6.417v-1.953a4.523,4.523,0,0,0,3.348-4.464,3.889,3.889,0,0,0-4.185-3.906,4.1,4.1,0,0,0-4.185,4.185,8.147,8.147,0,0,0,.558,2.511,14.242,14.242,0,0,0,3.348,4.464Z" transform="translate(-189.2 -189.2)"/>
        <path id="Path_114" data-name="Path 114" class="cls-12" d="M211.3,218.973,223.855,189.4h2.511l12.554,29.573h-3.627l-3.069-7.254H218l-3.069,7.254Zm7.812-10.323h11.718l-5.859-14.228Z" transform="translate(-149.644 -188.842)"/>
        <path id="Path_115" data-name="Path 115" class="cls-12" d="M227.79,208.381c.558,1.953,2.511,3.348,5.3,3.348,3.627,0,4.743-1.674,4.743-3.348a2.72,2.72,0,0,0-1.116-2.511,31.4,31.4,0,0,0-4.185-1.953c-3.906-1.395-5.859-3.069-5.859-6.138,0-3.348,2.79-5.58,6.417-5.58,2.79,0,5.022,1.116,6.138,3.627l-2.511,1.395a4.021,4.021,0,0,0-3.627-2.232c-1.953,0-3.348,1.116-3.348,2.79s1.4,2.511,4.743,3.906c4.464,1.674,6.417,3.627,6.417,6.975s-2.79,6.138-7.812,6.138c-4.185,0-7.254-1.953-8.091-5.022Z" transform="translate(-125.122 -183.83)"/>
        <path id="Path_116" data-name="Path 116" class="cls-12" d="M237.19,208.381c.558,1.953,2.511,3.348,5.3,3.348,3.627,0,4.743-1.674,4.743-3.348a2.72,2.72,0,0,0-1.116-2.511,31.4,31.4,0,0,0-4.185-1.953c-3.906-1.395-5.859-3.069-5.859-6.138,0-3.348,2.79-5.58,6.417-5.58,2.79,0,5.022,1.116,6.138,3.627l-2.511,1.395a4.021,4.021,0,0,0-3.627-2.232c-1.953,0-3.348,1.116-3.348,2.79s1.395,2.511,4.743,3.906c4.464,1.674,6.417,3.627,6.417,6.975s-2.79,6.138-7.812,6.138c-4.185,0-7.254-1.953-8.091-5.022Z" transform="translate(-108.297 -183.83)"/>
        <path id="Path_117" data-name="Path 117" class="cls-12" d="M244,203.539a10.732,10.732,0,0,1,3.348-8.091,11.45,11.45,0,0,1,16.181,0,11.45,11.45,0,0,1,0,16.181A11.439,11.439,0,0,1,244,203.539Zm3.348,0a9.192,9.192,0,0,0,2.232,6.138,8.03,8.03,0,0,0,5.859,2.511,7.6,7.6,0,0,0,5.859-2.511,8.511,8.511,0,0,0-5.859-14.507,7.6,7.6,0,0,0-5.859,2.511C247.906,199.075,247.348,201.028,247.348,203.539Z" transform="translate(-91.114 -184.009)"/>
        <path id="Path_118" data-name="Path 118" class="cls-12" d="M275.829,195.3l-1.953,2.232a8.2,8.2,0,0,0-6.138-2.511,7.206,7.206,0,0,0-5.859,2.511,7.762,7.762,0,0,0-2.232,5.859,9.192,9.192,0,0,0,2.232,6.138,8.03,8.03,0,0,0,5.859,2.511,8.2,8.2,0,0,0,6.138-2.511l1.953,2.232a10.32,10.32,0,0,1-8.091,3.348,11.439,11.439,0,1,1,0-22.877A9.61,9.61,0,0,1,275.829,195.3Z" transform="translate(-69.099 -183.857)"/>
        <path id="Path_119" data-name="Path 119" class="cls-12" d="M268,193.272a2.17,2.17,0,1,1,3.069,0A3.022,3.022,0,0,1,268,193.272Zm0,25.388V197.178h3.069V218.66Z" transform="translate(-49.276 -188.529)"/>
        <path id="Path_120" data-name="Path 120" class="cls-12" d="M291.613,195.846v-3.069h3.069V214.26h-3.069v-3.069c-1.116,2.232-3.627,3.906-7.533,3.906a10.557,10.557,0,0,1-7.812-3.348,12.2,12.2,0,0,1,0-16.181,10.131,10.131,0,0,1,7.812-3.348A7.776,7.776,0,0,1,291.613,195.846Zm-1.953,13.391a9.192,9.192,0,0,0,2.232-6.138,7.992,7.992,0,0,0-2.232-5.859,7.024,7.024,0,0,0-5.58-2.511,7.435,7.435,0,0,0-5.58,2.511,9,9,0,0,0-2.232,5.859,9.191,9.191,0,0,0,2.232,6.138,7.455,7.455,0,0,0,11.16,0Z" transform="translate(-38.85 -183.85)"/>
        <path id="Path_121" data-name="Path 121" class="cls-12" d="M287.99,218.973V200.56H285.2v-3.069h2.79V189.4h3.069v8.091H295.8v3.069h-4.743v18.413Z" transform="translate(-17.371 -188.842)"/>
        <path id="Path_122" data-name="Path 122" class="cls-12" d="M292.6,203.539a12.349,12.349,0,0,1,3.069-8.37,10.5,10.5,0,0,1,7.812-3.069,8.662,8.662,0,0,1,6.975,3.069,10.1,10.1,0,0,1,2.79,7.533V204.1h-17.3c.279,4.743,3.069,7.812,7.533,7.812a7.718,7.718,0,0,0,6.7-3.069l1.953,1.953a11.5,11.5,0,0,1-16.46.837,10.715,10.715,0,0,1-3.069-8.091Zm17.3-2.232a5.551,5.551,0,0,0-1.953-4.464,7.184,7.184,0,0,0-4.464-1.953,6.723,6.723,0,0,0-5.022,1.953,5.824,5.824,0,0,0-2.232,4.464Z" transform="translate(-4.126 -184.009)"/>
        <path id="Path_123" data-name="Path 123" class="cls-12" d="M306.59,208.381c.558,1.953,2.511,3.348,5.3,3.348,3.627,0,4.743-1.674,4.743-3.348a2.72,2.72,0,0,0-1.116-2.511,31.4,31.4,0,0,0-4.185-1.953c-3.906-1.395-5.859-3.069-5.859-6.138,0-3.348,2.79-5.58,6.417-5.58,2.79,0,5.022,1.116,6.138,3.627l-2.511,1.395a4.021,4.021,0,0,0-3.627-2.232c-1.953,0-3.348,1.116-3.348,2.79s1.395,2.511,4.743,3.906c4.464,1.674,6.417,3.627,6.417,6.975s-2.79,6.138-7.812,6.138c-4.185,0-7.254-1.953-8.091-5.022Z" transform="translate(15.921 -183.83)"/>
      </g>
      <rect id="Rectangle_81" data-name="Rectangle 81" class="cls-12" width="423.226" height="1.953" transform="translate(0 133.636)"/>
    </g>
    <g id="Group_89" data-name="Group 89" transform="translate(238.535)">
      <path id="Path_124" data-name="Path 124" class="cls-13" d="M140.3,84.482c2.79,0,5.58-.279,8.37-.279a113.041,113.041,0,0,1,178.274,0c3.069,0,6.417.279,9.486.279l4.464.279a123.895,123.895,0,0,0-205.894,0Z" transform="translate(-78.923 -29.8)"/>
      <path id="Path_125" data-name="Path 125" class="cls-14" d="M179.074,71.6c-.837,0-1.674.279-1.674.837s.837.837,1.674.837,1.674-.279,1.674-.837C180.748,72.158,179.911,71.6,179.074,71.6Z" transform="translate(-3.032 45.017)"/>
      <path id="Path_126" data-name="Path 126" class="cls-15" d="M195.385,76.322c-3.348-3.069-7.254-5.022-11.718-5.022h-1.116a9.4,9.4,0,0,0-4.743,1.395,2.651,2.651,0,0,0-1.674,2.79,4.963,4.963,0,0,0,1.953,2.232c1.116.837,2.232.558,3.627,1.116a9.428,9.428,0,0,1,3.348,1.674,16.131,16.131,0,0,0-3.906-1.395,8.911,8.911,0,0,1-3.906-.837,2.57,2.57,0,0,0,1.953,3.069c2.511,1.116,5.3,1.116,7.812,1.953,2.79.837,4.743,3.069,6.138,5.3a9.082,9.082,0,0,1,1.116,3.906c.279,4.464-3.069,8.091-6.7,10.6l-2.511,1.674c2.79-1.395,5.58-2.79,8.649-4.464,4.185-2.511,8.37-6.417,8.649-11.439.279-3.627-1.395-6.975-3.348-9.486C197.617,78.833,196.5,77.438,195.385,76.322Zm-9.765,1.395a1.245,1.245,0,0,1-1.395,0,.273.273,0,0,1-.279-.279c-.837-.558-.558-1.953.279-2.511a1.845,1.845,0,0,1,1.674-.279l.837.837C186.736,76.6,186.457,77.438,185.62,77.717Z" transform="translate(-5.394 44.48)"/>
      <path id="Path_127" data-name="Path 127" class="cls-16" d="M177.048,73.1a3.625,3.625,0,0,0-3.348,2.232c.558-.279,1.116-.837,1.674-.837a3.006,3.006,0,0,0-.558,2.232,4.434,4.434,0,0,1,3.069-2.79c.837-.279,1.674.279,2.511.837A3.644,3.644,0,0,0,177.048,73.1Z" transform="translate(-9.655 47.702)"/>
      <g id="Group_82" data-name="Group 82" transform="translate(121.888 116.338)">
        <g id="Group_80" data-name="Group 80" transform="translate(7.984 12.833)">
          <path id="Path_128" data-name="Path 128" class="cls-17" d="M193.709,137.158a43.885,43.885,0,0,0-5.3-5.022c-3.906-3.627-8.091-6.975-11.439-11.16,0,0-10.6-13.391-3.627-22.877-3.069,2.511-5.859,5.3-7.533,8.928-2.232,5.022-.837,10.323,1.953,14.507a15.331,15.331,0,0,0,1.953,2.511,88.97,88.97,0,0,0,7.254,7.254c15.344,13.67,17.3,18.134,15.065,22.877C196.778,145.807,195.383,140.227,193.709,137.158Z" transform="translate(-155.629 -36.722)"/>
          <path id="Path_129" data-name="Path 129" class="cls-18" d="M185.383,112.1c1.953,3.069,3.348,8.649-1.674,17.3a18.766,18.766,0,0,1-1.953,3.069c-4.464,6.7-18.692,19.808-9.207,34.595-.558-.837-.558-3.069-.558-4.185a31.211,31.211,0,0,1,1.395-10.044,29.542,29.542,0,0,1,8.091-12c3.348-3.069,6.975-6.138,8.928-10.323C193.474,123.818,190.126,117.4,185.383,112.1Z" transform="translate(-147.304 -11.664)"/>
          <path id="Path_130" data-name="Path 130" class="cls-19" d="M196.665,85.1c2.232,1.674,9.486,8.928-3.906,19.808a24.4,24.4,0,0,1-2.79,2.232c-6.417,4.464-13.112,8.37-19.25,13.391-.558.279-.837.837-1.395,1.116-6.975,9.486,3.627,22.877,3.627,22.877-3.069-3.906-4.743-8.928-1.674-13.391a15.971,15.971,0,0,1,4.464-4.185c5.859-4.185,12-7.812,18.134-11.439,4.464-2.79,10.044-5.859,12.834-10.881C211.452,95.981,204.2,89.564,196.665,85.1Z" transform="translate(-151.611 -59.991)"/>
          <path id="Path_131" data-name="Path 131" class="cls-20" d="M206.505,101.209a88.159,88.159,0,0,0-8.928-4.464c-6.417-2.79-13.391-5.022-19.808-8.091-3.906-1.953-10.881-5.022-11.717-10.044a3.316,3.316,0,0,1,.558-2.511c-1.953,1.674-12.554,10.6,3.906,20.924,15.344,7.254,29.852,9.207,33.758,15.9,1.953,3.348.558,5.859-1.953,8.091C215.991,110.137,208.737,102.883,206.505,101.209Z" transform="translate(-161.451 -76.1)"/>
        </g>
        <g id="Group_81" data-name="Group 81">
          <path id="Path_132" data-name="Path 132" class="cls-14" d="M167.209,71.6c.837,0,1.674.279,1.674.837s-.837.837-1.674.837-1.674-.279-1.674-.837C165.256,72.158,166.093,71.6,167.209,71.6Z" transform="translate(-146.254 -71.321)"/>
          <path id="Path_133" data-name="Path 133" class="cls-21" d="M161.967,79.591c-1.953,2.79-3.627,6.138-3.348,9.486.279,5.022,4.464,8.928,8.649,11.439a50.736,50.736,0,0,0,8.649,4.464l-2.511-1.674c-3.348-2.511-6.975-6.138-6.7-10.6a9.082,9.082,0,0,1,1.116-3.906,10.471,10.471,0,0,1,6.138-5.3c2.511-.837,5.3-.837,7.812-1.953,1.116-.558,2.232-1.674,1.953-3.069a8.911,8.911,0,0,1-3.906.837,6.666,6.666,0,0,0-3.906,1.395,6.364,6.364,0,0,1,3.348-1.674c1.116-.279,2.511-.279,3.627-1.116a4.963,4.963,0,0,0,1.953-2.232c.279-1.395-.558-2.232-1.674-2.79a13.379,13.379,0,0,0-4.743-1.395h-1.116a16.7,16.7,0,0,0-11.718,5.022C164.2,77.08,163.083,78.475,161.967,79.591Zm12.555-4.185.837-.837a1.845,1.845,0,0,1,1.674.279,1.573,1.573,0,0,1,.279,2.511l-.279.279a1.245,1.245,0,0,1-1.395,0C174.522,77.08,173.964,76.243,174.522,75.406Z" transform="translate(-158.589 -71.5)"/>
        </g>
        <path id="Path_134" data-name="Path 134" class="cls-22" d="M171.348,73.1a3.625,3.625,0,0,1,3.348,2.232c-.558-.279-1.116-.837-1.674-.837a3.006,3.006,0,0,1,.558,2.232,4.434,4.434,0,0,0-3.069-2.79c-.837-.279-1.674.279-2.511.837C168.558,73.379,169.953,73.1,171.348,73.1Z" transform="translate(-141.745 -68.636)"/>
      </g>
      <g id="Group_83" data-name="Group 83" transform="translate(0 57.472)">
        <path id="Path_135" data-name="Path 135" class="cls-23" d="M171.4,101.116l.279,19.25,1.395,1.395,1.395-1.395.279-19.25c-.558-.279-1.116-.837-1.674-1.116C172.516,100.279,171.958,100.837,171.4,101.116Z" transform="translate(-13.771 38.378)"/>
        <path id="Path_136" data-name="Path 136" class="cls-24" d="M171.2,88.537l.279,14.507c.558.279.837.558,1.395.837.279.279.558.279.837.558.279-.279.558-.279.837-.558.558-.279.837-.558,1.395-.837l.279-14.507-2.511-.837A12.97,12.97,0,0,0,171.2,88.537Z" transform="translate(-14.129 16.363)"/>
        <path id="Path_137" data-name="Path 137" class="cls-25" d="M172.179,127.1h0c0,.279-.279.837-.279,1.116l.279,16.739.279-16.739a2.109,2.109,0,0,0-.279-1.116Z" transform="translate(-12.876 86.884)"/>
        <path id="Path_138" data-name="Path 138" class="cls-26" d="M171.7,115.616l.279,13.391.837.837.837-.837.279-13.391c-.279-.279-.558-.837-1.116-1.116A2.178,2.178,0,0,0,171.7,115.616Z" transform="translate(-13.234 64.332)"/>
        <path id="Path_139" data-name="Path 139" class="cls-27" d="M422.345,51.795c-13.949,1.116-28.178.558-42.127,0-15.065-.558-30.41-1.116-45.475-1.116-10.881,0-21.761,1.116-32.084,4.743-13.391,4.743-21.482,13.949-24.83,26.783V71.6a2.313,2.313,0,0,0,2.232-.837,1.746,1.746,0,0,0-1.395-2.511h-.837a7.215,7.215,0,0,0,3.906-3.069,10.294,10.294,0,0,0,1.395-7.533,8.747,8.747,0,0,0-5.022-5.859,8.91,8.91,0,0,0-5.3-.837,9.148,9.148,0,0,0-6.138,3.906,8.8,8.8,0,0,0-1.395,6.417,8.981,8.981,0,0,0,3.348,5.58,5.608,5.608,0,0,0,2.232,1.116h0a3.539,3.539,0,0,0-1.674.279,1.475,1.475,0,0,0-.279,2.232,2.656,2.656,0,0,0,1.953.558V81.926c-3.069-12.833-11.16-22.04-24.83-26.783-10.323-3.627-21.2-4.743-32.084-4.743-15.065,0-30.41.558-45.475,1.116-13.949.558-28.178.837-42.127,0-3.906-.279-7.533-.558-11.439-1.116v.558c5.58,8.928,12.833,15.9,22.877,19.808,9.765,3.627,20.087,4.185,30.131,3.069,12-1.395,23.714-3.627,35.432-5.58,9.486-1.674,18.971-3.069,28.457-2.79A49.254,49.254,0,0,1,247.42,67.7a11.443,11.443,0,0,1-3.069-.279c-10.881-1.116-21.761,0-32.642,1.953-14.786,2.511-29.294,5.58-44.08,8.091a105.556,105.556,0,0,1-36.269,0c.279.279.279.558.558.837,6.138,7.533,13.391,13.112,22.877,15.623,9.207,2.511,18.413,1.395,27.062-1.674,9.486-3.348,18.971-7.533,28.457-11.439,8.928-3.627,18.134-7.533,27.9-8.649a36.579,36.579,0,0,1,12.275.279c-3.627.558-6.7.558-9.765,1.116-9.765,1.674-18.971,5.3-28.178,9.207-13.391,5.58-26.5,11.718-40.453,15.623-.279,0-.279.279-.837.558,1.116.279,2.232.837,3.348,1.116,10.881,3.069,21.482,3.348,31.8-1.674,5.58-2.79,10.881-5.859,15.9-8.928,7.254-4.185,14.507-8.37,22.6-10.881l5.859-1.674c-17.3,7.254-32.084,18.134-47.986,27.9,8.649,1.674,16.46.558,23.435-3.906,4.185-2.79,8.091-5.859,12-8.649,5.022-3.627,10.044-7.533,15.065-11.16.279-.279.837-.279,1.674-.837-9.486,8.649-18.692,17.3-28.178,25.946h1.674c7.812-.279,14.507-3.069,19.808-9.207,2.79-3.627,5.58-7.254,8.649-10.881.279-.558.837-.837,1.116-1.395A102.227,102.227,0,0,1,242.4,105.64a15.943,15.943,0,0,0,13.391-5.859,94.049,94.049,0,0,0,5.3-8.928,28.15,28.15,0,0,0,1.953-4.185,8.911,8.911,0,0,1-.837,3.906,56.148,56.148,0,0,1-6.975,14.228c8.37-2.79,10.044-10.881,13.391-18.134.558,2.232,1.395,4.464,1.953,6.417a3.59,3.59,0,0,0-2.232,3.627,3.908,3.908,0,0,0,2.511,3.348v.837a3.539,3.539,0,0,0-1.674.279,1.765,1.765,0,0,0-.279,2.511c.279.279.558.279,1.116.558h.837l.558,31.526c.837.279,1.953.837,2.79,1.116.837-.279,1.953-.837,2.79-1.116l.558-30.968h1.116a1.449,1.449,0,0,0,1.116-.558,1.792,1.792,0,0,0-.279-2.511,3.538,3.538,0,0,0-1.674-.279v-.837a3.972,3.972,0,0,0,2.511-3.627c0-1.674-1.116-2.79-2.511-3.627.558-1.953,1.116-4.185,1.953-6.417,3.348,7.254,5.022,15.065,13.391,18.134A56.146,56.146,0,0,1,286.2,90.853a19.543,19.543,0,0,1-.837-3.906,28.152,28.152,0,0,0,1.953,4.185,94.051,94.051,0,0,0,5.3,8.928c3.069,4.185,8.091,6.138,13.391,5.859a102.228,102.228,0,0,1-15.623-20.924c.279.558.837.837,1.116,1.395,2.79,3.627,5.58,7.254,8.649,10.881,5.022,6.138,11.717,8.928,19.808,9.207h1.674c-9.486-8.649-18.692-17.018-28.178-25.946a9.289,9.289,0,0,1,1.674.837c5.022,3.627,10.044,7.533,15.065,11.16a118.515,118.515,0,0,0,12,8.649c6.975,4.464,14.786,5.58,23.435,3.906-15.9-9.765-30.968-20.924-47.986-27.9l5.859,1.674c8.091,2.511,15.344,6.417,22.6,10.881,5.3,3.069,10.6,6.138,15.9,8.928,10.323,5.022,20.924,4.743,31.8,1.674a15.727,15.727,0,0,0,3.348-1.116c-.279-.279-.558-.279-.837-.558-13.949-3.906-27.062-9.765-40.453-15.623-9.207-3.906-18.413-7.533-28.178-9.207a94.46,94.46,0,0,0-9.765-1.116,45.494,45.494,0,0,1,12.276-.279c9.765,1.116,18.692,4.743,27.9,8.649,9.486,3.906,18.971,8.091,28.457,11.439C375.2,95.6,384.4,96.712,393.609,94.2c9.486-2.511,16.739-8.091,22.877-15.623,0-.279.279-.279.558-.837a93.335,93.335,0,0,1-36.268,0C365.99,75.23,351.2,72.161,336.7,69.65c-10.881-1.953-21.761-3.069-32.642-1.953-.837,0-1.953.279-3.069.279a49.255,49.255,0,0,1,15.623-2.232c9.486-.279,18.971,1.395,28.457,2.79,11.717,1.953,23.714,4.185,35.432,5.58,10.323,1.395,20.366.837,30.131-3.069,10.044-3.906,17.3-10.881,22.877-19.808v-.558C429.878,51.237,425.972,51.516,422.345,51.795Zm-151.77,2.511a2.282,2.282,0,0,1,3.348,1.953,2.023,2.023,0,0,1-3.348,1.395A1.862,1.862,0,0,1,270.576,54.306Zm1.953,12.276a5.3,5.3,0,0,1-3.069-1.953,7.376,7.376,0,0,0,6.417,1.116,6.4,6.4,0,0,0,4.185-5.022,6.647,6.647,0,0,0-1.395-5.022,6.126,6.126,0,0,1,1.116,8.37A6.477,6.477,0,0,1,272.529,66.581Z" transform="translate(-114.9 -50.4)"/>
      </g>
      <g id="Group_84" data-name="Group 84" transform="translate(34.316 104.063)">
        <path id="Path_140" data-name="Path 140" class="cls-12" d="M283.637,67.2a5.173,5.173,0,0,1-1.953.558,46.541,46.541,0,0,1-8.649,1.395h-.279a125.036,125.036,0,0,1,1.395,17.855c0,56.635-41.848,103.784-96.251,112.153a16.323,16.323,0,0,1,.837,10.881A124.449,124.449,0,0,0,285.032,87.008,93.4,93.4,0,0,0,283.637,67.2Z" transform="translate(-36.453 -66.921)"/>
        <path id="Path_141" data-name="Path 141" class="cls-12" d="M235.448,199.62c-54.682-7.812-97.088-55.24-97.088-112.153a128.977,128.977,0,0,1,1.395-18.134,38.311,38.311,0,0,1-7.812-1.395c-1.116-.279-1.953-.558-3.069-.837A122.84,122.84,0,0,0,127.2,87.466c0,62.772,46.87,114.664,107.411,123.034A18.253,18.253,0,0,1,235.448,199.62Z" transform="translate(-127.2 -67.1)"/>
      </g>
      <g id="Group_85" data-name="Group 85" transform="translate(140.013 129.172)">
        <path id="Path_142" data-name="Path 142" class="cls-28" d="M167.915,85.4c-2.511,2.79-6.7,9.207,5.022,18.692-2.232-2.232-3.906-4.743-1.953-8.091,1.674-2.511,4.743-4.464,8.928-6.138-.279,0-.279-.279-.558-.279A115.487,115.487,0,0,1,167.915,85.4Z" transform="translate(-165.086 -59.454)"/>
        <path id="Path_143" data-name="Path 143" class="cls-29" d="M177.127,93.955a71.382,71.382,0,0,1,9.207,4.464c1.116-.558,1.953-.837,3.069-1.395,16.46-10.323,5.859-19.25,3.906-20.924a2.421,2.421,0,0,1,.558,2.511c-.837,4.743-7.812,8.091-11.718,10.044-2.79,1.395-5.859,2.511-8.649,3.627A38.834,38.834,0,0,0,177.127,93.955Z" transform="translate(-150.025 -76.1)"/>
      </g>
      <g id="Group_86" data-name="Group 86" transform="translate(132.397 155.397)">
        <path id="Path_144" data-name="Path 144" class="cls-30" d="M175.332,104.017A15.971,15.971,0,0,1,179.8,108.2c3.069,4.464,1.395,9.486-1.674,13.391,0,0,10.6-13.391,3.627-22.877-.558-.279-.837-.837-1.395-1.116h0l-.279.279c-2.232,1.395-4.464,2.79-6.975,4.185A7.522,7.522,0,0,0,175.332,104.017Z" transform="translate(-143.126 -63.842)"/>
        <path id="Path_145" data-name="Path 145" class="cls-31" d="M176.707,114.236c.837.558,1.395.837,2.232,1.395,2.511-1.953,5.022-3.627,7.533-5.3-1.953-1.395-3.906-2.511-5.859-3.906a19.546,19.546,0,0,1-2.79-2.232C166.105,94.707,170.29,88.011,172.8,85.5h-.279c-6.975,4.464-13.112,10.6-8.649,18.134C166.663,108.1,171.964,111.446,176.707,114.236Z" transform="translate(-162.356 -85.5)"/>
      </g>
      <g id="Group_87" data-name="Group 87" transform="translate(149.153 190.549)">
        <path id="Path_146" data-name="Path 146" class="cls-32" d="M176.279,116.822c-1.395-1.395-3.348-3.069-5.3-5.022a3.85,3.85,0,0,0-.837,1.116c-1.953,3.069-3.348,8.649,1.674,17.3C169.863,126.586,170.421,123.239,176.279,116.822Z" transform="translate(-168.362 -73.579)"/>
        <path id="Path_147" data-name="Path 147" class="cls-33" d="M182.286,98.1c6.975,9.486-3.627,22.877-3.627,22.877a40.347,40.347,0,0,1-5.859,6.138l.837.837,2.232,1.953,2.232,2.232.279-.279a88.981,88.981,0,0,0,7.254-7.254c.558-.837,1.395-1.674,1.953-2.511,2.79-4.464,4.185-9.765,1.953-14.507C188.144,103.4,185.355,100.611,182.286,98.1Z" transform="translate(-160.419 -98.1)"/>
      </g>
      <g id="Group_88" data-name="Group 88" transform="translate(144.219 229.608)">
        <path id="Path_148" data-name="Path 148" class="cls-34" d="M176.655,141.115c1.116-1.674,1.953-3.069,3.069-4.464-1.116-1.674-2.232-3.069-3.069-4.185s-1.395-2.232-1.953-3.069c-4.743-8.649-3.348-14.228-1.674-17.3-4.743,5.022-8.37,11.439-5.3,18.413C169.681,134.977,173.307,137.767,176.655,141.115Z" transform="translate(-166.594 -112.1)"/>
        <path id="Path_149" data-name="Path 149" class="cls-35" d="M172.7,128.127a11.659,11.659,0,0,1,1.116,2.79,24.4,24.4,0,0,1,1.395,10.044,10.844,10.844,0,0,1-.558,4.185c5.022-7.533,3.627-14.786.558-20.645A11.93,11.93,0,0,0,172.7,128.127Z" transform="translate(-155.664 -89.905)"/>
      </g>
    </g>
  </g>
</svg>
