<svg xmlns="http://www.w3.org/2000/svg" xmlns:xlink="http://www.w3.org/1999/xlink" viewBox="0 0 609.941 153.828">
  <defs>
    <style>
      .cls-1 {
        fill: url(#linear-gradient);
      }

      .cls-2 {
        fill: url(#linear-gradient-2);
      }

      .cls-3 {
        fill: url(#linear-gradient-3);
      }

      .cls-4 {
        fill: url(#linear-gradient-4);
      }

      .cls-5 {
        fill: url(#linear-gradient-5);
      }

      .cls-6 {
        fill: url(#linear-gradient-6);
      }

      .cls-7 {
        fill: url(#linear-gradient-7);
      }

      .cls-8 {
        fill: url(#linear-gradient-8);
      }

      .cls-9 {
        fill: url(#linear-gradient-9);
      }

      .cls-10 {
        fill: url(#linear-gradient-10);
      }

      .cls-11 {
        fill: url(#linear-gradient-11);
      }

      .cls-12 {
        fill: #fff;
      }

      .cls-13 {
        fill: #707070;
      }

      .cls-14 {
        fill: url(#linear-gradient-12);
      }

      .cls-15 {
        fill: none;
      }

      .cls-16 {
        fill: url(#linear-gradient-13);
      }

      .cls-17 {
        fill: url(#linear-gradient-14);
      }

      .cls-18 {
        fill: url(#linear-gradient-15);
      }

      .cls-19 {
        fill: url(#linear-gradient-16);
      }

      .cls-20 {
        fill: url(#linear-gradient-17);
      }

      .cls-21 {
        fill: url(#linear-gradient-18);
      }

      .cls-22 {
        fill: url(#linear-gradient-19);
      }

      .cls-23 {
        fill: url(#linear-gradient-20);
      }

      .cls-24 {
        fill: url(#linear-gradient-21);
      }

      .cls-25 {
        fill: url(#linear-gradient-22);
      }

      .cls-26 {
        fill: url(#linear-gradient-23);
      }

      .cls-27 {
        fill: url(#linear-gradient-24);
      }

      .cls-28 {
        fill: url(#linear-gradient-25);
      }

      .cls-29 {
        fill: #dcdcdc;
      }

      .cls-30 {
        fill: url(#linear-gradient-26);
      }

      .cls-31 {
        fill: url(#linear-gradient-27);
      }

      .cls-32 {
        fill: url(#linear-gradient-28);
      }

      .cls-33 {
        fill: url(#linear-gradient-29);
      }

      .cls-34 {
        fill: url(#linear-gradient-30);
      }

      .cls-35 {
        fill: url(#linear-gradient-31);
      }

      .cls-36 {
        fill: url(#linear-gradient-32);
      }

      .cls-37 {
        fill: url(#linear-gradient-33);
      }
    </style>
    <linearGradient id="linear-gradient" x1="0.507" y1="-0.306" x2="0.498" y2="0.896" gradientUnits="objectBoundingBox">
      <stop offset="0" stop-color="#b57e10"/>
      <stop offset="0.151" stop-color="#b57e10"/>
      <stop offset="0.464" stop-color="#e5c35c"/>
      <stop offset="0.613" stop-color="#f9df7b"/>
      <stop offset="0.72" stop-color="#fff3a6"/>
      <stop offset="0.839" stop-color="#f9df7b"/>
      <stop offset="1" stop-color="#b57e10"/>
    </linearGradient>
    <linearGradient id="linear-gradient-2" x1="0.511" y1="-0.752" x2="0.5" y2="0.849" xlink:href="#linear-gradient"/>
    <linearGradient id="linear-gradient-3" x1="0.516" y1="-0.717" x2="0.503" y2="0.855" xlink:href="#linear-gradient"/>
    <linearGradient id="linear-gradient-4" x1="0.502" y1="-0.285" x2="0.495" y2="0.917" xlink:href="#linear-gradient"/>
    <linearGradient id="linear-gradient-5" x1="0.506" y1="-0.321" x2="0.421" y2="0.92" xlink:href="#linear-gradient"/>
    <linearGradient id="linear-gradient-6" x1="0.571" y1="-0.278" x2="0.452" y2="0.925" xlink:href="#linear-gradient"/>
    <linearGradient id="linear-gradient-7" x1="0.572" y1="-0.276" x2="0.453" y2="0.926" xlink:href="#linear-gradient"/>
    <linearGradient id="linear-gradient-8" x1="0.508" y1="-0.316" x2="0.424" y2="0.926" xlink:href="#linear-gradient"/>
    <linearGradient id="linear-gradient-9" x1="0.508" y1="-0.711" x2="0.496" y2="0.882" xlink:href="#linear-gradient"/>
    <linearGradient id="linear-gradient-10" x1="0.508" y1="-0.705" x2="0.5" y2="0.918" xlink:href="#linear-gradient"/>
    <linearGradient id="linear-gradient-11" x1="0.502" y1="-0.685" x2="0.485" y2="0.901" xlink:href="#linear-gradient"/>
    <linearGradient id="linear-gradient-12" x1="-0.001" y1="0.5" x2="1" y2="0.5" xlink:href="#linear-gradient"/>
    <linearGradient id="linear-gradient-13" x1="0.511" y1="-0.567" x2="0.485" y2="0.893" xlink:href="#linear-gradient"/>
    <linearGradient id="linear-gradient-14" x1="0.507" y1="-2.361" x2="0.498" y2="1.75" xlink:href="#linear-gradient"/>
    <linearGradient id="linear-gradient-15" x1="-10.118" y1="0.503" x2="-9.122" y2="0.503" xlink:href="#linear-gradient"/>
    <linearGradient id="linear-gradient-16" x1="-13.793" y1="1.242" x2="-14.546" y2="-0.059" xlink:href="#linear-gradient"/>
    <linearGradient id="linear-gradient-17" x1="-8.055" y1="0.498" x2="-7.057" y2="0.498" xlink:href="#linear-gradient"/>
    <linearGradient id="linear-gradient-18" x1="19.614" y1="-0.232" x2="19.599" y2="0.889" xlink:href="#linear-gradient"/>
    <linearGradient id="linear-gradient-19" x1="-13.171" y1="-0.583" x2="-13.197" y2="0.877" xlink:href="#linear-gradient"/>
    <linearGradient id="linear-gradient-20" x1="0.478" y1="-2.379" x2="0.469" y2="1.732" xlink:href="#linear-gradient"/>
    <linearGradient id="linear-gradient-21" x1="0.515" y1="4.213" x2="0.515" y2="-6.549" xlink:href="#linear-gradient"/>
    <linearGradient id="linear-gradient-22" x1="0.454" y1="7.527" x2="0.454" y2="-6.464" xlink:href="#linear-gradient"/>
    <linearGradient id="linear-gradient-23" x1="0.585" y1="0.9" x2="0.585" y2="-12.216" xlink:href="#linear-gradient"/>
    <linearGradient id="linear-gradient-24" x1="0.396" y1="3.338" x2="0.396" y2="-11.924" xlink:href="#linear-gradient"/>
    <linearGradient id="linear-gradient-25" x1="0.5" y1="2.66" x2="0.5" y2="-0.048" xlink:href="#linear-gradient"/>
    <linearGradient id="linear-gradient-26" x1="0.504" y1="-0.233" x2="0.484" y2="0.905" xlink:href="#linear-gradient"/>
    <linearGradient id="linear-gradient-27" x1="0.519" y1="-0.245" x2="0.505" y2="0.897" xlink:href="#linear-gradient"/>
    <linearGradient id="linear-gradient-28" x1="1.313" y1="0.802" x2="-2.951" y2="-0.856" xlink:href="#linear-gradient"/>
    <linearGradient id="linear-gradient-29" x1="2.065" y1="1.55" x2="0.115" y2="0.229" xlink:href="#linear-gradient"/>
    <linearGradient id="linear-gradient-30" x1="0.161" y1="0.613" x2="3.449" y2="-1.49" xlink:href="#linear-gradient"/>
    <linearGradient id="linear-gradient-31" x1="-0.698" y1="1.428" x2="0.761" y2="0.29" xlink:href="#linear-gradient"/>
    <linearGradient id="linear-gradient-32" x1="3.535" y1="1.818" x2="-0.28" y2="0.092" xlink:href="#linear-gradient"/>
    <linearGradient id="linear-gradient-33" x1="3.778" y1="1.338" x2="-5.72" y2="-1.089" xlink:href="#linear-gradient"/>
  </defs>
  <g id="Group_90" data-name="Group 90" transform="translate(351.465 -221)">
    <g id="Group_79" data-name="Group 79" transform="translate(-164.589 283.133)">
      <g id="Group_77" data-name="Group 77">
        <g id="Group_76" data-name="Group 76">
          <path id="Path_100" data-name="Path 100" class="cls-1" d="M29.4,193.77V150.9h6.527l15.279,24.031L66.485,150.9h6.527v42.87h-7.12V164.844L51.354,187.392,36.669,164.844V193.77Z" transform="translate(-29.4 -150.9)"/>
          <path id="Path_101" data-name="Path 101" class="cls-2" d="M88.814,163.5v-4.45h7.417v31H88.814V185.6c-1.038,2.967-4.747,5.192-9.939,5.192a15.121,15.121,0,0,1-11.125-4.6,16.13,16.13,0,0,1-4.45-11.571A15.541,15.541,0,0,1,67.75,163.2a14.665,14.665,0,0,1,11.125-4.6C83.919,158.454,87.776,160.531,88.814,163.5Zm-2.225,17.8a9.275,9.275,0,0,0,2.818-6.824,8.959,8.959,0,0,0-2.818-6.824,9.057,9.057,0,0,0-6.675-2.67,8.723,8.723,0,0,0-6.527,2.67,9.061,9.061,0,0,0-2.522,6.824,9.93,9.93,0,0,0,2.522,6.824,8.723,8.723,0,0,0,6.527,2.67A9.057,9.057,0,0,0,86.589,181.3Z" transform="translate(-13.013 -147.18)"/>
          <path id="Path_102" data-name="Path 102" class="cls-3" d="M118.071,163.495l-4.6,4.747a10.435,10.435,0,0,0-7.862-3.412,8.959,8.959,0,0,0-6.824,2.818,9.508,9.508,0,0,0-2.67,6.972,9.748,9.748,0,0,0,2.67,6.972,9.523,9.523,0,0,0,6.824,2.818A10.145,10.145,0,0,0,113.473,181l4.6,4.747a16.16,16.16,0,0,1-12.461,5.34,16.682,16.682,0,0,1-12.016-4.6,16.475,16.475,0,0,1,0-23.438,16.8,16.8,0,0,1,12.016-4.747A15.555,15.555,0,0,1,118.071,163.495Z" transform="translate(-0.734 -147.326)"/>
          <path id="Path_103" data-name="Path 103" class="cls-4" d="M123.506,193.77,110.6,150.9h3.263l10.977,36.047L135.966,150.9h2.373l11.125,36.047L160.294,150.9h3.264l-12.906,42.87h-2.225L137,157.427,125.582,193.77Z" transform="translate(9.852 -150.9)"/>
          <path id="Path_104" data-name="Path 104" class="cls-5" d="M150.281,155.652a2.457,2.457,0,0,1,0-3.115c1.928-2.225,5.34,1.187,3.115,3.115A2.459,2.459,0,0,1,150.281,155.652Zm0,37.678v-31H153.4v31Z" transform="translate(28.765 -150.46)"/>
          <path id="Path_105" data-name="Path 105" class="cls-6" d="M157.3,193.77V150.9h3.115v42.87Z" transform="translate(32.427 -150.9)"/>
          <path id="Path_106" data-name="Path 106" class="cls-7" d="M164.5,193.77V150.9h3.115v42.87Z" transform="translate(35.907 -150.9)"/>
          <path id="Path_107" data-name="Path 107" class="cls-8" d="M171.881,155.652a2.457,2.457,0,0,1,0-3.115c1.928-2.225,5.34,1.187,3.115,3.115A2.459,2.459,0,0,1,171.881,155.652Zm0,37.678v-31H175v31Z" transform="translate(39.206 -150.46)"/>
          <path id="Path_108" data-name="Path 108" class="cls-9" d="M205.888,159.045H209v31h-3.115v-6.379a9.856,9.856,0,0,1-4.45,5.192,13.867,13.867,0,0,1-7.862,2.077,14.89,14.89,0,0,1-11.125-4.6,17.267,17.267,0,0,1,0-23.141,14.89,14.89,0,0,1,11.125-4.6,15.151,15.151,0,0,1,7.862,2.077,10.931,10.931,0,0,1,4.45,5.044Zm-3.263,25.069a14.837,14.837,0,0,0,0-19.284,12.369,12.369,0,0,0-17.949,0,13.475,13.475,0,0,0-3.56,9.494,13.84,13.84,0,0,0,3.56,9.642,12.537,12.537,0,0,0,17.949.148Z" transform="translate(42.433 -147.178)"/>
          <path id="Path_109" data-name="Path 109" class="cls-10" d="M247.312,171.009v19.136H244.2V171.6c0-6.23-3.115-10.087-8.159-10.087-5.489,0-9.049,4.6-9.049,11.571V190h-3.115V171.454c0-6.082-3.263-10.087-8.159-10.087-5.34,0-8.9,4.747-8.9,11.867v16.614H203.7v-31h3.115v5.934c1.632-4.3,4.9-6.379,9.642-6.379a9.423,9.423,0,0,1,9.494,7.12q2.225-7.12,10.68-7.12C243.307,158.7,247.312,163.444,247.312,171.009Z" transform="translate(54.856 -147.275)"/>
          <path id="Path_110" data-name="Path 110" class="cls-11" d="M238.925,182.234c1.187,3.412,4.3,5.637,8.9,5.637,5.044,0,7.269-2.522,7.269-5.637a4.687,4.687,0,0,0-1.78-4.005,30.316,30.316,0,0,0-6.082-3.263c-5.637-2.373-8.159-4.3-8.159-8.9,0-4.45,3.56-7.565,8.6-7.565,3.857,0,6.675,1.632,8.307,4.9l-2.522,1.335a6.2,6.2,0,0,0-5.637-3.263c-3.263,0-5.488,1.78-5.488,4.747,0,3.115,2.077,4.6,7.12,6.527,6.379,2.67,9.049,5.044,9.049,9.642,0,4.747-3.708,8.6-10.384,8.6-5.637,0-9.939-2.818-11.422-7.417Z" transform="translate(70.808 -147.226)"/>
          <path id="Path_111" data-name="Path 111" class="cls-12" d="M256.3,193.77V150.9h2.967l16.911,29.816L293.237,150.9H296.2v42.87H292.94V157.427L276.178,186.5l-16.762-28.926v36.343H256.3Z" transform="translate(80.283 -150.9)"/>
          <path id="Path_112" data-name="Path 112" class="cls-12" d="M291,193.77V150.9h12.906c6.824,0,12.164,1.928,16.169,5.934,4.005,3.857,5.934,9.049,5.934,15.576s-1.928,11.57-5.934,15.576q-5.785,5.785-16.021,5.785Zm3.263-2.967h9.642c6.082,0,10.68-1.632,14.092-5.044,3.263-3.412,5.044-7.862,5.044-13.5s-1.632-10.087-5.044-13.5c-3.263-3.412-8.01-5.044-14.092-5.044h-9.494V190.8Z" transform="translate(97.057 -150.9)"/>
        </g>
      </g>
      <g id="Group_78" data-name="Group 78" transform="translate(237.047 56.814)">
        <path id="Path_113" data-name="Path 113" class="cls-13" d="M192.315,195.43a4.7,4.7,0,0,1-.593-2.373,3.916,3.916,0,0,1,1.038-2.818,4.344,4.344,0,0,1,5.637,0,3.253,3.253,0,0,1,1.038,2.522,2.82,2.82,0,0,1-.742,1.928h5.489v1.632h-3.115v.89a12.291,12.291,0,0,1-.89,5.044l2.67,2.967h-2.077l-1.335-1.483a6.166,6.166,0,0,1-4.45,1.928,5.5,5.5,0,0,1-4.154-1.483,5.392,5.392,0,0,1,1.483-8.752Zm2.522,8.6a3.828,3.828,0,0,0,3.263-1.483l-1.928-2.077-1.335-1.335c-.3-.3-.445-.593-.742-.742a8.154,8.154,0,0,1-1.038-1.335,3.459,3.459,0,0,0-2.373,3.412A3.86,3.86,0,0,0,194.837,204.034Zm4.153-3.263a11.576,11.576,0,0,0,.445-3.56v-.89h-3.412v-1.038a2.4,2.4,0,0,0,1.78-2.373,2.068,2.068,0,0,0-2.225-2.077,2.178,2.178,0,0,0-2.225,2.225,4.332,4.332,0,0,0,.3,1.335,7.572,7.572,0,0,0,1.78,2.373Z" transform="translate(-189.2 -189.2)"/>
        <path id="Path_114" data-name="Path 114" class="cls-13" d="M211.3,205.124l6.675-15.724h1.335l6.675,15.724h-1.928l-1.632-3.857H214.86l-1.632,3.857Zm4.154-5.489h6.23l-3.115-7.565Z" transform="translate(-178.517 -189.103)"/>
        <path id="Path_115" data-name="Path 115" class="cls-13" d="M226.483,200.8a2.714,2.714,0,0,0,2.818,1.78c1.928,0,2.522-.89,2.522-1.78a1.446,1.446,0,0,0-.593-1.335,16.691,16.691,0,0,0-2.225-1.038c-2.077-.742-3.115-1.632-3.115-3.263,0-1.78,1.483-2.967,3.412-2.967a3.289,3.289,0,0,1,3.263,1.928l-1.335.742a2.138,2.138,0,0,0-1.928-1.187c-1.038,0-1.78.593-1.78,1.483s.742,1.335,2.522,2.077c2.373.89,3.412,1.928,3.412,3.708s-1.483,3.263-4.154,3.263c-2.225,0-3.857-1.038-4.3-2.67Z" transform="translate(-171.894 -187.75)"/>
        <path id="Path_116" data-name="Path 116" class="cls-13" d="M235.883,200.8a2.714,2.714,0,0,0,2.818,1.78c1.928,0,2.522-.89,2.522-1.78a1.446,1.446,0,0,0-.593-1.335,16.7,16.7,0,0,0-2.225-1.038c-2.077-.742-3.115-1.632-3.115-3.263,0-1.78,1.483-2.967,3.412-2.967a3.289,3.289,0,0,1,3.263,1.928l-1.335.742a2.138,2.138,0,0,0-1.928-1.187c-1.038,0-1.78.593-1.78,1.483s.742,1.335,2.522,2.077c2.373.89,3.412,1.928,3.412,3.708s-1.483,3.263-4.154,3.263c-2.225,0-3.857-1.038-4.3-2.67Z" transform="translate(-167.35 -187.75)"/>
        <path id="Path_117" data-name="Path 117" class="cls-13" d="M244,198.182a5.706,5.706,0,0,1,1.78-4.3,6.088,6.088,0,0,1,8.6,0,6.088,6.088,0,0,1,0,8.6,6.082,6.082,0,0,1-10.384-4.3Zm1.78,0a4.887,4.887,0,0,0,1.187,3.263,4.269,4.269,0,0,0,3.115,1.335,4.04,4.04,0,0,0,3.115-1.335,4.525,4.525,0,0,0-3.115-7.714,4.04,4.04,0,0,0-3.115,1.335A3.738,3.738,0,0,0,245.78,198.182Z" transform="translate(-162.71 -187.798)"/>
        <path id="Path_118" data-name="Path 118" class="cls-13" d="M266.684,193.839l-1.038,1.187a4.361,4.361,0,0,0-3.263-1.335,3.832,3.832,0,0,0-3.115,1.335,4.127,4.127,0,0,0-1.187,3.115,4.887,4.887,0,0,0,1.187,3.263,4.27,4.27,0,0,0,3.115,1.335,4.362,4.362,0,0,0,3.263-1.335l1.038,1.187a5.487,5.487,0,0,1-4.3,1.78,6.082,6.082,0,1,1,0-12.164A5.11,5.11,0,0,1,266.684,193.839Z" transform="translate(-156.764 -187.757)"/>
        <path id="Path_119" data-name="Path 119" class="cls-13" d="M267.709,191.541a1.154,1.154,0,1,1,1.632,0A1.607,1.607,0,0,1,267.709,191.541Zm0,13.5V193.617h1.632v11.422Z" transform="translate(-151.41 -189.019)"/>
        <path id="Path_120" data-name="Path 120" class="cls-13" d="M282.99,194.134V192.5h1.632v11.422H282.99v-1.632a4.179,4.179,0,0,1-4.005,2.077,5.613,5.613,0,0,1-4.154-1.78,6.486,6.486,0,0,1,0-8.6,5.387,5.387,0,0,1,4.154-1.78A4.135,4.135,0,0,1,282.99,194.134Zm-1.038,7.12a4.887,4.887,0,0,0,1.187-3.263,4.25,4.25,0,0,0-1.187-3.115,3.735,3.735,0,0,0-2.967-1.335,3.953,3.953,0,0,0-2.967,1.335,4.787,4.787,0,0,0-1.187,3.115,4.887,4.887,0,0,0,1.187,3.263,3.964,3.964,0,0,0,5.934,0Z" transform="translate(-148.595 -187.755)"/>
        <path id="Path_121" data-name="Path 121" class="cls-13" d="M286.683,205.124v-9.79H285.2V193.7h1.483v-4.3h1.632v4.3h2.522v1.632h-2.522v9.79Z" transform="translate(-142.794 -189.103)"/>
        <path id="Path_122" data-name="Path 122" class="cls-13" d="M292.6,198.182a6.566,6.566,0,0,1,1.632-4.45,5.582,5.582,0,0,1,4.154-1.632,4.605,4.605,0,0,1,3.708,1.632,5.37,5.37,0,0,1,1.483,4.005v.742h-9.2c.148,2.522,1.632,4.154,4.005,4.154a4.1,4.1,0,0,0,3.56-1.632l1.038,1.038a6.117,6.117,0,0,1-8.752.445,5.7,5.7,0,0,1-1.632-4.3ZM301.8,197a2.952,2.952,0,0,0-1.038-2.373,3.82,3.82,0,0,0-2.373-1.038,3.575,3.575,0,0,0-2.67,1.038A3.1,3.1,0,0,0,294.528,197Z" transform="translate(-139.217 -187.798)"/>
        <path id="Path_123" data-name="Path 123" class="cls-13" d="M305.283,200.8a2.714,2.714,0,0,0,2.818,1.78c1.928,0,2.522-.89,2.522-1.78a1.446,1.446,0,0,0-.593-1.335,16.692,16.692,0,0,0-2.225-1.038c-2.077-.742-3.115-1.632-3.115-3.263,0-1.78,1.483-2.967,3.412-2.967a3.289,3.289,0,0,1,3.263,1.928l-1.335.742a2.138,2.138,0,0,0-1.928-1.187c-1.038,0-1.78.593-1.78,1.483s.742,1.335,2.522,2.077c2.373.89,3.412,1.928,3.412,3.708s-1.483,3.263-4.154,3.263c-2.225,0-3.857-1.038-4.3-2.67Z" transform="translate(-133.803 -187.75)"/>
      </g>
      <rect id="Rectangle_81" data-name="Rectangle 81" class="cls-13" width="225.031" height="1.038" transform="translate(0 71.055)"/>
    </g>
    <g id="Group_89" data-name="Group 89" transform="translate(-351.465 221)">
      <path id="Path_124" data-name="Path 124" class="cls-14" d="M137.818,58.875c1.483,0,2.967-.148,4.45-.148a60.1,60.1,0,0,1,94.789,0c1.632,0,3.412.148,5.043.148l2.373.148a65.876,65.876,0,0,0-109.475,0Z" transform="translate(-105.184 -29.8)"/>
      <path id="Path_125" data-name="Path 125" class="cls-15" d="M178.29,71.6c-.445,0-.89.148-.89.445s.445.445.89.445.89-.148.89-.445C179.18,71.9,178.735,71.6,178.29,71.6Z" transform="translate(-84.688 -9.594)"/>
      <path id="Path_126" data-name="Path 126" class="cls-16" d="M186.345,73.97a9.159,9.159,0,0,0-6.23-2.67h-.593a5,5,0,0,0-2.522.742,1.41,1.41,0,0,0-.89,1.483,2.639,2.639,0,0,0,1.038,1.187c.593.445,1.187.3,1.928.593a5.013,5.013,0,0,1,1.78.89,8.577,8.577,0,0,0-2.077-.742,4.738,4.738,0,0,1-2.077-.445,1.366,1.366,0,0,0,1.038,1.632c1.335.593,2.818.593,4.154,1.038a6.12,6.12,0,0,1,3.263,2.818,4.829,4.829,0,0,1,.593,2.077c.148,2.373-1.632,4.3-3.56,5.637l-1.335.89c1.483-.742,2.967-1.483,4.6-2.373,2.225-1.335,4.45-3.412,4.6-6.082a7.486,7.486,0,0,0-1.78-5.044A6.656,6.656,0,0,1,186.345,73.97Zm-5.192.742a.662.662,0,0,1-.742,0,.145.145,0,0,1-.148-.148c-.445-.3-.3-1.038.148-1.335a.981.981,0,0,1,.89-.148l.445.445C181.746,74.118,181.6,74.563,181.153,74.712Z" transform="translate(-85.325 -9.739)"/>
      <path id="Path_127" data-name="Path 127" class="cls-17" d="M175.48,73.1a1.928,1.928,0,0,0-1.78,1.187c.3-.148.593-.445.89-.445a1.6,1.6,0,0,0-.3,1.187,2.357,2.357,0,0,1,1.632-1.483c.445-.148.89.148,1.335.445A1.937,1.937,0,0,0,175.48,73.1Z" transform="translate(-86.476 -8.869)"/>
      <g id="Group_82" data-name="Group 82" transform="translate(64.808 61.858)">
        <g id="Group_80" data-name="Group 80" transform="translate(4.245 6.824)">
          <path id="Path_128" data-name="Path 128" class="cls-18" d="M180.126,118.868a23.335,23.335,0,0,0-2.818-2.67,57.445,57.445,0,0,1-6.082-5.934s-5.637-7.12-1.928-12.164a13.719,13.719,0,0,0-4.005,4.747,7.97,7.97,0,0,0,1.038,7.714,8.152,8.152,0,0,0,1.038,1.335,47.3,47.3,0,0,0,3.857,3.857c8.159,7.269,9.2,9.642,8.01,12.164C181.757,123.466,181.016,120.5,180.126,118.868Z" transform="translate(-159.879 -65.465)"/>
          <path id="Path_129" data-name="Path 129" class="cls-19" d="M177.877,112.1c1.038,1.632,1.78,4.6-.89,9.2a9.977,9.977,0,0,1-1.038,1.632c-2.373,3.56-9.939,10.532-4.9,18.394a5.407,5.407,0,0,1-.3-2.225,16.6,16.6,0,0,1,.742-5.34,15.708,15.708,0,0,1,4.3-6.379c1.78-1.632,3.709-3.263,4.747-5.489C182.179,118.33,180.4,114.918,177.877,112.1Z" transform="translate(-157.63 -58.698)"/>
          <path id="Path_130" data-name="Path 130" class="cls-20" d="M182.749,85.1c1.187.89,5.044,4.747-2.077,10.532a12.971,12.971,0,0,1-1.483,1.187c-3.412,2.373-6.972,4.45-10.235,7.12-.3.148-.445.445-.742.593-3.708,5.044,1.928,12.164,1.928,12.164-1.632-2.077-2.522-4.747-.89-7.12a8.492,8.492,0,0,1,2.373-2.225c3.115-2.225,6.379-4.154,9.642-6.082,2.373-1.483,5.34-3.115,6.824-5.785C190.611,90.885,186.754,87.473,182.749,85.1Z" transform="translate(-158.793 -71.749)"/>
          <path id="Path_131" data-name="Path 131" class="cls-21" d="M185.406,89.451a46.873,46.873,0,0,0-4.747-2.373c-3.412-1.483-7.12-2.67-10.532-4.3-2.077-1.038-5.785-2.67-6.23-5.34a1.763,1.763,0,0,1,.3-1.335c-1.038.89-6.675,5.637,2.077,11.125,8.159,3.857,15.872,4.9,17.949,8.455,1.038,1.78.3,3.115-1.038,4.3C190.45,94.2,186.593,90.341,185.406,89.451Z" transform="translate(-161.451 -76.1)"/>
        </g>
        <g id="Group_81" data-name="Group 81">
          <path id="Path_132" data-name="Path 132" class="cls-15" d="M166.4,71.6c.445,0,.89.148.89.445s-.445.445-.89.445-.89-.148-.89-.445C165.361,71.9,165.806,71.6,166.4,71.6Z" transform="translate(-155.258 -71.452)"/>
          <path id="Path_133" data-name="Path 133" class="cls-22" d="M160.385,75.8a8.056,8.056,0,0,0-1.78,5.044c.148,2.67,2.373,4.747,4.6,6.082a26.976,26.976,0,0,0,4.6,2.373l-1.335-.89c-1.78-1.335-3.708-3.263-3.56-5.637A4.829,4.829,0,0,1,163.5,80.7a5.568,5.568,0,0,1,3.263-2.818c1.335-.445,2.818-.445,4.154-1.038a1.6,1.6,0,0,0,1.038-1.632,4.738,4.738,0,0,1-2.077.445,3.544,3.544,0,0,0-2.077.742,3.384,3.384,0,0,1,1.78-.89,4.834,4.834,0,0,0,1.928-.593,2.639,2.639,0,0,0,1.038-1.187,1.315,1.315,0,0,0-.89-1.483,7.113,7.113,0,0,0-2.522-.742h-.593a8.882,8.882,0,0,0-6.23,2.67A6.656,6.656,0,0,0,160.385,75.8Zm6.675-2.225.445-.445a.981.981,0,0,1,.89.148.836.836,0,0,1,.148,1.335l-.148.148a.662.662,0,0,1-.742,0C167.061,74.467,166.764,74.022,167.061,73.577Z" transform="translate(-158.589 -71.5)"/>
        </g>
        <path id="Path_134" data-name="Path 134" class="cls-23" d="M169.78,73.1a1.928,1.928,0,0,1,1.78,1.187c-.3-.148-.593-.445-.89-.445a1.6,1.6,0,0,1,.3,1.187,2.357,2.357,0,0,0-1.632-1.483c-.445-.148-.89.148-1.335.445C168.3,73.248,169.038,73.1,169.78,73.1Z" transform="translate(-154.04 -70.727)"/>
      </g>
      <g id="Group_83" data-name="Group 83" transform="translate(0 30.558)">
        <path id="Path_135" data-name="Path 135" class="cls-24" d="M171.4,100.593l.148,10.235.742.742.742-.742.148-10.235c-.3-.148-.593-.445-.89-.593C171.993,100.148,171.7,100.445,171.4,100.593Z" transform="translate(-87.588 -26.423)"/>
        <path id="Path_136" data-name="Path 136" class="cls-25" d="M171.2,88.145l.148,7.714c.3.148.445.3.742.445.148.148.3.148.445.3.148-.148.3-.148.445-.3.3-.148.445-.3.742-.445l.148-7.714-1.335-.445A6.9,6.9,0,0,0,171.2,88.145Z" transform="translate(-87.685 -32.369)"/>
        <path id="Path_137" data-name="Path 137" class="cls-26" d="M172.048,127.1h0c0,.148-.148.445-.148.593l.148,8.9.148-8.9a1.121,1.121,0,0,0-.148-.593Z" transform="translate(-87.346 -13.323)"/>
        <path id="Path_138" data-name="Path 138" class="cls-27" d="M171.7,115.093l.148,7.12.445.445.445-.445.148-7.12c-.148-.148-.3-.445-.593-.593A1.158,1.158,0,0,0,171.7,115.093Z" transform="translate(-87.443 -19.414)"/>
        <path id="Path_139" data-name="Path 139" class="cls-28" d="M278.37,51.142a188.07,188.07,0,0,1-22.4,0c-8.01-.3-16.169-.593-24.179-.593a51.171,51.171,0,0,0-17.059,2.522,19.652,19.652,0,0,0-13.2,14.241V61.674a1.23,1.23,0,0,0,1.187-.445.928.928,0,0,0-.742-1.335h-.445a3.837,3.837,0,0,0,2.077-1.632,5.473,5.473,0,0,0,.742-4.005,4.651,4.651,0,0,0-2.67-3.115,4.738,4.738,0,0,0-2.818-.445,4.864,4.864,0,0,0-3.263,2.077,4.677,4.677,0,0,0-.742,3.412,4.775,4.775,0,0,0,1.78,2.967,2.982,2.982,0,0,0,1.187.593h0a1.881,1.881,0,0,0-.89.148.784.784,0,0,0-.148,1.187,1.412,1.412,0,0,0,1.038.3v5.785c-1.632-6.824-5.934-11.719-13.2-14.241A51.171,51.171,0,0,0,167.561,50.4c-8.01,0-16.169.3-24.179.593-7.417.3-14.982.445-22.4,0-2.077-.148-4.005-.3-6.082-.593v.3a24.827,24.827,0,0,0,12.164,10.532,34.723,34.723,0,0,0,16.021,1.632c6.379-.742,12.609-1.928,18.839-2.967a74.747,74.747,0,0,1,15.131-1.483,26.189,26.189,0,0,1,8.307,1.187,6.084,6.084,0,0,1-1.632-.148,62.169,62.169,0,0,0-17.356,1.038c-7.862,1.335-15.576,2.967-23.438,4.3a56.125,56.125,0,0,1-19.284,0c.148.148.148.3.3.445a23.14,23.14,0,0,0,12.164,8.307,23.81,23.81,0,0,0,14.389-.89c5.044-1.78,10.087-4.005,15.131-6.082,4.747-1.928,9.642-4.005,14.834-4.6a19.449,19.449,0,0,1,6.527.148c-1.928.3-3.56.3-5.192.593a68.1,68.1,0,0,0-14.982,4.9c-7.12,2.967-14.092,6.23-21.509,8.307-.148,0-.148.148-.445.3.593.148,1.187.445,1.78.593,5.785,1.632,11.422,1.78,16.911-.89,2.967-1.483,5.785-3.115,8.455-4.747a59.767,59.767,0,0,1,12.016-5.785l3.115-.89c-9.2,3.857-17.059,9.642-25.514,14.834a16.431,16.431,0,0,0,12.461-2.077c2.225-1.483,4.3-3.115,6.379-4.6,2.67-1.928,5.34-4.005,8.01-5.934.148-.148.445-.148.89-.445-5.044,4.6-9.939,9.2-14.982,13.8h.89a13.907,13.907,0,0,0,10.532-4.9c1.483-1.928,2.967-3.857,4.6-5.785.148-.3.445-.445.593-.742a54.355,54.355,0,0,1-8.307,11.125,8.477,8.477,0,0,0,7.12-3.115,50.007,50.007,0,0,0,2.818-4.747,14.967,14.967,0,0,0,1.038-2.225,4.738,4.738,0,0,1-.445,2.077,29.854,29.854,0,0,1-3.708,7.565c4.45-1.483,5.34-5.785,7.12-9.642.3,1.187.742,2.373,1.038,3.412a1.909,1.909,0,0,0-1.187,1.928,2.078,2.078,0,0,0,1.335,1.78v.445a1.882,1.882,0,0,0-.89.148.939.939,0,0,0-.148,1.335c.148.148.3.148.593.3h.445l.3,16.762c.445.148,1.038.445,1.483.593.445-.148,1.038-.445,1.483-.593l.3-16.466h.593a.771.771,0,0,0,.593-.3.953.953,0,0,0-.148-1.335,1.881,1.881,0,0,0-.89-.148V77.1a2.112,2.112,0,0,0,1.335-1.928,2.286,2.286,0,0,0-1.335-1.928c.3-1.038.593-2.225,1.038-3.412,1.78,3.857,2.67,8.01,7.12,9.642a29.854,29.854,0,0,1-3.708-7.565,10.392,10.392,0,0,1-.445-2.077,14.97,14.97,0,0,0,1.038,2.225,50,50,0,0,0,2.818,4.747,8.093,8.093,0,0,0,7.12,3.115,54.356,54.356,0,0,1-8.307-11.125c.148.3.445.445.593.742,1.483,1.928,2.967,3.857,4.6,5.785a13.458,13.458,0,0,0,10.532,4.9h.89c-5.044-4.6-9.939-9.049-14.982-13.8a4.937,4.937,0,0,1,.89.445c2.67,1.928,5.34,4.005,8.01,5.934a63.018,63.018,0,0,0,6.379,4.6,16.431,16.431,0,0,0,12.461,2.077c-8.455-5.192-16.466-11.125-25.514-14.834l3.115.89a52.735,52.735,0,0,1,12.016,5.785c2.818,1.632,5.637,3.263,8.455,4.747,5.489,2.67,11.125,2.522,16.911.89a8.363,8.363,0,0,0,1.78-.593c-.148-.148-.3-.148-.445-.3-7.417-2.077-14.389-5.192-21.509-8.307a68.1,68.1,0,0,0-14.982-4.9,50.226,50.226,0,0,0-5.192-.593,24.19,24.19,0,0,1,6.527-.148c5.192.593,9.939,2.522,14.834,4.6,5.044,2.077,10.087,4.3,15.131,6.082a23.81,23.81,0,0,0,14.389.89,23.14,23.14,0,0,0,12.164-8.307c0-.148.148-.148.3-.445a49.627,49.627,0,0,1-19.284,0c-7.862-1.335-15.724-2.967-23.438-4.3A62.169,62.169,0,0,0,215.474,59.6c-.445,0-1.038.148-1.632.148a26.189,26.189,0,0,1,8.307-1.187c5.044-.148,10.087.742,15.131,1.483,6.23,1.038,12.609,2.225,18.839,2.967a31.033,31.033,0,0,0,16.021-1.632A24.827,24.827,0,0,0,284.3,50.845v-.3C282.376,50.845,280.3,50.993,278.37,51.142Zm-80.7,1.335a1.213,1.213,0,0,1,1.78,1.038,1.075,1.075,0,0,1-1.78.742A.99.99,0,0,1,197.674,52.477ZM198.712,59a2.82,2.82,0,0,1-1.632-1.038,3.922,3.922,0,0,0,3.412.593,3.4,3.4,0,0,0,2.225-2.67,3.534,3.534,0,0,0-.742-2.67,3.257,3.257,0,0,1,.593,4.45A3.444,3.444,0,0,1,198.712,59Z" transform="translate(-114.9 -50.4)"/>
      </g>
      <g id="Group_84" data-name="Group 84" transform="translate(18.246 55.331)">
        <path id="Path_140" data-name="Path 140" class="cls-29" d="M234.121,67.2a2.75,2.75,0,0,1-1.038.3,24.746,24.746,0,0,1-4.6.742h-.148a66.483,66.483,0,0,1,.742,9.494A60.486,60.486,0,0,1,177.9,137.365a8.679,8.679,0,0,1,.445,5.785,66.17,66.17,0,0,0,56.517-65.418A49.663,49.663,0,0,0,234.121,67.2Z" transform="translate(-102.692 -67.052)"/>
        <path id="Path_141" data-name="Path 141" class="cls-29" d="M184.756,137.561a60.4,60.4,0,0,1-51.622-59.633,68.577,68.577,0,0,1,.742-9.642,20.37,20.37,0,0,1-4.154-.742c-.593-.148-1.038-.3-1.632-.445a65.315,65.315,0,0,0-.89,10.829,66.2,66.2,0,0,0,57.111,65.418A9.705,9.705,0,0,1,184.756,137.561Z" transform="translate(-127.2 -67.1)"/>
      </g>
      <g id="Group_85" data-name="Group 85" transform="translate(74.446 68.681)">
        <path id="Path_142" data-name="Path 142" class="cls-30" d="M166.59,85.4c-1.335,1.483-3.56,4.9,2.67,9.939-1.187-1.187-2.077-2.522-1.038-4.3a9.945,9.945,0,0,1,4.747-3.263c-.148,0-.148-.148-.3-.148A61.405,61.405,0,0,1,166.59,85.4Z" transform="translate(-165.086 -71.604)"/>
        <path id="Path_143" data-name="Path 143" class="cls-31" d="M175.428,85.594a37.953,37.953,0,0,1,4.9,2.373c.593-.3,1.038-.445,1.632-.742,8.752-5.489,3.115-10.235,2.077-11.125a1.288,1.288,0,0,1,.3,1.335c-.445,2.522-4.154,4.3-6.23,5.34-1.483.742-3.115,1.335-4.6,1.928A20.647,20.647,0,0,0,175.428,85.594Z" transform="translate(-161.018 -76.1)"/>
      </g>
      <g id="Group_86" data-name="Group 86" transform="translate(70.396 82.625)">
        <path id="Path_144" data-name="Path 144" class="cls-32" d="M174.287,101.012a8.492,8.492,0,0,1,2.373,2.225c1.632,2.373.742,5.044-.89,7.12,0,0,5.637-7.12,1.928-12.164-.3-.148-.445-.445-.742-.593h0l-.148.148c-1.187.742-2.373,1.483-3.708,2.225A4,4,0,0,0,174.287,101.012Z" transform="translate(-157.163 -79.651)"/>
        <path id="Path_145" data-name="Path 145" class="cls-33" d="M169.987,100.779c.445.3.742.445,1.187.742,1.335-1.038,2.67-1.928,4.005-2.818-1.038-.742-2.077-1.335-3.115-2.077a10.392,10.392,0,0,1-1.483-1.187c-6.23-5.044-4.005-8.6-2.67-9.939h-.148c-3.708,2.373-6.972,5.637-4.6,9.642C164.646,97.516,167.465,99.3,169.987,100.779Z" transform="translate(-162.356 -85.5)"/>
      </g>
      <g id="Group_87" data-name="Group 87" transform="translate(79.306 101.316)">
        <path id="Path_146" data-name="Path 146" class="cls-34" d="M172.572,114.47c-.742-.742-1.78-1.632-2.818-2.67a2.047,2.047,0,0,0-.445.593c-1.038,1.632-1.78,4.6.89,9.2C169.16,119.662,169.457,117.882,172.572,114.47Z" transform="translate(-168.362 -91.477)"/>
        <path id="Path_147" data-name="Path 147" class="cls-35" d="M177.844,98.1c3.708,5.044-1.928,12.164-1.928,12.164a21.453,21.453,0,0,1-3.115,3.263l.445.445,1.187,1.038,1.187,1.187.148-.148a47.313,47.313,0,0,0,3.857-3.857c.3-.445.742-.89,1.038-1.335,1.483-2.373,2.225-5.192,1.038-7.714A11,11,0,0,0,177.844,98.1Z" transform="translate(-166.217 -98.1)"/>
      </g>
      <g id="Group_88" data-name="Group 88" transform="translate(76.682 124.084)">
        <path id="Path_148" data-name="Path 148" class="cls-36" d="M171.943,127.527c.593-.89,1.038-1.632,1.632-2.373-.593-.89-1.187-1.632-1.632-2.225s-.742-1.187-1.038-1.632c-2.522-4.6-1.78-7.565-.89-9.2-2.522,2.67-4.45,6.082-2.818,9.79C168.235,124.264,170.163,125.747,171.943,127.527Z" transform="translate(-166.594 -112.1)"/>
        <path id="Path_149" data-name="Path 149" class="cls-37" d="M172.7,126.428a6.2,6.2,0,0,1,.593,1.483,12.974,12.974,0,0,1,.742,5.34,5.766,5.766,0,0,1-.3,2.225c2.67-4.005,1.928-7.862.3-10.977A6.344,6.344,0,0,0,172.7,126.428Z" transform="translate(-163.642 -106.106)"/>
      </g>
    </g>
  </g>
</svg>
