<svg id="compass-svgrepo-com" xmlns="http://www.w3.org/2000/svg" viewBox="0 0 15.31 15.31">
  <defs>
    <style>
      .cls-1 {
        fill: #0e153a;
      }
    </style>
  </defs>
  <g id="Group_71" data-name="Group 71" transform="translate(0)">
    <g id="Group_70" data-name="Group 70" transform="translate(0)">
      <path id="Path_90" data-name="Path 90" class="cls-1" d="M7.663,0a7.655,7.655,0,1,0,7.655,7.655A7.664,7.664,0,0,0,7.663,0Zm3.784,4.361-2.424,4.5a.359.359,0,0,1-.146.146l-4.5,2.424a.359.359,0,0,1-.486-.486l2.424-4.5A.359.359,0,0,1,6.456,6.3l4.505-2.424a.359.359,0,0,1,.486.486Z" transform="translate(-0.008)"/>
    </g>
  </g>
  <g id="Group_73" data-name="Group 73" transform="translate(6.335 6.33)">
    <g id="Group_72" data-name="Group 72">
      <path id="Path_91" data-name="Path 91" class="cls-1" d="M222.491,220.984a1.327,1.327,0,1,0,1.327,1.327A1.327,1.327,0,0,0,222.491,220.984Z" transform="translate(-221.164 -220.984)"/>
    </g>
  </g>
</svg>
