<svg id="XMLID_51_" xmlns="http://www.w3.org/2000/svg" viewBox="0 0 14.659 12.863">
  <defs>
    <style>
      .cls-1 {
        fill: #ecf1ff;
      }
    </style>
  </defs>
  <path id="XMLID_53_" class="cls-1" d="M164.711,396.069a.331.331,0,0,0,.517.273l2.277-1.555-2.794-1.332v2.614Z" transform="translate(-160.139 -383.536)"/>
  <path id="XMLID_52_" class="cls-1" d="M14.583,30.379a.241.241,0,0,0-.161-.061.238.238,0,0,0-.1.024L.235,37.087a.405.405,0,0,0,0,.736L3.951,39.55l7.422-5.956-6.5,6.383,4.624,2.151a.43.43,0,0,0,.334.012.415.415,0,0,0,.236-.23l4.578-11.276A.227.227,0,0,0,14.583,30.379Z" transform="translate(-0.001 -30.318)"/>
</svg>
