<?xml version="1.0" standalone="no"?>
<!DOCTYPE svg PUBLIC "-//W3C//DTD SVG 20010904//EN"
 "http://www.w3.org/TR/2001/REC-SVG-20010904/DTD/svg10.dtd">
<svg version="1.0" xmlns="http://www.w3.org/2000/svg"
 width="127.000000pt" height="128.000000pt" viewBox="0 0 127.000000 128.000000"
 preserveAspectRatio="xMidYMid meet">

<g transform="translate(0.000000,128.000000) scale(0.100000,-0.100000)"
fill="#000000" stroke="none">
<path d="M530 1263 c-54 -9 -158 -46 -210 -76 -74 -42 -184 -149 -227 -221
-19 -33 -46 -93 -60 -135 -23 -65 -27 -93 -27 -191 0 -98 4 -126 26 -190 40
-114 74 -167 162 -255 92 -92 184 -143 303 -169 346 -77 686 147 757 496 20
97 20 139 0 236 -60 298 -326 515 -624 510 -41 0 -86 -3 -100 -5z m-22 -531
c3 -28 7 -32 33 -32 44 0 69 -31 69 -86 0 -82 -37 -114 -111 -94 l-39 11 0
113 c0 62 3 116 7 120 16 16 38 -1 41 -32z m310 0 c2 -20 9 -32 18 -32 8 0 14
-9 14 -20 0 -11 -7 -20 -15 -20 -11 0 -15 -12 -15 -49 0 -40 3 -50 20 -54 29
-7 26 -37 -4 -37 -47 0 -56 22 -56 141 0 100 2 110 18 107 11 -2 18 -14 20
-36z m90 0 c2 -20 9 -32 18 -32 8 0 14 -9 14 -20 0 -11 -7 -20 -15 -20 -25 0
-20 -86 5 -100 11 -6 20 -17 20 -25 0 -20 -39 -19 -62 2 -15 14 -18 32 -18
125 0 99 2 109 18 106 11 -2 18 -14 20 -36z m-724 -51 c13 -15 16 -34 14 -87
l-3 -69 -49 -3 c-57 -4 -86 16 -86 58 0 35 26 58 70 62 34 3 34 3 13 16 -16 9
-29 10 -42 3 -14 -8 -22 -7 -31 3 -28 34 83 51 114 17z m136 9 c13 -7 21 -7
25 0 11 17 64 11 85 -10 16 -16 20 -33 20 -90 0 -63 -2 -70 -20 -70 -17 0 -19
8 -22 68 -3 64 -4 67 -28 67 -24 0 -25 -3 -28 -67 -3 -60 -5 -68 -22 -68 -18
0 -20 7 -20 70 0 68 -1 70 -25 70 -24 0 -25 -2 -25 -70 0 -63 -2 -70 -20 -70
-18 0 -20 7 -20 84 0 58 4 86 13 89 21 9 68 7 87 -3z m421 0 c14 -8 19 -21 19
-55 l0 -45 -50 0 c-41 0 -48 -3 -43 -16 5 -12 14 -15 43 -10 45 7 56 -1 33
-26 -22 -24 -77 -24 -103 2 -15 15 -20 33 -20 70 0 37 5 55 20 70 22 22 70 26
101 10z m343 -12 c9 -12 16 -37 16 -55 0 -33 0 -33 -50 -33 -40 0 -50 -3 -50
-16 0 -14 7 -15 39 -10 46 7 65 -9 36 -31 -26 -18 -75 -16 -97 4 -24 21 -26
124 -2 147 24 25 90 21 108 -6z m116 3 c0 -13 -8 -21 -22 -23 -21 -3 -23 -9
-26 -70 -3 -60 -5 -68 -22 -68 -18 0 -20 7 -20 70 0 57 4 74 20 90 27 27 70
27 70 1z m20 -137 c0 -19 -28 -30 -42 -16 -8 8 -8 15 1 26 14 17 41 10 41 -10z"/>
<path d="M517 663 c-4 -3 -7 -30 -7 -60 0 -44 3 -53 18 -53 28 0 42 21 42 62
0 27 -5 40 -19 48 -23 12 -26 12 -34 3z"/>
<path d="M103 584 c-7 -18 14 -35 37 -31 8 1 16 12 18 25 3 18 -1 22 -23 22
-14 0 -28 -7 -32 -16z"/>
<path d="M677 658 c-26 -14 -20 -28 13 -28 19 0 30 5 30 14 0 19 -22 26 -43
14z"/>
<path d="M1000 646 c0 -11 10 -16 31 -16 38 0 35 24 -4 28 -19 2 -27 -1 -27
-12z"/>
<path d="M1120 138 c0 -4 7 -8 15 -8 8 0 15 4 15 8 0 5 -7 9 -15 9 -8 0 -15
-4 -15 -9z"/>
</g>
</svg>
