<?xml version="1.0" standalone="no"?>
<!DOCTYPE svg PUBLIC "-//W3C//DTD SVG 20010904//EN"
 "http://www.w3.org/TR/2001/REC-SVG-20010904/DTD/svg10.dtd">
<svg version="1.0" xmlns="http://www.w3.org/2000/svg"
 width="440.000000pt" height="440.000000pt" viewBox="0 0 440.000000 440.000000"
 preserveAspectRatio="xMidYMid meet">

<g transform="translate(0.000000,440.000000) scale(0.100000,-0.100000)"
fill="#000000" stroke="none">
<path d="M2168 3923 c23 -2 59 -2 80 0 20 2 1 4 -43 4 -44 0 -61 -2 -37 -4z"/>
<path d="M2013 3913 c9 -2 25 -2 35 0 9 3 1 5 -18 5 -19 0 -27 -2 -17 -5z"/>
<path d="M2368 3913 c6 -2 18 -2 25 0 6 3 1 5 -13 5 -14 0 -19 -2 -12 -5z"/>
<path d="M1915 3900 c-3 -5 1 -10 10 -10 9 0 13 5 10 10 -3 6 -8 10 -10 10 -2
0 -7 -4 -10 -10z"/>
<path d="M2420 3906 c0 -8 61 -12 66 -4 3 4 -11 8 -30 8 -20 0 -36 -2 -36 -4z"/>
<path d="M1845 3890 c-16 -4 -25 -8 -20 -9 6 -1 3 -6 -5 -11 -13 -8 -12 -10 3
-10 9 0 17 5 17 11 0 6 12 9 28 6 15 -2 21 -2 13 1 -12 3 -12 5 0 13 16 10 6
10 -36 -1z"/>
<path d="M2508 3893 c7 -3 16 -2 19 1 4 3 -2 6 -13 5 -11 0 -14 -3 -6 -6z"/>
<path d="M1963 3883 c9 -2 23 -2 30 0 6 3 -1 5 -18 5 -16 0 -22 -2 -12 -5z"/>
<path d="M2558 3883 c6 -2 18 -2 25 0 6 3 1 5 -13 5 -14 0 -19 -2 -12 -5z"/>
<path d="M2608 3873 c6 -2 10 -9 7 -14 -4 -5 1 -6 9 -3 8 3 24 0 36 -6 17 -9
25 -9 34 0 8 9 7 11 -4 9 -8 -1 -28 3 -43 9 -16 7 -34 12 -40 11 -9 0 -8 -2 1
-6z"/>
<path d="M2408 3863 c7 -3 16 -2 19 1 4 3 -2 6 -13 5 -11 0 -14 -3 -6 -6z"/>
<path d="M1680 3839 c0 -5 5 -7 10 -4 6 3 10 8 10 11 0 2 -4 4 -10 4 -5 0 -10
-5 -10 -11z"/>
<path d="M2753 3828 c27 -13 46 -25 43 -28 -3 -3 4 -6 14 -7 11 -1 22 2 25 8
4 5 -2 6 -11 2 -13 -5 -15 -3 -9 8 4 8 5 11 0 7 -4 -4 -19 -1 -34 6 -14 7 -37
16 -51 20 -14 3 -3 -4 23 -16z"/>
<path d="M1596 3807 c-16 -12 -16 -14 -2 -14 9 0 16 4 16 8 0 4 8 10 18 12 13
4 14 5 1 6 -8 0 -23 -5 -33 -12z"/>
<path d="M1500 3775 c-25 -13 -41 -24 -37 -25 11 0 87 39 87 45 0 7 0 7 -50
-20z"/>
<path d="M1620 3789 c0 -5 5 -7 10 -4 6 3 10 8 10 11 0 2 -4 4 -10 4 -5 0 -10
-5 -10 -11z"/>
<path d="M2894 3768 c-4 -7 -3 -8 4 -4 12 7 50 -9 67 -29 6 -7 26 -21 45 -31
19 -11 38 -23 42 -29 5 -6 8 -4 8 4 0 10 8 7 25 -9 14 -13 27 -21 30 -18 13
12 -39 44 -78 47 -5 1 -6 5 -3 10 7 10 -42 33 -55 26 -5 -4 -9 -2 -9 4 0 6
-13 17 -30 26 -35 18 -37 18 -46 3z"/>
<path d="M1416 3735 c-8 -9 -17 -15 -18 -13 -2 1 -12 -3 -23 -10 -19 -11 -19
-11 3 -12 14 0 21 -4 16 -11 -4 -8 0 -8 15 0 24 13 28 23 6 15 -25 -10 -17 4
11 19 16 8 22 17 16 21 -6 3 -17 -1 -26 -9z"/>
<path d="M1289 3660 l-24 -20 28 11 c15 7 27 16 27 21 0 12 -5 10 -31 -12z"/>
<path d="M1316 3645 c-11 -8 -16 -15 -10 -15 5 0 18 7 28 15 11 8 16 15 10 15
-5 0 -18 -7 -28 -15z"/>
<path d="M3140 3648 c0 -2 9 -11 20 -21 11 -9 20 -13 20 -7 0 5 -9 14 -20 20
-11 6 -20 9 -20 8z"/>
<path d="M1191 3593 c-5 -10 -13 -17 -18 -16 -14 4 -84 -58 -78 -68 4 -5 11
-7 16 -3 5 3 7 9 4 14 -6 9 57 58 64 50 2 -3 10 5 19 18 8 12 12 22 9 22 -3 0
-10 -8 -16 -17z"/>
<path d="M3205 3576 c1 -20 5 -39 10 -43 4 -5 4 -2 0 6 -6 11 -4 13 9 8 10 -4
15 -3 11 3 -8 13 8 13 22 -1 8 -8 13 -7 18 2 5 7 4 10 -3 5 -6 -3 -16 3 -22
15 -7 11 -14 18 -17 15 -3 -3 -11 1 -17 10 -9 12 -11 8 -11 -20z m35 -2 c0 -8
-19 -13 -24 -6 -3 5 1 9 9 9 8 0 15 -2 15 -3z"/>
<path d="M3298 3524 c13 -9 21 -22 18 -30 -3 -9 0 -11 12 -7 15 6 15 5 3 -10
-7 -10 -9 -17 -3 -17 6 0 12 6 15 13 2 6 8 9 12 5 4 -4 2 -16 -6 -25 -13 -16
-12 -17 3 -5 15 12 20 11 39 -7 l23 -21 -22 -20 c-12 -12 -22 -24 -22 -28 0
-3 12 6 28 21 l27 28 -65 60 c-36 32 -69 59 -75 59 -5 0 1 -7 13 -16z"/>
<path d="M1066 3491 c-3 -5 3 -20 13 -32 16 -20 22 -22 33 -11 11 11 10 12 -4
7 -20 -8 -46 30 -25 38 9 4 9 6 0 6 -6 1 -14 -3 -17 -8z"/>
<path d="M3280 3495 c0 -5 5 -17 10 -25 5 -8 10 -10 10 -5 0 6 -5 17 -10 25
-5 8 -10 11 -10 5z"/>
<path d="M1017 3446 c4 -12 3 -17 -4 -13 -5 4 -21 -5 -33 -18 -13 -14 -20 -25
-17 -25 4 0 0 -12 -9 -26 -12 -17 -19 -21 -24 -13 -5 8 -12 4 -20 -12 -10 -20
-10 -22 0 -12 11 10 16 9 27 -5 8 -9 12 -11 8 -5 -3 7 1 23 9 35 9 12 16 19
16 14 0 -5 6 -3 14 4 8 6 12 19 9 27 -5 12 -2 15 10 10 25 -9 39 16 22 39 -15
19 -15 19 -8 0z m13 -22 c0 -8 -19 -13 -24 -6 -3 5 1 9 9 9 8 0 15 -2 15 -3z
m-45 -33 c3 -5 2 -12 -3 -15 -5 -3 -9 1 -9 9 0 17 3 19 12 6z"/>
<path d="M3424 3398 c-4 -7 -3 -8 4 -4 7 4 12 2 12 -4 0 -6 5 -8 10 -5 6 3 10
3 10 -2 0 -4 12 -21 26 -38 28 -33 22 -16 -9 27 -23 32 -44 42 -53 26z"/>
<path d="M3470 3315 c7 -9 15 -13 17 -11 7 7 -7 26 -19 26 -6 0 -6 -6 2 -15z"/>
<path d="M851 3275 c-30 -35 -40 -65 -21 -65 5 0 7 7 3 15 -4 13 0 15 22 11
22 -4 25 -3 15 10 -10 11 -10 14 1 14 11 0 11 2 -1 10 -14 9 -13 11 10 14 6 0
10 5 11 9 2 21 -11 15 -40 -18z m6 -20 c0 -8 -4 -12 -9 -9 -5 3 -6 10 -3 15 9
13 12 11 12 -6z"/>
<path d="M3446 3293 c-6 -14 -5 -15 5 -6 7 7 10 15 7 18 -3 3 -9 -2 -12 -12z"/>
<path d="M3516 3288 c3 -5 10 -6 15 -3 13 9 11 12 -6 12 -8 0 -12 -4 -9 -9z"/>
<path d="M3555 3270 c5 -8 14 -22 22 -32 9 -10 11 -18 4 -22 -6 -4 -17 7 -26
24 -8 16 -18 30 -22 30 -3 0 -3 -3 0 -7 4 -3 1 -13 -6 -21 -10 -13 -9 -14 1
-8 8 5 19 -1 30 -14 15 -18 20 -20 29 -9 9 11 5 21 -14 44 -14 17 -22 23 -18
15z"/>
<path d="M856 3212 c-3 -5 1 -9 9 -9 8 0 12 4 9 9 -3 4 -7 8 -9 8 -2 0 -6 -4
-9 -8z"/>
<path d="M780 3181 c-15 -23 -17 -31 -8 -37 7 -4 10 -4 6 1 -4 4 2 21 13 36
11 16 18 29 15 29 -2 0 -14 -13 -26 -29z"/>
<path d="M3609 3197 c6 -8 7 -18 3 -22 -4 -5 -1 -5 6 -1 10 6 10 11 1 22 -6 8
-14 14 -16 14 -3 0 0 -6 6 -13z"/>
<path d="M3626 3161 c-4 -5 -2 -12 3 -15 5 -4 12 -2 15 3 4 5 2 12 -3 15 -5 4
-12 2 -15 -3z"/>
<path d="M747 3133 c-11 -11 -8 -20 7 -20 8 0 12 6 9 14 -6 15 -7 15 -16 6z"/>
<path d="M720 3085 c-11 -13 -10 -14 4 -9 9 3 16 10 16 15 0 13 -6 11 -20 -6z"/>
<path d="M751 3082 c-17 -31 -13 -40 5 -14 9 13 14 26 11 29 -3 2 -10 -4 -16
-15z"/>
<path d="M3685 3074 c9 -9 13 -25 10 -38 -2 -11 -2 -15 1 -8 3 6 10 9 16 6 5
-3 2 8 -6 25 -9 17 -21 31 -27 31 -6 0 -3 -7 6 -16z"/>
<path d="M696 3027 c3 -10 9 -15 12 -12 3 3 0 11 -7 18 -10 9 -11 8 -5 -6z"/>
<path d="M665 2991 c-12 -23 -12 -31 -2 -37 6 -4 9 -4 5 1 -4 4 -1 20 8 36 8
16 12 29 10 29 -3 0 -12 -13 -21 -29z"/>
<path d="M3711 3014 c-1 -5 5 -18 12 -29 11 -14 16 -15 22 -5 6 9 4 11 -5 5
-10 -6 -12 -4 -7 9 4 9 3 15 -2 11 -5 -3 -12 1 -14 7 -3 7 -6 8 -6 2z"/>
<path d="M619 2896 c-11 -26 -18 -50 -15 -53 3 -4 6 -1 6 6 0 7 5 9 12 5 8 -5
9 -2 4 11 -4 10 0 28 10 42 8 14 13 27 10 30 -3 4 -15 -15 -27 -41z"/>
<path d="M3763 2916 c0 -30 12 -42 23 -25 5 8 3 9 -6 4 -9 -6 -12 -4 -8 7 4 8
3 21 -2 27 -5 9 -7 4 -7 -13z"/>
<path d="M3790 2871 c0 -6 4 -13 10 -16 6 -3 7 1 4 9 -7 18 -14 21 -14 7z"/>
<path d="M620 2820 c-6 -11 -8 -20 -6 -20 3 0 10 9 16 20 6 11 8 20 6 20 -3 0
-10 -9 -16 -20z"/>
<path d="M3810 2831 c0 -7 -5 -9 -12 -5 -7 5 -8 3 -3 -5 5 -9 10 -10 18 -2 6
6 8 14 4 18 -4 3 -7 1 -7 -6z"/>
<path d="M582 2805 c4 -4 3 -14 -3 -21 -7 -8 -7 -19 -2 -29 9 -15 11 -15 23 0
7 8 10 18 6 22 -3 3 -6 1 -6 -5 0 -7 -5 -12 -10 -12 -7 0 -7 6 0 19 7 15 7 22
-2 27 -7 4 -10 4 -6 -1z"/>
<path d="M3815 2799 c-4 -6 -5 -12 -2 -15 2 -3 7 2 10 11 7 17 1 20 -8 4z"/>
<path d="M563 2738 c3 -9 1 -19 -6 -21 -7 -2 -9 -7 -6 -11 12 -13 28 19 17 34
-8 13 -9 12 -5 -2z"/>
<path d="M3840 2741 c0 -6 4 -13 10 -16 6 -3 7 1 4 9 -7 18 -14 21 -14 7z"/>
<path d="M541 2683 c-1 -6 -4 -20 -7 -30 -5 -17 -5 -17 6 0 6 10 9 23 6 30 -3
9 -5 9 -5 0z"/>
<path d="M3857 2683 c-4 -3 -7 -13 -7 -22 1 -13 3 -13 11 2 11 19 8 33 -4 20z"/>
<path d="M3871 2635 c0 -11 4 -27 9 -35 9 -13 10 -13 9 0 0 8 -4 24 -9 35 l-9
20 0 -20z"/>
<path d="M525 2620 c-3 -5 -1 -18 4 -27 9 -16 10 -14 11 10 0 28 -5 34 -15 17z"/>
<path d="M510 2561 c0 -25 6 -27 13 -6 4 8 2 17 -3 20 -6 4 -10 -3 -10 -14z"/>
<path d="M3876 2560 c3 -14 11 -28 16 -31 6 -4 7 -17 4 -30 -6 -23 -6 -23 5
-3 8 17 6 28 -11 55 -17 27 -20 29 -14 9z"/>
<path d="M501 2514 c0 -11 3 -14 6 -6 3 7 2 16 -1 19 -3 4 -6 -2 -5 -13z"/>
<path d="M490 2469 c0 -5 5 -7 10 -4 6 3 10 8 10 11 0 2 -4 4 -10 4 -5 0 -10
-5 -10 -11z"/>
<path d="M3912 2450 c0 -19 2 -27 5 -17 2 9 2 25 0 35 -3 9 -5 1 -5 -18z"/>
<path d="M1358 2463 c7 -3 16 -2 19 1 4 3 -2 6 -13 5 -11 0 -14 -3 -6 -6z"/>
<path d="M1060 2450 c20 -13 33 -13 25 0 -3 6 -14 10 -23 10 -15 0 -15 -2 -2
-10z"/>
<path d="M1110 2440 c0 -5 7 -7 15 -4 8 4 15 8 15 10 0 2 -7 4 -15 4 -8 0 -15
-4 -15 -10z"/>
<path d="M490 2430 c0 -5 5 -10 11 -10 5 0 7 5 4 10 -3 6 -8 10 -11 10 -2 0
-4 -4 -4 -10z"/>
<path d="M1360 2430 c0 -15 21 -23 32 -12 6 6 2 11 -11 15 -12 3 -21 1 -21 -3z"/>
<path d="M1060 2420 c0 -5 5 -10 10 -10 6 0 10 5 10 10 0 6 -4 10 -10 10 -5 0
-10 -4 -10 -10z"/>
<path d="M1090 2418 c0 -6 8 -8 19 -5 10 2 27 0 37 -6 16 -9 17 -8 6 5 -14 17
-62 21 -62 6z"/>
<path d="M1330 2420 c0 -5 5 -10 10 -10 6 0 10 5 10 10 0 6 -4 10 -10 10 -5 0
-10 -4 -10 -10z"/>
<path d="M1300 2400 c0 -11 2 -20 4 -20 2 0 6 9 9 20 3 11 1 20 -4 20 -5 0 -9
-9 -9 -20z"/>
<path d="M1413 2393 c-1 -24 -1 -25 7 -8 11 26 12 35 2 35 -4 0 -8 -12 -9 -27z"/>
<path d="M482 2380 c0 -14 2 -19 5 -12 2 6 2 18 0 25 -3 6 -5 1 -5 -13z"/>
<path d="M1039 2398 c-5 -25 -2 -458 4 -458 4 0 7 104 7 230 0 127 -2 230 -5
230 -3 0 -5 -1 -6 -2z"/>
<path d="M3922 2370 c0 -19 2 -27 5 -17 2 9 2 25 0 35 -3 9 -5 1 -5 -18z"/>
<path d="M1414 2170 c0 -102 2 -143 3 -92 2 50 2 134 0 185 -1 50 -3 9 -3 -93z"/>
<path d="M1300 2278 c-3 -26 -1 -43 3 -39 5 5 7 26 5 47 l-3 39 -5 -47z"/>
<path d="M1685 2310 c-3 -6 1 -7 9 -4 18 7 21 14 7 14 -6 0 -13 -4 -16 -10z"/>
<path d="M1750 2309 c-12 -8 -11 -9 5 -7 15 2 20 -2 19 -19 0 -13 3 -23 8 -23
13 0 9 36 -5 48 -8 7 -18 8 -27 1z"/>
<path d="M1895 2310 c-3 -5 -1 -10 4 -10 6 0 11 5 11 10 0 6 -2 10 -4 10 -3 0
-8 -4 -11 -10z"/>
<path d="M1948 2313 c6 -2 18 -2 25 0 6 3 1 5 -13 5 -14 0 -19 -2 -12 -5z"/>
<path d="M2130 2310 c-9 -6 -10 -10 -3 -10 6 0 15 5 18 10 8 12 4 12 -15 0z"/>
<path d="M2305 2309 c-4 -6 -5 -12 -2 -15 2 -3 7 2 10 11 7 17 1 20 -8 4z"/>
<path d="M2848 2313 c7 -3 16 -2 19 1 4 3 -2 6 -13 5 -11 0 -14 -3 -6 -6z"/>
<path d="M1835 2300 c-3 -5 -1 -10 4 -10 6 0 11 5 11 10 0 6 -2 10 -4 10 -3 0
-8 -4 -11 -10z"/>
<path d="M2269 2276 c19 -20 35 -36 36 -36 0 0 1 8 1 19 0 11 -5 17 -13 14 -7
-3 -13 0 -13 6 0 5 -10 16 -22 22 -17 9 -14 2 11 -25z"/>
<path d="M2355 2300 c-3 -5 -1 -10 4 -10 6 0 11 5 11 10 0 6 -2 10 -4 10 -3 0
-8 -4 -11 -10z"/>
<path d="M2573 2303 c9 -2 23 -2 30 0 6 3 -1 5 -18 5 -16 0 -22 -2 -12 -5z"/>
<path d="M2636 2302 c-3 -4 4 -9 15 -9 23 -2 25 3 4 10 -8 4 -16 3 -19 -1z"/>
<path d="M2700 2300 c0 -5 5 -10 10 -10 6 0 10 5 10 10 0 6 -4 10 -10 10 -5 0
-10 -4 -10 -10z"/>
<path d="M2783 2303 c9 -2 23 -2 30 0 6 3 -1 5 -18 5 -16 0 -22 -2 -12 -5z"/>
<path d="M3113 2304 c9 -3 15 -10 12 -15 -4 -5 -1 -9 5 -9 19 0 5 25 -16 27
-16 2 -16 1 -1 -3z"/>
<path d="M3293 2303 c9 -2 23 -2 30 0 6 3 -1 5 -18 5 -16 0 -22 -2 -12 -5z"/>
<path d="M3356 2302 c-2 -4 4 -9 15 -9 11 -1 17 2 14 8 -7 11 -22 12 -29 1z"/>
<path d="M2050 2295 c0 -8 29 -12 39 -5 9 5 4 8 -13 8 -14 0 -26 -2 -26 -3z"/>
<path d="M2382 2277 c-12 -13 -22 -27 -22 -33 0 -5 11 3 24 18 12 15 27 24 31
20 5 -4 5 -1 1 6 -9 16 -9 16 -34 -11z"/>
<path d="M2988 2279 c12 -14 22 -32 23 -40 0 -8 4 -6 9 6 12 28 12 37 -1 30
-5 -4 -20 1 -32 11 -21 18 -21 18 1 -7z"/>
<path d="M3066 2291 c-4 -7 -5 -15 -2 -18 9 -9 19 4 14 18 -4 11 -6 11 -12 0z"/>
<path d="M1811 2274 c0 -11 3 -14 6 -6 3 7 2 16 -1 19 -3 4 -6 -2 -5 -13z"/>
<path d="M474 2195 c0 -49 1 -71 3 -48 2 23 2 64 0 90 -2 26 -3 8 -3 -42z"/>
<path d="M1670 2150 l0 -130 -37 1 c-35 1 -36 2 -13 10 l25 8 -25 -2 c-18 -1
-28 5 -37 23 l-12 25 3 -28 c3 -35 20 -47 69 -47 l37 0 0 135 c0 74 -2 135 -5
135 -3 0 -5 -58 -5 -130z"/>
<path d="M1457 2246 c-4 -15 -6 -31 -2 -34 10 -10 16 6 13 35 l-3 28 -8 -29z"/>
<path d="M3086 2255 c-9 -26 -7 -32 5 -12 6 10 9 21 6 23 -2 3 -7 -2 -11 -11z"/>
<path d="M3385 2260 c-3 -5 -1 -10 4 -10 6 0 11 5 11 10 0 6 -2 10 -4 10 -3 0
-8 -4 -11 -10z"/>
<path d="M3933 2215 c0 -33 2 -45 4 -27 2 18 2 45 0 60 -2 15 -4 0 -4 -33z"/>
<path d="M1150 2251 c0 -6 4 -13 10 -16 6 -3 7 1 4 9 -7 18 -14 21 -14 7z"/>
<path d="M1783 2205 c0 -22 2 -30 4 -17 2 12 2 30 0 40 -3 9 -5 -1 -4 -23z"/>
<path d="M2711 2224 c0 -11 3 -14 6 -6 3 7 2 16 -1 19 -3 4 -6 -2 -5 -13z"/>
<path d="M3384 2155 c0 -49 1 -71 3 -48 2 23 2 64 0 90 -2 26 -3 8 -3 -42z"/>
<path d="M1973 2213 c15 -2 27 -9 27 -14 0 -5 5 -9 11 -9 8 0 8 5 -1 15 -7 8
-24 14 -39 14 l-26 -2 28 -4z"/>
<path d="M2123 2205 c-9 -24 1 -27 15 -5 8 13 8 20 2 20 -6 0 -13 -7 -17 -15z"/>
<path d="M2180 2211 c0 -6 -7 -11 -15 -11 -18 0 -20 -16 -3 -26 6 -4 8 -3 5 3
-10 15 18 24 32 10 8 -8 11 -8 11 0 0 6 -7 16 -15 23 -10 9 -15 9 -15 1z"/>
<path d="M2816 2211 c-4 -5 12 -7 36 -4 57 8 61 13 10 13 -22 0 -43 -4 -46 -9z"/>
<path d="M3218 2213 c7 -3 16 -2 19 1 4 3 -2 6 -13 5 -11 0 -14 -3 -6 -6z"/>
<path d="M3258 2213 c7 -3 16 -2 19 1 4 3 -2 6 -13 5 -11 0 -14 -3 -6 -6z"/>
<path d="M1930 2191 c0 -25 6 -27 13 -6 4 8 2 17 -3 20 -6 4 -10 -3 -10 -14z"/>
<path d="M2910 2205 c0 -5 5 -17 10 -25 5 -8 10 -10 10 -5 0 6 -5 17 -10 25
-5 8 -10 11 -10 5z"/>
<path d="M3021 2194 c0 -11 3 -14 6 -6 3 7 2 16 -1 19 -3 4 -6 -2 -5 -13z"/>
<path d="M2302 2175 c0 -16 2 -22 5 -12 2 9 2 23 0 30 -3 6 -5 -1 -5 -18z"/>
<path d="M2545 2190 c-3 -5 -1 -10 4 -10 6 0 11 5 11 10 0 6 -2 10 -4 10 -3 0
-8 -4 -11 -10z"/>
<path d="M2840 2189 c0 -5 5 -7 10 -4 6 3 10 8 10 11 0 2 -4 4 -10 4 -5 0 -10
-5 -10 -11z"/>
<path d="M2451 2183 c-1 -17 16 -25 25 -12 4 7 3 9 -4 5 -5 -3 -13 0 -15 6 -4
9 -6 10 -6 1z"/>
<path d="M3170 2180 c0 -14 15 -19 29 -11 9 6 7 10 -8 14 -12 3 -21 1 -21 -3z"/>
<path d="M1996 2171 c-4 -6 -2 -11 3 -11 7 0 11 -32 11 -86 0 -47 -3 -83 -7
-81 -5 3 -9 -9 -9 -26 -1 -19 1 -24 4 -12 l5 20 8 -20 c4 -12 8 25 8 90 1 105
-8 151 -23 126z"/>
<path d="M2200 2082 l5 -87 3 79 c2 44 -1 83 -5 87 -4 4 -6 -31 -3 -79z"/>
<path d="M2824 2085 c0 -49 1 -71 3 -48 2 23 2 64 0 90 -2 26 -3 8 -3 -42z"/>
<path d="M3061 2154 c0 -11 3 -14 6 -6 3 7 2 16 -1 19 -3 4 -6 -2 -5 -13z"/>
<path d="M1461 2144 c0 -11 3 -14 6 -6 3 7 2 16 -1 19 -3 4 -6 -2 -5 -13z"/>
<path d="M1933 2085 c0 -44 2 -61 4 -37 2 23 2 59 0 80 -2 20 -4 1 -4 -43z"/>
<path d="M3272 2135 c0 -16 2 -22 5 -12 2 9 2 23 0 30 -3 6 -5 -1 -5 -18z"/>
<path d="M2713 2080 c0 -41 2 -58 4 -37 2 20 2 54 0 75 -2 20 -4 3 -4 -38z"/>
<path d="M3023 2080 c0 -41 2 -58 4 -37 2 20 2 54 0 75 -2 20 -4 3 -4 -38z"/>
<path d="M1147 2133 c-10 -10 -8 -41 3 -48 6 -4 7 1 3 11 -4 11 1 22 12 30 15
11 16 14 4 14 -9 0 -19 -3 -22 -7z"/>
<path d="M1270 2131 c0 -5 7 -11 15 -15 8 -3 15 -1 15 3 0 5 -7 11 -15 15 -8
3 -15 1 -15 -3z"/>
<path d="M2303 2095 c0 -22 2 -30 4 -17 2 12 2 30 0 40 -3 9 -5 -1 -4 -23z"/>
<path d="M3171 2114 c0 -11 3 -14 6 -6 3 7 2 16 -1 19 -3 4 -6 -2 -5 -13z"/>
<path d="M1450 2059 c0 -11 5 -17 10 -14 6 3 10 13 10 21 0 8 -4 14 -10 14 -5
0 -10 -9 -10 -21z"/>
<path d="M3170 2060 c0 -17 17 -47 23 -40 2 3 -2 16 -10 30 -7 14 -13 18 -13
10z"/>
<path d="M3433 2035 c-24 -23 -29 -34 -21 -45 8 -13 9 -13 5 1 -6 18 26 41 47
33 8 -3 17 -1 21 5 3 7 0 8 -9 5 -9 -3 -16 -1 -16 4 0 6 10 12 23 14 21 3 21
4 2 9 -14 4 -30 -4 -52 -26z"/>
<path d="M1140 2050 c0 -5 5 -10 10 -10 6 0 10 5 10 10 0 6 -4 10 -10 10 -5 0
-10 -4 -10 -10z"/>
<path d="M1301 2044 c0 -11 3 -14 6 -6 3 7 2 16 -1 19 -3 4 -6 -2 -5 -13z"/>
<path d="M2464 2049 c-3 -6 -1 -16 5 -22 9 -9 11 -8 5 6 -5 13 -2 16 10 11 9
-3 16 -4 16 -1 0 11 -30 16 -36 6z"/>
<path d="M3265 2050 c-3 -5 -1 -10 4 -10 6 0 11 5 11 10 0 6 -2 10 -4 10 -3 0
-8 -4 -11 -10z"/>
<path d="M3922 2030 c0 -14 2 -19 5 -12 2 6 2 18 0 25 -3 6 -5 1 -5 -13z"/>
<path d="M482 2020 c0 -14 2 -19 5 -12 2 6 2 18 0 25 -3 6 -5 1 -5 -13z"/>
<path d="M3382 2015 c0 -16 2 -22 5 -12 2 9 2 23 0 30 -3 6 -5 -1 -5 -18z"/>
<path d="M2530 2020 c0 -5 7 -7 15 -4 8 4 15 8 15 10 0 2 -7 4 -15 4 -8 0 -15
-4 -15 -10z"/>
<path d="M3210 2020 c0 -5 5 -10 11 -10 5 0 7 5 4 10 -3 6 -8 10 -11 10 -2 0
-4 -4 -4 -10z"/>
<path d="M3258 2023 c7 -3 16 -2 19 1 4 3 -2 6 -13 5 -11 0 -14 -3 -6 -6z"/>
<path d="M3500 2021 c0 -6 4 -12 8 -15 5 -3 9 1 9 9 0 8 -4 15 -9 15 -4 0 -8
-4 -8 -9z"/>
<path d="M1470 1998 c0 -9 5 -20 10 -23 6 -3 10 -11 10 -17 0 -6 -6 -6 -15 2
-13 11 -14 10 -9 -4 4 -10 13 -15 20 -12 7 3 16 1 19 -4 4 -6 11 -10 17 -10 6
0 2 10 -9 23 -11 12 -25 31 -31 42 -10 17 -11 17 -12 3z"/>
<path d="M1285 1990 c-3 -5 -2 -10 4 -10 5 0 13 5 16 10 3 6 2 10 -4 10 -5 0
-13 -4 -16 -10z"/>
<path d="M2139 1980 c-13 -10 -20 -19 -16 -20 4 0 17 9 29 20 28 26 17 26 -13
0z"/>
<path d="M2340 1990 c-8 -5 -10 -10 -5 -10 6 0 17 5 25 10 8 5 11 10 5 10 -5
0 -17 -5 -25 -10z"/>
<path d="M2660 1986 c0 -9 5 -16 10 -16 6 0 10 4 10 9 0 6 -4 13 -10 16 -5 3
-10 -1 -10 -9z"/>
<path d="M2921 1983 c0 -12 -4 -30 -7 -40 -5 -17 -5 -17 6 0 6 10 9 28 7 40
-4 22 -4 22 -6 0z"/>
<path d="M3061 1984 c0 -11 3 -14 6 -6 3 7 2 16 -1 19 -3 4 -6 -2 -5 -13z"/>
<path d="M1142 1970 c0 -14 2 -19 5 -12 2 6 2 18 0 25 -3 6 -5 1 -5 -13z"/>
<path d="M1425 1977 c-11 -13 -16 -62 -5 -50 7 8 23 63 18 63 -2 -1 -7 -6 -13
-13z"/>
<path d="M2190 1983 c0 -4 5 -15 10 -23 8 -13 10 -13 10 2 0 9 -4 20 -10 23
-5 3 -10 3 -10 -2z"/>
<path d="M2302 1970 c0 -14 2 -19 5 -12 2 6 2 18 0 25 -3 6 -5 1 -5 -13z"/>
<path d="M3020 1970 c0 -11 4 -20 9 -20 5 0 7 9 4 20 -3 11 -7 20 -9 20 -2 0
-4 -9 -4 -20z"/>
<path d="M1780 1970 c0 -5 5 -10 11 -10 5 0 7 5 4 10 -3 6 -8 10 -11 10 -2 0
-4 -4 -4 -10z"/>
<path d="M1930 1970 c0 -5 5 -10 11 -10 5 0 7 5 4 10 -3 6 -8 10 -11 10 -2 0
-4 -4 -4 -10z"/>
<path d="M2379 1963 c6 -13 16 -23 22 -23 6 0 8 -3 6 -7 -3 -5 14 -9 36 -10
41 -1 41 -1 9 7 -18 4 -45 18 -59 31 -26 24 -26 24 -14 2z"/>
<path d="M2885 1970 c-16 -7 -17 -9 -3 -9 9 -1 20 4 23 9 7 11 7 11 -20 0z"/>
<path d="M492 1945 c0 -16 2 -22 5 -12 2 9 2 23 0 30 -3 6 -5 -1 -5 -18z"/>
<path d="M2660 1950 c0 -5 5 -10 11 -10 5 0 7 5 4 10 -3 6 -8 10 -11 10 -2 0
-4 -4 -4 -10z"/>
<path d="M3100 1955 c0 -6 56 -35 67 -35 4 0 -7 9 -25 20 -33 20 -42 24 -42
15z"/>
<path d="M3409 1951 c7 -5 11 -13 8 -18 -3 -5 9 -9 26 -10 19 -1 24 1 12 4
-11 3 -24 11 -28 19 -4 8 -13 14 -20 14 -8 0 -7 -3 2 -9z"/>
<path d="M3912 1940 c0 -14 2 -19 5 -12 2 6 2 18 0 25 -3 6 -5 1 -5 -13z"/>
<path d="M1447 1937 c-3 -8 1 -14 8 -14 7 0 11 6 8 14 -3 7 -6 13 -8 13 -2 0
-5 -6 -8 -13z"/>
<path d="M1755 1940 c-11 -5 -18 -9 -15 -10 27 -8 40 -6 40 6 0 8 -1 14 -2 13
-2 0 -12 -4 -23 -9z"/>
<path d="M2120 1942 c0 -7 -15 -13 -32 -13 -32 -2 -33 -2 -4 -6 28 -5 56 11
43 24 -4 3 -7 1 -7 -5z"/>
<path d="M2541 1941 c-10 -6 -9 -10 3 -14 8 -3 18 -2 21 3 8 13 -9 20 -24 11z"/>
<path d="M2710 1941 c0 -6 4 -13 10 -16 6 -3 7 1 4 9 -7 18 -14 21 -14 7z"/>
<path d="M3265 1941 c-3 -5 0 -13 6 -17 7 -4 9 -3 5 4 -3 5 0 13 6 15 9 4 10
6 1 6 -6 1 -14 -3 -18 -8z"/>
<path d="M3375 1930 c-4 -6 -11 -7 -17 -4 -7 4 -8 2 -4 -5 6 -9 11 -9 22 0 14
11 18 19 10 19 -3 0 -8 -5 -11 -10z"/>
<path d="M1110 1920 c18 -12 30 -13 30 -2 0 4 -10 9 -22 9 -18 2 -20 0 -8 -7z"/>
<path d="M1318 1923 c7 -3 16 -2 19 1 4 3 -2 6 -13 5 -11 0 -14 -3 -6 -6z"/>
<path d="M1378 1923 c7 -3 16 -2 19 1 4 3 -2 6 -13 5 -11 0 -14 -3 -6 -6z"/>
<path d="M1588 1923 c12 -2 30 -2 40 0 9 3 -1 5 -23 4 -22 0 -30 -2 -17 -4z"/>
<path d="M1698 1923 c7 -3 16 -2 19 1 4 3 -2 6 -13 5 -11 0 -14 -3 -6 -6z"/>
<path d="M2498 1923 c7 -3 16 -2 19 1 4 3 -2 6 -13 5 -11 0 -14 -3 -6 -6z"/>
<path d="M2758 1923 c7 -3 16 -2 19 1 4 3 -2 6 -13 5 -11 0 -14 -3 -6 -6z"/>
<path d="M2958 1923 c12 -2 30 -2 40 0 9 3 -1 5 -23 4 -22 0 -30 -2 -17 -4z"/>
<path d="M3218 1923 c7 -3 16 -2 19 1 4 3 -2 6 -13 5 -11 0 -14 -3 -6 -6z"/>
<path d="M502 1890 c0 -14 2 -19 5 -12 2 6 2 18 0 25 -3 6 -5 1 -5 -13z"/>
<path d="M3901 1884 c0 -11 3 -14 6 -6 3 7 2 16 -1 19 -3 4 -6 -2 -5 -13z"/>
<path d="M512 1840 c0 -14 2 -19 5 -12 2 6 2 18 0 25 -3 6 -5 1 -5 -13z"/>
<path d="M524 1791 c1 -17 26 -28 26 -11 0 6 -4 9 -9 5 -5 -3 -11 0 -14 7 -2
9 -4 8 -3 -1z"/>
<path d="M3871 1776 c-9 -11 -9 -16 1 -22 7 -4 10 -4 6 1 -4 4 -3 14 3 22 6 7
9 13 6 13 -2 0 -10 -6 -16 -14z"/>
<path d="M535 1749 c-4 -6 -5 -12 -2 -15 2 -3 7 2 10 11 7 17 1 20 -8 4z"/>
<path d="M3844 1692 c-1 -56 2 -61 10 -22 3 14 8 36 11 50 4 21 4 22 -3 5 l-9
-20 -5 20 c-2 11 -4 -4 -4 -33z"/>
<path d="M546 1707 c3 -10 9 -15 12 -12 3 3 0 11 -7 18 -10 9 -11 8 -5 -6z"/>
<path d="M597 1661 c-4 -17 -3 -21 5 -13 5 5 8 16 6 23 -3 8 -7 3 -11 -10z"/>
<path d="M560 1655 c0 -5 5 -17 10 -25 5 -8 10 -10 10 -5 0 6 -5 17 -10 25 -5
8 -10 11 -10 5z"/>
<path d="M610 1611 c0 -6 4 -13 10 -16 6 -3 7 1 4 9 -7 18 -14 21 -14 7z"/>
<path d="M581 1594 c0 -11 3 -14 6 -6 3 7 2 16 -1 19 -3 4 -6 -2 -5 -13z"/>
<path d="M3799 1579 c-8 -17 -8 -20 1 -14 9 5 10 1 5 -16 -5 -18 -4 -21 4 -9
6 8 8 23 5 34 -4 13 -3 16 6 11 9 -5 11 -4 6 3 -10 16 -14 15 -27 -9z"/>
<path d="M596 1575 c-3 -8 -1 -15 4 -15 6 0 10 7 10 15 0 8 -2 15 -4 15 -2 0
-6 -7 -10 -15z"/>
<path d="M3762 1506 c0 -11 2 -16 6 -10 4 6 14 13 22 16 11 3 9 6 -6 10 -15 4
-20 0 -22 -16z"/>
<path d="M620 1502 c6 -13 14 -21 18 -18 3 4 -2 14 -12 24 -18 16 -18 16 -6
-6z"/>
<path d="M654 1422 c15 -29 31 -50 36 -47 16 10 12 21 -26 61 l-36 39 26 -53z"/>
<path d="M3724 1428 c-4 -6 -2 -14 4 -16 6 -2 8 -11 5 -20 -4 -14 -3 -14 5 -3
6 8 8 21 4 29 -4 11 -1 13 8 7 9 -5 11 -4 6 3 -9 15 -23 15 -32 0z"/>
<path d="M3711 1372 c-1 -8 -6 -10 -13 -6 -10 5 -10 4 -1 -6 15 -16 28 -8 20
12 -4 11 -6 11 -6 0z"/>
<path d="M703 1345 c0 -8 4 -12 9 -9 5 3 6 10 3 15 -9 13 -12 11 -12 -6z"/>
<path d="M3680 1314 c-13 -33 -12 -44 1 -22 5 10 9 21 9 24 -1 4 4 11 12 15
10 7 10 9 0 9 -7 0 -17 -12 -22 -26z"/>
<path d="M725 1299 c11 -13 21 -26 22 -28 2 -2 3 3 3 12 0 9 -10 22 -22 28
l-23 12 20 -24z"/>
<path d="M3634 1258 c-11 -12 -13 -18 -6 -14 6 4 12 3 12 -2 0 -17 -13 -22
-29 -10 -13 10 -14 10 -3 -2 15 -17 16 -34 2 -25 -6 4 -10 3 -9 -2 3 -13 -13
-43 -20 -38 -4 2 -8 -2 -8 -10 0 -21 9 -12 55 54 41 57 45 93 6 49z"/>
<path d="M780 1261 c0 -6 4 -13 10 -16 6 -3 7 1 4 9 -7 18 -14 21 -14 7z"/>
<path d="M759 1243 c6 -12 16 -25 21 -28 17 -11 11 5 -11 28 l-21 22 11 -22z"/>
<path d="M826 1189 c2 -4 0 -10 -6 -14 -6 -4 -8 -11 -4 -16 4 -6 10 -6 18 0 7
6 16 8 20 4 4 -4 4 1 0 11 -6 15 -4 17 7 11 8 -4 11 -4 6 0 -9 11 -48 14 -41
4z"/>
<path d="M3531 1182 c-7 -13 -6 -19 2 -19 7 0 13 9 13 19 0 10 -1 18 -3 18 -1
0 -7 -8 -12 -18z"/>
<path d="M3524 1133 c4 -4 16 -8 28 -10 28 -4 18 6 -12 12 -12 2 -20 1 -16 -2z"/>
<path d="M861 1113 c-1 -17 16 -25 25 -12 4 7 3 9 -4 5 -5 -3 -13 0 -15 6 -4
9 -6 10 -6 1z"/>
<path d="M896 1091 c-8 -13 4 -41 17 -41 8 0 8 3 0 11 -6 6 -9 18 -6 25 6 16
-3 19 -11 5z"/>
<path d="M926 1084 c-5 -14 -4 -15 9 -4 17 14 19 20 6 20 -5 0 -12 -7 -15 -16z"/>
<path d="M3500 1070 c-8 -5 -12 -12 -9 -15 4 -3 12 1 19 10 14 17 11 19 -10 5z"/>
<path d="M933 1045 c-9 -10 -7 -18 12 -35 18 -17 25 -19 31 -8 4 7 4 10 -1 6
-9 -9 -35 9 -35 24 0 6 6 6 14 -1 11 -9 16 -9 22 0 4 7 3 9 -4 5 -6 -3 -14 0
-19 8 -6 11 -10 12 -20 1z"/>
<path d="M3455 1030 c-3 -6 1 -7 9 -4 18 7 21 14 7 14 -6 0 -13 -4 -16 -10z"/>
<path d="M991 996 c-15 -18 2 -48 41 -73 15 -11 11 -3 -12 21 -28 30 -32 39
-20 46 8 5 12 12 9 15 -4 3 -12 -1 -18 -9z"/>
<path d="M3439 997 c-8 -7 -24 -25 -33 -42 l-18 -30 19 24 c11 13 31 32 44 42
13 10 20 19 14 18 -5 0 -17 -5 -26 -12z"/>
<path d="M3346 915 c-11 -8 -18 -17 -15 -19 2 -2 15 4 28 15 27 22 15 26 -13
4z"/>
<path d="M1070 910 c-8 -5 -12 -12 -9 -15 4 -3 12 1 19 10 14 17 11 19 -10 5z"/>
<path d="M1080 881 c0 -6 11 -13 25 -17 14 -3 22 -10 19 -15 -3 -5 2 -6 12 -2
15 5 14 7 -2 17 -11 6 -21 11 -24 11 -3 0 -11 4 -17 8 -8 5 -13 4 -13 -2z"/>
<path d="M1167 851 c-26 -17 -26 -19 -10 -32 12 -10 15 -10 9 -1 -5 8 1 20 16
32 29 24 22 24 -15 1z"/>
<path d="M1194 793 c16 -20 36 -23 36 -6 0 4 -3 3 -7 0 -3 -4 -16 1 -27 10
-21 18 -21 18 -2 -4z"/>
<path d="M3190 784 c-20 -14 -36 -20 -38 -14 -2 6 -10 3 -17 -7 -24 -32 -5
-34 40 -3 24 17 47 35 50 40 9 14 5 12 -35 -16z"/>
<path d="M1236 771 c-4 -5 -2 -12 3 -15 5 -4 12 -2 15 3 4 5 2 12 -3 15 -5 4
-12 2 -15 -3z"/>
<path d="M1265 751 c-3 -5 -2 -12 3 -15 5 -3 9 1 9 9 0 17 -3 19 -12 6z"/>
<path d="M3090 720 c-8 -5 -12 -11 -10 -14 3 -2 14 2 24 10 22 15 10 19 -14 4z"/>
<path d="M1310 716 c0 -3 9 -10 20 -16 11 -6 20 -8 20 -6 0 3 -9 10 -20 16
-11 6 -20 8 -20 6z"/>
<path d="M3045 711 c3 -5 1 -12 -5 -16 -5 -3 -10 -12 -10 -18 0 -7 5 -4 11 6
6 10 15 14 22 10 7 -4 6 0 -2 10 -14 18 -26 23 -16 8z"/>
<path d="M1377 699 c7 -7 15 -10 18 -7 3 3 -2 9 -12 12 -14 6 -15 5 -6 -5z"/>
<path d="M1405 680 c-3 -6 -11 -7 -17 -4 -7 4 -8 2 -4 -5 4 -6 11 -9 16 -6 5
3 16 -2 24 -11 15 -14 16 -14 13 7 -4 25 -22 36 -32 19z"/>
<path d="M2980 670 c-8 -5 -11 -10 -6 -10 6 0 1 -7 -10 -15 -15 -12 -11 -12
18 1 20 10 35 21 32 26 -7 10 -15 10 -34 -2z"/>
<path d="M1500 615 c25 -13 50 -24 55 -25 17 0 -59 44 -80 47 -11 1 0 -8 25
-22z"/>
<path d="M2896 625 c4 -8 11 -15 16 -15 6 0 5 6 -2 15 -7 8 -14 15 -16 15 -2
0 -1 -7 2 -15z"/>
<path d="M2839 593 c-13 -17 -13 -17 6 -3 11 8 22 16 24 17 2 2 0 3 -6 3 -6 0
-17 -8 -24 -17z"/>
<path d="M1570 589 c0 -5 5 -7 10 -4 6 3 10 1 10 -5 0 -6 5 -8 11 -4 8 4 7 9
-2 15 -19 12 -29 11 -29 -2z"/>
<path d="M1620 570 c0 -5 5 -10 11 -10 5 0 7 5 4 10 -3 6 -8 10 -11 10 -2 0
-4 -4 -4 -10z"/>
<path d="M2790 570 c-8 -5 -10 -10 -5 -10 6 0 17 5 25 10 8 5 11 10 5 10 -5 0
-17 -5 -25 -10z"/>
<path d="M1655 560 c-3 -5 -1 -10 4 -10 6 0 11 5 11 10 0 6 -2 10 -4 10 -3 0
-8 -4 -11 -10z"/>
<path d="M2647 543 c3 -8 -3 -13 -15 -13 -12 0 -23 -4 -26 -9 -7 -10 69 5 93
19 17 10 13 12 -30 14 -18 1 -25 -2 -22 -11z"/>
<path d="M1730 544 c0 -7 59 -34 72 -33 7 0 0 5 -16 11 -19 7 -24 13 -16 18 7
5 2 8 -14 8 -14 0 -26 -2 -26 -4z"/>
<path d="M1831 531 c-10 -7 -5 -13 23 -26 20 -10 40 -15 43 -11 3 3 -1 6 -10
6 -9 0 -17 5 -17 10 0 6 -8 10 -17 10 -15 0 -16 2 -3 10 8 5 11 10 5 10 -5 0
-16 -4 -24 -9z"/>
<path d="M2490 500 c8 -5 22 -9 30 -9 10 0 8 3 -5 9 -27 12 -43 12 -25 0z"/>
<path d="M1933 483 c9 -2 25 -2 35 0 9 3 1 5 -18 5 -19 0 -27 -2 -17 -5z"/>
<path d="M2458 483 c7 -3 16 -2 19 1 4 3 -2 6 -13 5 -11 0 -14 -3 -6 -6z"/>
<path d="M2008 473 c6 -2 18 -2 25 0 6 3 1 5 -13 5 -14 0 -19 -2 -12 -5z"/>
<path d="M2363 473 c9 -2 25 -2 35 0 9 3 1 5 -18 5 -19 0 -27 -2 -17 -5z"/>
<path d="M2167 463 c18 -2 50 -2 70 0 21 2 7 4 -32 4 -38 0 -55 -2 -38 -4z"/>
</g>
</svg>
