<?xml version="1.0" standalone="no"?>
<!DOCTYPE svg PUBLIC "-//W3C//DTD SVG 20010904//EN"
 "http://www.w3.org/TR/2001/REC-SVG-20010904/DTD/svg10.dtd">
<svg version="1.0" xmlns="http://www.w3.org/2000/svg"
 width="3840.000000pt" height="2160.000000pt" viewBox="0 0 3840.000000 2160.000000"
 preserveAspectRatio="xMidYMid meet">

<g transform="translate(0.000000,2160.000000) scale(0.100000,-0.100000)"
fill="#000000" stroke="none">
<path d="M18514 21338 c-3 -4 10 -16 28 -27 49 -29 54 -36 73 -88 17 -47 75
-199 154 -402 23 -58 41 -113 41 -123 0 -27 28 -34 45 -12 8 11 21 40 29 66 8
26 26 66 39 90 14 24 33 66 43 93 10 28 32 73 49 100 39 64 55 100 55 128 0
18 -5 14 -24 -18 -38 -62 -122 -236 -136 -277 -21 -69 -53 -42 -95 79 -14 37
-45 118 -70 178 -56 138 -58 165 -9 189 20 9 34 20 30 23 -9 9 -247 9 -252 1z"/>
<path d="M18996 21321 c-4 -5 5 -18 20 -28 14 -10 35 -26 45 -36 19 -17 21
-17 47 1 15 10 35 22 45 25 32 12 17 25 -35 32 -29 4 -67 9 -85 11 -17 3 -34
1 -37 -5z"/>
<path d="M17906 21300 c-75 -5 -95 -21 -47 -38 26 -9 30 -16 35 -59 4 -26 13
-88 21 -138 7 -49 16 -149 19 -221 5 -120 4 -134 -14 -156 -34 -45 0 -53 137
-32 40 6 55 36 15 32 -24 -3 -30 4 -55 52 -25 49 -27 64 -25 140 l3 85 41 3
c40 3 41 2 120 -95 108 -134 145 -171 180 -178 16 -3 41 -9 56 -14 32 -10 78
-3 78 13 0 6 -25 27 -56 46 -59 37 -248 243 -241 263 2 6 33 26 68 43 36 18
71 39 77 47 16 19 2 115 -22 151 -33 51 -57 59 -194 60 -70 0 -158 -1 -196 -4z
m266 -51 c60 -43 62 -150 4 -194 -18 -14 -37 -25 -42 -25 -5 0 -21 -6 -35 -14
-14 -7 -42 -16 -62 -20 -53 -10 -58 5 -61 184 -1 70 1 75 24 88 34 18 135 7
172 -19z"/>
<path d="M19320 21290 c0 -5 18 -19 40 -30 49 -25 56 -54 41 -182 -7 -51 -16
-140 -21 -198 -5 -58 -15 -126 -21 -152 -10 -45 -13 -48 -44 -48 -39 0 -65 -8
-65 -21 0 -5 17 -6 38 -3 27 4 49 1 70 -10 42 -22 172 -23 172 -1 0 8 -9 15
-20 15 -12 0 -32 7 -45 16 -29 19 -32 57 -10 120 7 23 17 77 20 120 8 102 24
219 36 265 6 26 18 39 44 52 44 21 45 37 3 37 -18 0 -73 7 -123 15 -107 18
-115 18 -115 5z"/>
<path d="M17460 21235 c-14 -8 -45 -14 -70 -15 -25 0 -74 -9 -110 -20 -36 -11
-83 -20 -106 -20 -23 0 -55 -5 -73 -11 -34 -12 -37 -34 -5 -35 43 -1 62 -16
77 -57 15 -42 38 -153 57 -282 6 -38 18 -89 27 -113 15 -40 15 -46 0 -78 -10
-19 -33 -44 -52 -55 -36 -21 -49 -47 -17 -34 9 4 60 16 112 26 210 42 258 52
320 66 99 23 99 23 93 95 -6 69 -26 105 -43 78 -6 -8 -13 -26 -16 -40 -11 -50
-28 -82 -49 -96 -55 -36 -222 -58 -242 -31 -11 14 -43 175 -45 227 0 19 2 45
6 58 5 14 2 27 -7 37 -18 18 -59 148 -61 194 -1 31 2 34 43 47 110 33 171 23
225 -35 17 -17 33 -31 38 -31 11 0 10 101 -1 119 -13 20 -70 23 -101 6z"/>
<path d="M19956 21182 c-65 -15 -73 -20 -139 -86 -38 -39 -76 -86 -84 -105 -8
-19 -17 -74 -20 -123 -5 -81 -4 -94 21 -156 34 -83 58 -112 128 -151 46 -26
70 -32 146 -37 82 -6 94 -5 128 16 40 23 63 49 77 85 6 16 2 15 -17 -7 -65
-73 -164 -88 -252 -37 -106 60 -146 165 -126 325 13 97 32 136 94 189 67 57
121 78 176 70 79 -12 96 -26 126 -105 14 -39 26 -84 26 -101 0 -18 5 -29 14
-29 9 0 16 17 21 53 4 28 14 65 22 81 15 28 14 31 -7 48 -12 10 -36 18 -53 18
-17 0 -40 8 -51 19 -24 21 -110 52 -140 50 -12 -1 -52 -9 -90 -17z"/>
<path d="M16779 21052 c5 -9 19 -26 31 -37 12 -11 31 -37 42 -59 23 -45 42
-37 32 13 -8 39 -66 101 -95 101 -16 0 -18 -4 -10 -18z"/>
<path d="M20580 21055 c-7 -8 -10 -22 -6 -30 3 -8 1 -39 -4 -68 -11 -56 -75
-271 -90 -298 -5 -9 -12 -34 -16 -55 -4 -22 -13 -51 -21 -66 -12 -25 -19 -28
-63 -28 -50 0 -74 -15 -49 -31 8 -5 24 -7 37 -4 13 3 39 -3 60 -14 20 -11 53
-24 72 -30 40 -11 206 -71 263 -96 l39 -16 33 35 c18 19 40 56 48 81 15 42 15
45 -2 45 -9 0 -35 -18 -56 -40 -53 -54 -98 -67 -150 -45 -22 9 -60 23 -85 32
-68 23 -76 34 -63 90 24 104 56 175 87 194 17 11 25 19 19 19 -22 0 -14 71 20
175 31 96 34 100 62 102 19 2 55 -11 100 -35 64 -34 71 -41 87 -86 22 -62 33
-74 55 -60 27 17 34 63 17 100 -17 35 -26 41 -89 54 -22 5 -93 27 -158 49 -66
23 -122 41 -127 41 -4 0 -13 -7 -20 -15z"/>
<path d="M16544 21025 c-33 -33 -54 -85 -54 -135 0 -101 86 -170 214 -170 96
-1 136 -14 179 -59 32 -35 37 -46 37 -90 0 -43 -4 -53 -31 -75 -26 -22 -40
-26 -97 -26 -76 0 -132 23 -189 76 -20 19 -37 33 -39 31 -7 -7 36 -141 49
-154 13 -13 23 -14 64 -4 27 7 73 14 101 16 64 5 140 44 188 97 39 44 41 60
15 143 -14 47 -26 64 -50 79 -28 16 -165 57 -180 54 -15 -4 -128 25 -146 37
-62 39 -71 141 -15 170 42 22 46 35 10 35 -20 0 -40 -9 -56 -25z"/>
<path d="M17462 21032 c-6 -5 -27 -34 -46 -65 -29 -48 -32 -57 -17 -57 10 0
28 -12 42 -26 13 -14 36 -32 52 -40 l27 -15 0 53 c-1 31 -7 61 -15 72 -8 11
-15 35 -15 53 0 34 -6 39 -28 25z"/>
<path d="M15850 20785 c-52 -25 -96 -51 -98 -60 -4 -18 -2 -18 34 -5 57 22 79
6 130 -93 26 -51 64 -125 85 -165 44 -81 49 -112 20 -112 -24 0 -87 28 -128
58 -17 12 -33 22 -36 22 -2 0 -31 16 -62 35 -32 19 -88 44 -125 56 -37 11 -80
32 -95 45 -41 35 -105 36 -168 4 -21 -11 -44 -20 -52 -20 -8 0 -15 -5 -15 -11
0 -8 14 -9 43 -5 63 9 118 -25 135 -84 7 -25 45 -110 84 -189 64 -132 70 -149
65 -190 -3 -25 -9 -54 -12 -63 -10 -26 20 -23 76 6 26 12 56 26 68 29 11 3 21
10 21 17 0 8 -13 9 -43 5 -50 -8 -58 -2 -81 67 -8 26 -34 84 -57 130 -23 46
-52 103 -64 128 -13 25 -25 59 -27 75 -3 30 -2 30 41 27 37 -2 53 -11 96 -51
35 -31 101 -71 191 -117 77 -38 155 -78 174 -90 41 -25 97 -38 105 -23 4 5 -7
33 -23 62 -16 29 -40 77 -53 107 -13 30 -50 102 -82 160 -73 132 -86 209 -41
254 14 15 12 36 -4 36 -4 0 -50 -20 -102 -45z"/>
<path d="M21264 20780 c-46 -15 -97 -91 -102 -155 l-4 -52 56 -49 c34 -29 75
-78 102 -124 42 -70 44 -78 38 -125 -12 -101 -86 -128 -194 -69 -70 38 -92 84
-89 187 3 99 -14 94 -61 -15 -42 -97 -43 -95 30 -131 19 -9 56 -32 82 -51 56
-40 131 -59 199 -50 39 5 53 13 72 38 37 48 67 112 67 143 0 41 -80 154 -127
178 -50 26 -73 73 -73 151 0 51 4 64 24 83 41 39 98 30 172 -26 27 -20 33 -33
39 -80 8 -66 20 -103 34 -103 5 0 21 25 35 55 30 66 23 93 -27 114 -18 8 -56
30 -86 49 -58 38 -127 50 -187 32z"/>
<path d="M20752 20740 c-23 -16 -49 -30 -57 -30 -24 0 -17 -13 20 -39 36 -25
43 -39 24 -58 -14 -14 -2 -53 16 -53 8 0 17 12 21 28 3 15 12 50 19 77 32 122
29 127 -43 75z"/>
<path d="M14933 20313 c-3 -9 -1 -39 6 -67 7 -28 16 -88 20 -132 5 -45 13
-103 19 -130 37 -168 50 -301 32 -345 -7 -16 -10 -32 -7 -36 8 -7 112 55 134
79 14 16 14 18 -3 25 -11 3 -36 17 -56 30 -39 24 -57 70 -44 111 8 24 75 92
92 92 7 0 16 5 19 11 5 7 -7 9 -36 5 -35 -5 -49 -2 -67 14 -43 36 -72 190 -37
190 47 0 145 -84 183 -156 8 -15 28 -23 73 -32 96 -18 123 -58 78 -116 l-20
-26 23 0 c13 0 28 4 34 9 5 6 36 23 69 40 33 17 76 45 95 61 l35 31 -57 -7
c-42 -5 -68 -2 -97 9 -55 23 -202 129 -243 176 -38 44 -123 115 -185 154 -50
32 -52 32 -60 10z"/>
<path d="M21991 20221 c-23 -22 -31 -38 -31 -63 0 -38 33 -78 64 -78 33 0 74
29 85 62 11 30 9 34 -26 70 -20 21 -42 38 -49 38 -7 0 -26 -13 -43 -29z"/>
<path d="M22600 20111 c0 -4 9 -20 20 -34 11 -14 20 -30 20 -37 0 -6 -24 -37
-53 -68 -30 -31 -68 -77 -86 -102 -17 -25 -45 -63 -62 -84 -40 -53 -73 -165
-65 -217 7 -45 49 -133 68 -145 7 -5 45 -19 83 -32 151 -51 239 -21 343 118
34 46 81 117 103 158 l41 75 55 -6 c46 -5 54 -3 51 10 -2 9 -19 25 -38 35 -19
10 -50 35 -68 56 -27 30 -35 34 -42 22 -14 -21 -12 -31 10 -73 l21 -38 -28
-43 c-37 -57 -86 -123 -156 -213 -62 -79 -108 -108 -156 -99 -14 3 -53 8 -86
11 -70 7 -101 27 -132 81 -25 43 -29 93 -11 127 21 40 138 211 193 282 46 59
62 72 97 80 53 13 55 32 8 62 -19 12 -53 36 -76 53 -43 31 -54 36 -54 21z"/>
<path d="M14476 20013 c-4 -5 -28 -19 -54 -33 -53 -29 -64 -59 -38 -110 8 -16
17 -44 21 -62 19 -95 48 -204 56 -214 5 -6 15 -39 23 -75 7 -35 17 -72 21 -81
5 -14 2 -18 -14 -18 -26 0 -145 64 -193 105 -21 18 -56 38 -77 45 -22 7 -66
30 -97 51 -31 22 -65 39 -75 39 -11 0 -36 -15 -56 -34 -21 -18 -53 -41 -72
-50 -18 -10 -29 -21 -25 -26 5 -5 52 -11 104 -14 111 -5 111 -5 214 -68 44
-26 108 -57 142 -67 35 -10 93 -37 129 -60 35 -23 67 -41 70 -41 3 0 10 12 15
26 8 21 5 37 -15 83 -32 69 -60 153 -70 206 -4 22 -15 60 -25 85 -10 25 -21
66 -25 93 -5 42 -4 47 13 47 31 0 121 -114 167 -211 14 -30 43 -76 65 -104 22
-28 40 -61 40 -75 0 -44 13 -54 47 -36 35 17 149 144 118 131 -43 -19 -77 -9
-114 32 -65 72 -130 159 -164 219 -18 32 -44 77 -58 99 -36 58 -49 93 -43 110
6 16 -17 21 -30 8z"/>
<path d="M23234 19516 c-17 -8 -44 -31 -60 -52 -45 -58 -40 -105 24 -238 57
-120 62 -148 32 -206 -47 -93 -137 -102 -222 -22 -33 30 -47 23 -24 -13 22
-33 126 -85 171 -85 20 0 60 11 88 24 45 20 56 31 74 72 12 27 24 58 28 70 7
29 -29 135 -77 224 -23 41 -41 87 -40 102 1 46 100 116 147 104 29 -7 103 -73
121 -108 14 -27 14 -33 -5 -71 -22 -47 -30 -100 -16 -106 6 -2 26 24 46 59
l37 63 -30 51 c-41 69 -65 94 -120 122 -54 27 -125 31 -174 10z"/>
<path d="M14060 19465 c0 -9 35 -53 78 -98 158 -166 177 -202 148 -271 -19
-47 -20 -50 -2 -43 19 7 129 92 145 111 22 26 5 49 -32 43 -47 -6 -82 10 -110
51 -35 53 -227 228 -227 207z"/>
<path d="M13670 19360 c-18 -22 -45 -47 -61 -56 -39 -20 -40 -49 -1 -40 72 18
82 18 117 -4 19 -12 58 -48 86 -81 29 -32 76 -77 106 -100 31 -24 69 -67 91
-102 35 -57 37 -59 40 -33 5 41 -14 77 -61 115 -66 53 -230 213 -251 245 -12
20 -16 39 -13 62 8 47 -13 44 -53 -6z"/>
<path d="M22921 19215 c-22 -24 -41 -53 -41 -64 0 -21 61 -75 71 -63 6 6 19
172 14 172 -2 0 -21 -20 -44 -45z"/>
<path d="M13367 19026 c-37 -41 -67 -78 -67 -83 0 -4 22 -8 48 -8 48 0 50 -1
158 -104 175 -167 246 -211 310 -195 122 30 259 157 226 211 -4 7 -19 -7 -37
-38 -37 -59 -103 -99 -165 -99 -45 0 -93 28 -181 106 -27 24 -54 44 -60 44 -6
0 -37 25 -70 57 -52 49 -59 61 -59 94 0 42 -15 89 -28 89 -5 0 -39 -33 -75
-74z"/>
<path d="M24734 18985 c-3 -8 -3 -19 1 -25 4 -6 2 -16 -3 -23 -5 -7 -13 -30
-17 -52 -4 -22 -11 -45 -16 -51 -5 -7 -9 -16 -8 -20 3 -12 -22 -96 -33 -110
-5 -6 -14 -49 -20 -95 -8 -57 -20 -97 -37 -124 -14 -22 -34 -56 -44 -77 -10
-20 -43 -60 -73 -90 -30 -29 -65 -71 -78 -93 -14 -22 -92 -107 -175 -188 -87
-84 -151 -155 -151 -165 0 -20 -29 -52 -48 -52 -10 0 -61 -42 -266 -217 -129
-111 -256 -239 -256 -259 0 -19 -47 -74 -63 -74 -5 0 -29 -18 -54 -40 -25 -22
-55 -40 -65 -40 -11 0 -39 -19 -62 -42 -72 -72 -208 -192 -238 -211 -16 -9
-31 -25 -35 -35 -7 -20 -124 -142 -136 -142 -5 0 -36 -25 -70 -55 -35 -32 -76
-59 -98 -65 -20 -6 -42 -17 -49 -25 -7 -8 -19 -15 -26 -15 -8 0 -14 -6 -14
-13 0 -15 -131 -147 -146 -147 -14 0 -64 -53 -64 -68 0 -6 -10 -17 -22 -23
-13 -6 -68 -55 -123 -108 -55 -53 -120 -106 -145 -119 -25 -13 -67 -43 -93
-67 -26 -25 -53 -45 -61 -45 -17 0 -111 -99 -120 -127 -4 -12 -22 -28 -40 -37
-19 -9 -77 -54 -130 -101 -52 -47 -98 -85 -102 -85 -3 0 -31 -23 -61 -50 -30
-28 -79 -62 -109 -76 -30 -14 -62 -37 -72 -52 -22 -35 -134 -142 -147 -142 -5
0 -30 -20 -55 -45 -25 -24 -79 -72 -120 -105 -41 -33 -97 -80 -124 -103 -27
-23 -65 -53 -85 -68 -64 -48 -451 -456 -451 -475 0 -4 -31 -40 -70 -80 -40
-41 -70 -81 -70 -92 0 -12 -4 -23 -9 -26 -4 -3 -11 -24 -15 -47 -4 -22 -15
-57 -25 -78 -34 -66 -50 -106 -56 -136 -4 -16 -9 -37 -12 -45 -4 -8 -7 -19 -8
-25 -1 -9 -12 -37 -32 -85 -3 -8 -7 -17 -8 -20 -10 -29 -19 -50 -32 -77 -8
-17 -12 -36 -9 -41 4 -6 2 -13 -2 -16 -5 -3 -12 -31 -16 -63 -4 -31 -12 -63
-17 -70 -6 -7 -9 -22 -6 -33 3 -11 2 -22 -3 -25 -4 -2 -10 -32 -14 -64 -4 -33
-11 -63 -16 -66 -5 -3 -9 -13 -9 -23 -1 -40 -22 -169 -30 -187 -6 -11 -15 -74
-21 -140 -7 -66 -16 -129 -20 -140 -5 -11 -14 -67 -21 -125 -6 -58 -16 -110
-21 -117 -5 -7 -9 -34 -8 -60 2 -26 0 -55 -3 -63 -3 -8 -8 -53 -12 -99 -3 -47
-10 -90 -16 -97 -5 -6 -12 -36 -15 -65 -6 -60 -22 -109 -35 -109 -5 0 -9 -4
-9 -9 0 -5 -14 -24 -31 -42 -17 -18 -35 -43 -40 -56 -7 -19 -14 -22 -59 -18
-27 1 -52 -1 -55 -5 -3 -4 -40 -11 -82 -15 -43 -4 -82 -10 -88 -13 -5 -4 -116
-7 -245 -8 -129 -1 -242 -5 -250 -7 -8 -3 -190 -8 -404 -12 -214 -3 -394 -9
-400 -13 -6 -4 -22 -7 -36 -8 -14 0 -30 -3 -35 -6 -6 -3 -28 -9 -50 -13 -22
-4 -45 -11 -52 -17 -6 -5 -20 -8 -30 -7 -10 1 -31 -3 -46 -9 -16 -7 -34 -12
-42 -12 -8 0 -17 -4 -20 -10 -3 -5 -16 -10 -27 -10 -20 0 -168 -135 -168 -154
0 -5 -20 -31 -45 -57 -25 -26 -45 -55 -45 -63 0 -8 -8 -29 -17 -48 -32 -64
-34 -69 -27 -79 3 -5 0 -16 -6 -24 -8 -10 -12 -68 -11 -190 1 -184 7 -211 46
-217 20 -3 96 44 130 81 10 12 22 21 28 21 5 0 29 18 54 40 44 38 94 60 140
60 12 0 25 5 28 10 4 6 107 10 273 11 653 3 1359 31 1408 57 11 5 34 8 53 6
23 -2 49 6 78 23 24 14 60 29 81 34 41 9 113 41 153 67 14 9 47 31 74 47 26
17 67 44 91 62 24 18 60 41 82 52 42 21 102 83 126 130 9 16 29 44 46 62 16
18 39 51 50 74 11 22 24 47 28 55 5 8 17 31 27 50 90 175 103 209 109 293 3
43 10 86 15 95 5 9 12 58 16 107 4 50 11 95 17 102 5 7 7 17 3 23 -4 6 -2 16
3 23 5 7 13 51 17 99 4 49 11 91 17 94 5 3 8 23 7 43 -2 20 0 41 3 46 3 6 9
45 13 88 4 42 11 79 15 82 4 2 6 17 4 32 -1 15 1 32 6 38 4 5 11 38 15 73 4
34 11 65 16 68 5 3 9 20 9 37 0 43 20 177 31 202 4 11 14 58 20 105 6 47 16
90 21 97 5 6 8 20 7 30 -3 23 21 103 36 123 7 8 25 42 41 75 16 33 46 82 67
108 20 27 37 54 37 61 0 19 191 213 231 235 20 10 45 24 55 29 11 6 27 13 37
16 9 3 20 14 24 23 11 30 104 132 127 139 11 3 53 36 91 73 91 88 190 171 203
171 5 0 19 16 31 35 11 19 27 35 35 35 16 0 156 112 169 136 5 8 25 25 45 38
31 19 156 128 237 206 12 11 27 20 34 20 7 0 52 40 100 89 47 49 104 98 126
109 22 11 60 41 85 67 25 26 79 75 120 108 41 34 77 65 79 70 1 4 21 19 42 33
21 13 39 31 39 39 0 8 15 21 33 29 34 14 157 142 157 163 0 6 8 14 19 18 10 3
26 14 36 25 10 11 24 20 32 20 8 0 21 7 30 15 8 8 18 13 23 10 4 -2 53 39 108
93 108 105 128 122 137 122 18 0 106 87 122 120 18 38 117 120 193 160 19 11
79 62 132 114 54 52 123 114 153 136 31 23 64 58 75 79 26 53 196 206 267 243
32 16 68 42 81 56 12 15 26 30 30 33 76 68 163 156 167 170 3 10 41 47 83 83
119 100 294 276 327 330 17 26 42 71 57 99 15 28 35 58 43 67 8 9 15 20 15 25
0 5 7 17 16 26 14 16 17 52 17 273 0 194 -3 259 -13 270 -7 9 -9 16 -4 16 4 0
3 5 -4 12 -7 7 -12 19 -12 26 0 8 -16 34 -35 58 -19 23 -35 47 -35 53 0 6 -4
11 -9 11 -4 0 -26 12 -47 27 -21 14 -73 44 -114 66 -41 22 -89 50 -107 63 -36
27 -61 31 -69 9z"/>
<path d="M23888 18956 c-21 -8 -48 -21 -61 -29 -13 -9 -42 -18 -63 -22 -71
-11 -85 -15 -80 -24 3 -4 24 -8 46 -9 57 -3 63 -8 55 -50 -12 -62 -52 -131
-82 -138 -22 -6 -33 0 -76 45 -43 46 -49 56 -43 83 l6 31 -57 -6 c-32 -4 -85
-16 -118 -27 -42 -15 -76 -20 -112 -17 -29 2 -53 0 -53 -5 0 -6 18 -28 39 -51
22 -23 53 -58 69 -77 35 -41 51 -36 28 9 -15 27 -15 34 0 69 13 33 22 42 62
55 37 11 53 12 74 3 26 -11 98 -89 98 -107 0 -5 14 -16 31 -25 29 -15 31 -19
26 -60 -7 -65 -39 -104 -133 -160 -16 -9 -11 -17 43 -72 34 -34 64 -62 67 -62
3 0 6 15 6 34 0 20 19 72 49 132 28 55 79 160 116 234 36 74 78 153 94 175 53
72 42 97 -31 71z"/>
<path d="M13096 18764 c-3 -9 -6 -22 -6 -29 0 -7 -12 -27 -27 -44 -62 -68 -95
-112 -90 -118 4 -3 24 6 46 20 l40 26 59 -39 c32 -22 78 -57 102 -78 55 -49
51 -66 -30 -147 -33 -33 -69 -77 -80 -97 -26 -49 -52 -49 -124 -3 -66 42 -101
93 -92 136 3 16 1 29 -4 29 -6 0 -10 -4 -10 -8 0 -13 -102 -117 -127 -131 -13
-6 -23 -16 -23 -21 0 -17 36 -11 60 10 13 11 26 20 31 20 11 0 105 -76 121
-98 16 -22 116 -104 167 -136 61 -39 151 -132 151 -155 0 -21 1 -22 24 -4 14
10 36 39 50 64 14 26 33 52 41 59 16 13 20 40 6 40 -4 0 -20 -9 -35 -21 -15
-11 -32 -19 -39 -16 -22 8 -217 158 -217 167 0 11 57 84 110 140 25 26 55 59
67 74 24 29 33 28 102 -19 58 -39 110 -92 122 -123 l10 -25 30 29 c56 53 115
156 67 116 -36 -29 -96 -14 -132 33 -15 19 -57 55 -94 80 -121 81 -176 124
-216 166 -35 37 -38 44 -32 80 5 30 3 39 -8 39 -8 0 -17 -7 -20 -16z"/>
<path d="M12645 17645 c-40 -54 -70 -123 -60 -134 3 -3 22 4 42 14 57 31 81
29 103 -8 11 -18 20 -39 20 -48 0 -9 9 -24 20 -34 20 -18 20 -17 20 10 0 15
-10 40 -22 56 -13 16 -33 42 -46 58 -14 18 -25 52 -30 85 l-7 56 -40 -55z"/>
<path d="M12350 17537 c-41 -10 -67 -31 -76 -61 -3 -11 -13 -36 -21 -53 -27
-58 7 -147 67 -178 26 -14 40 -14 86 -5 70 15 84 9 84 -33 0 -35 40 -107 81
-147 67 -63 145 -62 216 3 63 58 73 82 73 182 l0 85 33 16 c43 22 102 100 110
147 3 20 2 37 -2 37 -13 0 -31 -26 -36 -49 -2 -12 -7 -26 -10 -31 -12 -20 -65
-40 -107 -41 -24 -1 -53 -8 -66 -16 -28 -17 -147 -48 -219 -57 l-53 -7 -1 36
c-1 19 -2 38 -3 43 -13 56 -54 111 -95 128 -17 7 -38 7 -61 1z m83 -72 c20
-20 39 -47 42 -60 3 -14 7 -36 10 -49 7 -32 -4 -38 -75 -37 -70 0 -94 11 -115
51 -38 73 -6 123 81 129 12 0 37 -14 57 -34z m397 -171 c23 -60 -12 -130 -83
-164 -67 -33 -83 -30 -199 40 -27 15 -38 29 -38 46 0 30 23 42 96 50 32 4 87
18 123 30 83 30 89 30 101 -2z"/>
<path d="M25220 17300 c-13 -18 -20 -39 -17 -50 3 -11 1 -22 -3 -25 -5 -3 -12
-34 -15 -70 -4 -36 -11 -68 -16 -71 -5 -3 -9 -20 -9 -37 0 -18 -7 -43 -15 -57
-8 -14 -19 -36 -25 -48 -5 -13 -27 -44 -48 -69 -20 -25 -41 -56 -47 -69 -16
-36 -143 -164 -163 -164 -19 0 -72 -49 -72 -66 0 -14 -43 -54 -58 -54 -6 0
-24 -19 -38 -42 -15 -23 -95 -108 -178 -189 -125 -123 -158 -150 -196 -160
-38 -11 -73 -41 -236 -200 -105 -102 -204 -195 -220 -205 -16 -10 -67 -53
-114 -95 -47 -41 -107 -86 -133 -99 -46 -21 -127 -110 -127 -138 0 -6 -10 -17
-22 -23 -32 -17 -164 -128 -218 -183 -24 -25 -49 -46 -55 -46 -6 0 -27 -16
-46 -36 -18 -20 -57 -54 -86 -75 -29 -22 -78 -65 -110 -97 -32 -32 -71 -66
-88 -76 -16 -10 -50 -38 -75 -62 -139 -135 -224 -214 -232 -214 -4 0 -53 -40
-107 -90 -55 -49 -102 -90 -104 -90 -8 0 -75 -61 -235 -210 -79 -74 -153 -137
-165 -138 -25 -4 -43 -25 -59 -65 -6 -16 -27 -39 -47 -52 -87 -58 -132 -93
-173 -133 -24 -23 -91 -88 -150 -145 -59 -56 -108 -106 -108 -111 0 -5 -15
-27 -33 -50 -61 -74 -97 -168 -118 -306 -7 -47 -16 -89 -20 -95 -4 -5 -12 -53
-19 -105 -7 -52 -16 -99 -20 -105 -4 -5 -13 -44 -20 -85 -7 -41 -16 -79 -20
-85 -4 -5 -11 -44 -15 -85 -4 -41 -10 -79 -13 -85 -3 -5 -5 -25 -3 -43 1 -18
-2 -38 -7 -45 -5 -7 -13 -50 -17 -97 -4 -47 -10 -89 -13 -95 -9 -15 -9 -85 0
-91 4 -3 8 -13 8 -22 0 -9 7 -30 15 -46 8 -15 13 -32 10 -36 -3 -5 -1 -11 5
-15 5 -3 10 -13 10 -22 0 -8 15 -33 34 -55 46 -53 57 -124 30 -199 -10 -28
-30 -61 -44 -73 -38 -32 -115 -135 -143 -191 -14 -27 -34 -59 -46 -69 -12 -11
-21 -26 -21 -35 0 -9 -6 -28 -14 -42 -7 -14 -19 -49 -26 -78 -6 -28 -16 -54
-21 -57 -13 -8 -10 -56 4 -75 7 -9 35 -19 62 -23 28 -5 56 -13 64 -19 9 -8 59
-11 149 -10 l135 1 -7 -60 c-3 -34 -10 -66 -15 -72 -13 -16 -36 -160 -28 -179
4 -10 15 -17 25 -17 11 0 25 -6 32 -14 6 -8 25 -16 42 -18 41 -4 44 -19 13
-56 -30 -36 -34 -91 -7 -115 10 -9 43 -18 77 -21 33 -2 61 -5 63 -5 1 -1 2 -9
2 -20 0 -10 7 -24 15 -31 17 -14 21 -115 5 -125 -19 -11 -11 -118 13 -178 31
-78 109 -167 147 -167 16 0 32 -4 35 -10 8 -13 151 -13 174 0 12 6 29 5 50 -3
23 -8 36 -9 49 -1 10 7 72 17 138 24 97 11 152 11 275 2 84 -7 158 -17 163
-22 6 -6 28 -10 49 -10 90 0 213 -124 225 -226 2 -25 9 -47 13 -50 12 -7 12
-91 0 -98 -5 -3 -12 -31 -16 -61 -6 -50 -11 -58 -53 -92 -25 -21 -71 -62 -100
-91 -30 -29 -75 -68 -101 -85 -79 -53 -165 -120 -186 -147 -11 -14 -31 -34
-44 -45 -13 -11 -57 -51 -97 -88 -41 -37 -89 -74 -108 -82 -30 -13 -96 -81
-96 -100 0 -4 -11 -20 -25 -37 -14 -16 -25 -35 -25 -41 0 -7 -9 -23 -20 -37
-11 -14 -20 -35 -20 -47 0 -12 -5 -25 -11 -28 -6 -4 -9 -26 -8 -49 1 -22 -1
-48 -4 -56 -12 -32 -14 -100 -6 -141 5 -24 11 -51 13 -59 3 -16 12 -42 28 -80
6 -14 12 -29 12 -35 5 -50 164 -232 230 -264 24 -11 47 -25 51 -30 3 -6 29
-22 58 -37 47 -24 66 -27 192 -32 151 -5 283 8 330 32 17 9 35 16 42 16 14 0
172 81 210 108 15 11 48 30 72 43 71 39 71 39 204 158 141 125 153 147 77 144
-57 -2 -179 -30 -197 -45 -8 -6 -59 -12 -117 -14 -93 -2 -108 0 -151 22 -34
17 -65 24 -105 24 -54 0 -59 2 -106 48 -92 87 -134 147 -146 204 -16 77 -22
268 -9 281 6 6 11 19 11 29 0 10 7 29 15 42 9 13 15 28 14 32 -3 20 14 54 27
54 8 0 18 10 23 23 10 24 76 92 109 111 11 6 45 31 77 56 63 50 108 85 187
147 29 23 89 60 133 83 44 22 95 52 113 65 58 42 182 164 182 179 0 8 4 17 9
20 4 3 11 21 14 39 3 19 15 56 27 83 19 41 22 61 18 140 -2 50 -9 98 -15 105
-6 8 -16 34 -23 59 -15 54 -50 130 -61 130 -4 0 -14 6 -21 13 -24 22 -72 45
-111 52 -20 4 -39 11 -42 15 -3 5 -14 6 -24 3 -11 -3 -30 2 -43 11 -29 21
-203 23 -227 3 -22 -19 -91 -37 -139 -37 -22 0 -43 -4 -46 -9 -4 -5 -28 -9
-54 -8 -27 0 -53 -2 -59 -6 -28 -18 -259 -8 -308 13 -11 5 -38 14 -60 21 -27
8 -63 34 -108 80 l-69 68 5 53 c5 60 8 71 27 112 14 27 13 30 -16 55 -17 14
-45 34 -62 43 -36 19 -72 72 -72 105 0 16 10 27 33 37 17 8 41 22 52 31 28 23
10 31 -87 38 -64 5 -86 11 -105 29 -26 25 -30 71 -9 129 24 67 -18 107 -129
126 -72 12 -161 39 -182 56 -8 5 -13 32 -13 65 0 45 6 66 36 116 37 65 75 121
97 146 30 34 77 98 77 106 0 4 8 16 18 27 14 16 17 38 16 132 0 109 -2 116
-29 156 -16 22 -35 43 -41 46 -7 2 -22 28 -34 56 -20 45 -22 62 -16 136 3 46
10 89 15 95 5 6 15 58 21 116 7 58 18 119 25 135 7 17 16 55 19 85 4 30 11 59
16 65 12 15 30 121 30 177 0 27 4 56 8 66 5 9 18 37 29 62 11 25 33 74 49 110
32 72 62 106 120 135 59 29 124 85 289 248 82 82 160 153 173 158 12 5 25 17
29 26 8 23 44 63 56 63 24 0 88 39 147 89 35 31 138 129 228 219 90 89 168
162 172 162 5 0 37 25 72 56 35 30 88 70 118 87 30 18 76 54 102 82 175 184
364 357 471 429 63 42 140 109 220 188 122 123 230 220 277 250 14 8 52 40 86
69 33 30 72 61 85 69 28 18 98 88 153 154 21 25 43 46 48 46 12 0 228 192 287
254 24 26 60 58 80 72 79 54 101 73 153 134 29 34 60 73 68 85 8 13 37 48 63
78 47 54 150 227 176 297 7 19 20 50 28 69 11 24 14 57 11 116 -4 70 -10 93
-44 161 -21 43 -45 83 -51 87 -7 4 -13 13 -13 20 0 7 -16 22 -35 35 -19 12
-35 27 -35 32 0 5 -28 24 -62 41 -35 17 -76 42 -91 55 -16 13 -36 24 -46 24
-9 0 -22 5 -28 11 -7 7 -17 2 -33 -21z"/>
<path d="M11945 16713 c-3 -16 -20 -49 -37 -76 -39 -62 -27 -105 17 -57 21 23
53 25 98 7 18 -8 50 -17 72 -21 59 -11 85 -31 85 -66 0 -40 -35 -168 -64 -239
-30 -69 -44 -72 -153 -36 -115 40 -122 46 -116 97 4 40 3 42 -11 24 -10 -13
-16 -40 -16 -72 0 -43 -5 -58 -25 -80 -33 -35 -20 -49 31 -35 30 8 49 7 83 -5
25 -8 83 -20 130 -26 95 -11 223 -48 276 -79 25 -15 38 -32 45 -59 16 -61 25
-54 25 20 0 57 4 72 23 92 20 22 29 48 17 48 -3 0 -19 -10 -35 -21 -22 -17
-37 -20 -62 -16 -44 9 -180 50 -195 60 -20 12 -15 55 7 79 11 12 20 30 20 40
0 9 9 40 20 68 11 28 18 61 15 73 -4 13 -1 35 4 50 14 36 53 36 151 -2 95 -37
130 -67 130 -112 1 -32 2 -33 15 -15 8 10 19 42 25 71 6 29 20 70 30 91 11 21
20 46 20 56 0 30 -19 20 -28 -14 -8 -31 -11 -33 -45 -30 -20 2 -60 13 -89 24
-131 50 -232 78 -297 83 -83 6 -115 23 -133 71 -15 41 -24 43 -33 7z"/>
<path d="M11727 15933 c-15 -17 -23 -54 -47 -213 -14 -94 -50 -260 -62 -282
-19 -38 23 -67 103 -71 55 -3 60 20 10 45 -58 29 -65 42 -64 110 3 78 14 89
83 76 28 -5 69 -16 93 -25 31 -12 88 -18 220 -21 l177 -4 0 -41 c0 -23 4 -48
9 -56 14 -23 31 -2 31 38 0 21 6 44 14 50 8 7 17 26 20 42 3 16 9 43 12 59 7
36 -12 41 -27 7 -6 -13 -24 -31 -40 -41 -31 -19 -68 -17 -179 9 -21 5 -125 25
-171 33 -106 19 -198 51 -210 74 -18 34 44 148 81 148 9 0 27 12 41 26 24 25
24 26 5 40 -27 19 -80 18 -99 -3z"/>
<path d="M25593 15633 c-10 -14 -38 -47 -61 -72 -24 -25 -51 -59 -59 -76 -17
-34 -445 -465 -462 -465 -6 0 -30 -14 -53 -30 -24 -17 -61 -42 -83 -57 -22
-14 -63 -49 -91 -77 -28 -28 -70 -66 -93 -85 -23 -18 -47 -44 -53 -56 -16 -36
-237 -227 -296 -256 -62 -31 -217 -164 -273 -233 -43 -54 -164 -165 -219 -201
-19 -12 -46 -35 -60 -50 -36 -39 -115 -95 -134 -95 -15 0 -74 -54 -157 -145
-44 -48 -134 -125 -146 -125 -5 0 -31 -23 -58 -51 -66 -68 -215 -193 -251
-212 -16 -8 -37 -23 -46 -34 -22 -24 -125 -230 -134 -268 -4 -16 -10 -34 -14
-40 -4 -5 -13 -39 -20 -75 -7 -36 -17 -69 -21 -74 -5 -6 -9 -21 -9 -33 0 -13
-7 -37 -15 -52 -8 -16 -11 -31 -8 -34 3 -4 1 -13 -6 -20 -6 -8 -16 -52 -22
-98 -5 -46 -14 -88 -18 -94 -15 -18 -21 -107 -15 -188 6 -72 10 -81 41 -110
19 -18 40 -45 48 -61 17 -33 20 -102 5 -111 -5 -3 -10 -15 -10 -25 0 -10 -10
-31 -22 -47 -13 -15 -31 -46 -42 -68 -10 -22 -22 -48 -27 -57 -5 -10 -13 -26
-18 -35 -59 -116 -77 -208 -45 -234 10 -8 47 -14 98 -15 105 -3 187 -14 205
-28 11 -8 12 -31 7 -108 l-6 -97 32 -15 c18 -8 42 -14 53 -13 15 1 21 -5 23
-27 2 -16 -1 -33 -7 -39 -6 -6 -11 -30 -11 -54 0 -50 17 -62 86 -57 35 2 43
-1 54 -21 14 -27 8 -121 -10 -139 -26 -26 8 -134 61 -191 29 -33 115 -75 165
-82 24 -3 47 -10 50 -14 7 -12 111 -11 119 1 3 6 32 10 63 11 57 0 158 18 178
31 5 4 41 12 80 19 38 6 74 15 79 19 6 4 26 11 45 15 30 6 93 29 185 66 20 8
93 32 108 35 4 1 8 3 10 4 5 5 164 30 208 33 25 2 50 7 57 11 7 4 17 4 24 0 7
-4 24 -8 38 -9 14 -1 38 -7 53 -13 16 -7 38 -12 51 -12 12 0 31 -7 42 -15 10
-8 30 -15 42 -15 13 0 36 -6 50 -14 66 -34 236 -106 252 -106 7 0 33 -17 59
-38 25 -22 60 -42 76 -46 28 -6 78 -28 148 -63 15 -8 60 -19 100 -25 96 -14
606 -22 632 -9 11 5 37 12 58 16 20 3 45 14 55 24 26 28 111 91 122 91 16 0
300 282 317 315 9 17 41 58 71 93 39 44 61 62 79 62 18 0 24 5 21 18 -4 19
-11 20 -273 2 -171 -11 -438 -5 -468 12 -11 5 -49 14 -85 19 -36 5 -70 13 -76
17 -6 5 -42 14 -80 22 -38 7 -81 19 -95 26 -14 8 -33 14 -41 14 -9 0 -25 6
-36 14 -11 8 -49 20 -84 27 -36 6 -70 16 -76 21 -7 5 -25 8 -40 8 -16 0 -54 4
-84 9 -76 13 -362 13 -435 0 -33 -6 -67 -11 -75 -11 -8 0 -19 -4 -25 -8 -5 -5
-37 -11 -70 -15 -33 -4 -71 -13 -85 -20 -14 -7 -61 -28 -105 -46 -44 -19 -91
-41 -104 -51 -13 -10 -29 -18 -35 -18 -7 0 -43 -16 -81 -36 -46 -24 -77 -34
-94 -31 -29 6 -102 -8 -140 -26 -34 -17 -246 -16 -263 1 -6 6 -22 12 -34 12
-29 0 -64 49 -64 89 0 17 -9 51 -20 75 l-21 43 -65 6 c-36 4 -69 9 -74 12 -12
8 -13 82 -1 89 10 7 9 56 -2 74 -5 7 -29 12 -56 12 -26 0 -52 5 -59 12 -14 14
-16 94 -2 103 6 3 10 12 10 18 -1 29 -32 49 -102 67 -96 24 -124 35 -131 54
-8 20 8 108 24 139 7 12 12 23 11 24 -1 2 10 28 24 59 34 75 39 149 25 405
-10 166 -10 231 0 285 13 80 19 94 70 154 20 25 44 61 52 81 19 45 139 174
220 235 33 25 78 65 100 90 22 25 50 50 61 55 89 41 153 82 182 119 19 24 34
48 34 55 0 15 65 75 81 75 5 0 54 42 107 94 53 51 108 99 122 106 14 7 46 31
71 52 25 21 48 38 52 38 3 0 17 10 29 23 13 12 45 40 71 62 26 22 47 46 47 53
0 7 11 17 24 22 13 5 55 40 94 79 39 39 75 71 81 71 6 0 48 36 93 80 45 44 84
80 87 80 4 0 45 35 91 78 47 44 100 86 118 96 17 9 32 23 32 31 0 8 4 15 9 15
11 0 164 121 175 139 5 8 40 48 78 89 109 117 178 209 185 244 3 18 10 38 15
45 13 17 12 283 -1 296 -6 6 -11 31 -11 55 0 25 -5 63 -12 86 -11 40 -101 166
-118 166 -5 0 -17 -12 -27 -27z"/>
<path d="M12067 15214 c-13 -14 -7 -22 43 -54 28 -18 57 -44 64 -59 36 -70 30
-169 -13 -209 -23 -22 -32 -23 -81 -18 -77 10 -129 14 -252 21 -120 6 -190 24
-224 56 l-23 21 -16 -38 c-24 -57 -27 -84 -17 -131 6 -28 6 -45 -1 -52 -6 -6
-7 -14 -3 -18 11 -11 36 26 36 53 0 13 5 26 11 30 18 11 154 5 269 -12 58 -9
139 -17 180 -19 41 -2 81 -4 87 -4 7 -1 21 -17 31 -37 33 -64 41 -23 58 303
l7 132 -35 14 c-45 19 -111 30 -121 21z"/>
<path d="M12127 14534 c-48 -55 -76 -69 -152 -78 -58 -7 -155 -45 -305 -121
-36 -18 -80 -36 -97 -40 -18 -3 -36 -11 -39 -17 -8 -12 43 -58 63 -58 7 0 46
-16 89 -35 42 -19 83 -35 90 -35 8 0 51 -20 96 -44 46 -24 117 -53 158 -66 56
-16 83 -31 108 -57 18 -20 36 -33 39 -29 4 3 7 46 7 96 1 96 -13 119 -34 56
-12 -39 -49 -60 -82 -47 -13 5 -42 14 -66 20 -60 17 -79 48 -64 109 9 33 9 57
2 82 -23 78 -19 84 82 134 102 51 108 53 108 31 0 -25 30 -76 40 -70 12 7 13
184 2 201 -4 8 -20 -4 -45 -32z m-209 -260 c6 -39 6 -68 -2 -94 -15 -52 -21
-56 -51 -36 -14 9 -58 28 -97 41 -108 37 -108 50 -2 111 41 23 72 33 101 34
l41 0 10 -56z"/>
<path d="M12160 13900 c0 -25 -13 -31 -81 -33 -40 -2 -54 -6 -54 -17 0 -8 9
-17 20 -20 11 -3 43 -17 72 -33 47 -24 54 -32 68 -79 9 -29 19 -85 22 -124 5
-64 3 -73 -16 -91 -30 -27 -128 -53 -205 -53 -71 0 -82 8 -92 61 -4 19 -11 42
-16 52 -7 14 1 28 41 69 28 28 49 54 46 56 -8 8 -175 -20 -182 -31 -3 -6 10
-25 31 -43 31 -27 38 -41 48 -94 10 -57 9 -65 -7 -76 -42 -31 -208 -31 -230
-1 -17 23 -28 177 -16 210 6 15 28 39 50 54 22 16 40 32 41 36 0 14 -41 23
-83 18 l-42 -6 -3 -97 c-2 -66 3 -117 14 -160 15 -56 17 -80 15 -167 -1 -25
15 -51 31 -51 5 0 14 13 19 30 13 35 20 36 189 44 63 3 133 10 155 16 22 5 70
12 106 16 55 4 74 2 107 -15 l40 -20 4 22 c2 12 -1 54 -8 92 -7 39 -20 135
-29 215 -9 80 -21 153 -26 162 -5 10 -9 31 -9 48 0 16 -4 30 -10 30 -5 0 -10
-9 -10 -20z"/>
<path d="M12249 13109 c-13 -33 -59 -59 -101 -59 -13 0 -43 -6 -68 -14 -25 -8
-83 -24 -130 -36 -47 -11 -111 -28 -143 -37 -67 -18 -101 -9 -117 32 -17 44
-23 27 -16 -41 6 -58 46 -164 62 -164 3 0 12 16 20 35 18 43 52 61 138 73 63
8 69 7 82 -13 7 -11 17 -37 20 -56 4 -18 15 -62 26 -96 11 -34 18 -77 16 -95
-3 -30 -9 -35 -58 -56 -72 -30 -159 -26 -197 10 l-26 23 6 -30 c21 -116 43
-158 70 -138 13 11 16 12 162 49 55 14 134 36 175 49 145 45 213 45 224 0 4
-14 11 -25 16 -25 14 0 13 9 -10 76 -12 32 -20 73 -19 89 2 55 -2 60 -19 25
-10 -20 -27 -38 -42 -42 -14 -4 -55 -16 -91 -27 -36 -12 -86 -21 -111 -21
l-47 0 -11 58 c-6 31 -14 71 -17 87 -3 17 -9 35 -13 40 -9 11 -41 98 -37 101
23 15 130 55 172 64 74 15 116 7 153 -31 l30 -31 -9 43 c-6 23 -13 47 -16 52
-3 6 -7 26 -9 46 -4 47 -23 91 -39 91 -7 0 -18 -14 -26 -31z"/>
<path d="M12038 11923 c-56 -25 -70 -45 -50 -68 5 -6 14 -35 22 -65 7 -30 29
-80 49 -110 42 -65 55 -93 82 -177 12 -35 24 -63 29 -63 5 0 11 18 15 40 8 46
31 66 131 111 37 17 83 41 103 53 43 27 110 44 258 65 29 4 56 10 59 13 3 4
-2 20 -10 37 -9 16 -16 36 -16 44 0 8 -6 20 -14 27 -8 6 -16 27 -18 46 -4 49
-22 43 -26 -8 -4 -53 -19 -70 -85 -97 -29 -12 -59 -25 -67 -30 -9 -5 -36 -12
-60 -16 -25 -4 -52 -13 -60 -20 -16 -15 -174 -69 -227 -78 -27 -5 -36 -2 -57
24 -33 39 -60 129 -51 172 4 17 18 44 32 58 14 16 23 36 21 48 -3 20 -4 20
-60 -6z"/>
<path d="M12340 11930 c-25 -10 -60 -24 -78 -31 -38 -14 -37 -28 4 -49 16 -8
46 -25 67 -39 20 -13 39 -22 41 -20 3 3 15 161 12 158 -1 -1 -21 -9 -46 -19z"/>
<path d="M12670 11440 c-25 -4 -81 -25 -125 -46 -92 -45 -127 -86 -152 -179
-20 -79 -28 -175 -14 -175 6 0 11 14 11 30 0 39 24 98 53 128 53 58 217 152
301 173 39 10 53 9 89 -5 75 -30 113 -73 132 -151 32 -140 -48 -249 -232 -318
-154 -58 -217 -45 -306 62 -36 43 -44 34 -18 -18 56 -109 124 -147 263 -145
108 2 175 24 225 72 46 45 123 197 123 242 0 79 -35 155 -118 260 -45 57 -143
86 -232 70z"/>
<path d="M17025 10908 c-27 -5 -55 -14 -61 -19 -7 -6 -34 -16 -61 -22 -37 -9
-49 -17 -51 -34 -2 -12 -15 -33 -30 -48 -102 -97 -153 -153 -158 -175 -4 -14
-10 -29 -14 -35 -3 -5 -13 -30 -20 -55 -7 -25 -17 -50 -22 -56 -4 -6 -9 -55
-10 -110 l-3 -99 32 -3 c43 -4 69 11 89 54 17 36 49 64 78 68 9 1 29 15 46 31
l29 28 163 -7 c90 -4 173 -7 185 -7 12 1 25 -4 28 -9 3 -6 21 -10 38 -10 18 0
43 -7 55 -16 12 -8 27 -12 32 -9 5 3 20 -1 32 -9 12 -9 32 -16 45 -16 12 0 25
-5 28 -11 4 -6 13 -8 21 -5 7 3 16 1 18 -3 3 -5 26 -11 52 -15 26 -3 52 -10
58 -15 9 -8 100 -28 196 -44 9 -2 20 -6 25 -9 6 -3 28 -9 50 -13 22 -4 45 -11
50 -15 6 -4 32 -13 60 -19 27 -7 54 -16 60 -20 5 -5 34 -14 63 -21 28 -6 54
-16 57 -20 3 -5 24 -11 48 -15 23 -4 51 -13 62 -19 11 -7 47 -18 81 -25 33 -6
78 -20 99 -31 22 -11 52 -20 67 -20 15 0 29 -4 32 -9 3 -4 40 -11 81 -15 42
-4 88 -12 103 -18 27 -11 127 -41 193 -58 20 -5 73 -27 117 -48 77 -38 116
-53 137 -56 6 -1 24 -7 40 -13 17 -6 39 -15 50 -19 11 -4 22 -8 25 -9 12 -4
48 -19 87 -36 23 -11 47 -19 53 -19 7 0 24 -6 38 -13 15 -8 54 -27 87 -43 33
-16 67 -34 75 -40 8 -6 28 -14 45 -18 35 -9 105 -38 157 -66 20 -11 43 -20 50
-20 8 0 19 -5 26 -12 15 -15 80 -38 109 -38 12 0 24 -4 27 -9 3 -4 26 -11 51
-14 28 -3 55 -13 69 -26 12 -11 29 -21 37 -21 8 0 23 -6 34 -13 11 -7 36 -19
55 -26 19 -7 49 -19 65 -26 28 -13 62 -25 68 -24 1 0 40 -19 87 -43 47 -23 90
-43 95 -43 16 -2 69 -29 83 -42 7 -7 18 -13 23 -13 6 0 36 -24 67 -53 31 -30
65 -57 75 -60 10 -4 25 -21 35 -38 9 -17 29 -47 45 -66 29 -38 33 -73 17 -133
-32 -119 -43 -156 -49 -160 -3 -3 -17 -27 -31 -54 -14 -26 -47 -67 -74 -90
-26 -22 -76 -67 -110 -98 -35 -32 -65 -56 -68 -53 -3 3 -21 -10 -41 -30 -19
-19 -40 -35 -46 -35 -6 0 -11 -4 -11 -9 0 -5 -16 -26 -35 -47 -19 -20 -35 -39
-35 -41 0 -3 -20 -28 -45 -55 -25 -28 -45 -56 -45 -64 0 -7 -6 -17 -13 -21
-25 -16 -119 -172 -137 -228 -14 -45 -23 -68 -39 -108 -14 -35 -14 -189 0
-242 27 -107 72 -183 162 -281 79 -83 222 -194 252 -194 7 0 18 -7 25 -15 10
-12 48 -15 224 -15 117 0 216 4 222 8 5 5 29 14 54 21 25 7 59 18 75 26 55 25
179 81 235 106 30 13 81 38 113 56 66 37 145 73 155 71 18 -3 71 27 105 60 40
39 47 67 20 88 -21 15 -85 18 -98 5 -9 -9 -115 -32 -140 -31 -35 1 -228 30
-265 40 -116 29 -237 122 -313 240 -110 170 -121 196 -149 338 -11 56 -3 158
13 167 5 4 9 20 9 36 0 17 6 42 14 57 16 29 146 158 260 256 37 32 78 75 92
95 52 77 90 123 111 134 11 7 77 66 145 132 124 120 148 156 154 230 1 11 7
33 13 48 6 16 11 47 11 70 0 40 -15 67 -80 144 -5 7 -10 16 -10 21 0 22 -97
82 -133 82 -9 0 -28 11 -44 24 -15 13 -46 32 -68 44 -22 11 -53 34 -69 51 -17
17 -37 31 -47 31 -9 0 -19 7 -22 15 -4 8 -33 28 -66 44 -33 17 -63 36 -66 42
-6 9 -68 41 -85 44 -3 0 -35 15 -72 33 -37 17 -69 32 -72 32 -6 0 -173 77
-208 95 -14 8 -32 15 -40 15 -7 0 -40 11 -73 25 -33 13 -72 25 -87 25 -15 0
-37 4 -50 9 -13 5 -45 14 -73 20 -27 7 -95 33 -150 60 -55 26 -118 53 -140 60
-22 7 -49 16 -60 21 -75 30 -186 70 -198 70 -8 0 -28 7 -43 15 -16 8 -39 15
-52 15 -12 0 -41 12 -65 27 -23 14 -49 26 -57 26 -18 -1 -100 27 -117 40 -7 5
-13 6 -13 2 0 -4 -6 -3 -12 3 -7 6 -31 14 -53 18 -22 4 -49 13 -60 19 -11 7
-37 16 -59 20 -21 3 -46 10 -55 14 -25 13 -86 31 -103 31 -9 0 -21 7 -28 15
-7 8 -22 15 -34 15 -11 0 -33 6 -48 14 -34 18 -118 36 -168 36 -21 0 -42 5
-45 10 -3 6 -21 10 -38 10 -41 1 -120 22 -138 37 -8 6 -32 14 -54 18 -22 4
-44 11 -50 15 -5 4 -32 13 -60 20 -27 7 -54 16 -60 20 -5 3 -41 12 -80 20 -38
7 -74 16 -80 20 -5 5 -39 14 -75 20 -36 6 -69 15 -75 19 -5 5 -39 14 -75 21
-36 8 -76 20 -90 27 -14 7 -38 13 -55 13 -16 0 -42 7 -57 14 -17 9 -30 11 -34
5 -4 -6 -10 -7 -17 0 -7 5 -34 12 -62 16 -27 3 -57 9 -65 12 -8 3 -35 7 -60 8
-25 1 -52 4 -60 7 -25 10 -260 28 -340 27 -41 -1 -97 -6 -125 -11z"/>
<path d="M13450 10495 c0 -32 -8 -42 -119 -132 -221 -181 -335 -258 -365 -247
-34 13 -13 -21 48 -80 34 -33 81 -85 102 -114 50 -68 70 -73 134 -32 76 49 68
60 -42 60 -78 0 -95 3 -113 20 -37 34 -22 71 54 137 36 32 91 77 121 98 30 22
87 68 127 102 89 75 127 87 159 49 21 -23 44 -35 44 -21 0 3 -29 42 -65 88
-36 45 -65 88 -65 95 0 6 -4 12 -10 12 -5 0 -10 -16 -10 -35z"/>
<path d="M12896 10348 c-20 -28 -21 -108 -1 -134 22 -29 35 -1 33 71 -1 33 1
66 6 73 13 22 -22 13 -38 -10z"/>
<path d="M13795 10070 c-10 -11 -41 -33 -70 -49 -46 -26 -143 -122 -271 -269
-34 -38 -91 -52 -130 -32 -53 29 -34 -5 49 -87 49 -47 91 -82 94 -79 4 4 1 12
-5 18 -7 7 -12 42 -12 86 0 70 1 75 31 100 18 15 72 65 121 112 49 47 97 85
106 85 14 0 17 -11 16 -70 0 -38 -8 -110 -17 -160 -31 -171 -47 -290 -47 -345
1 -51 4 -59 50 -110 47 -52 73 -64 51 -22 -6 12 -11 47 -11 79 1 64 -9 53 127
149 62 44 87 68 155 152 50 61 63 72 81 66 25 -8 97 -13 97 -7 0 8 -122 123
-131 123 -11 0 -23 -46 -15 -58 16 -26 -23 -83 -118 -175 -100 -97 -142 -127
-178 -127 -13 0 -18 7 -18 30 0 36 34 266 55 370 8 42 15 98 15 125 0 28 4 65
9 83 11 38 -5 44 -34 12z"/>
<path d="M14252 9552 c-23 -20 -42 -42 -42 -48 0 -7 24 -10 68 -8 37 1 90 -2
117 -7 26 -5 50 -8 51 -6 6 6 -126 107 -139 107 -6 0 -31 -17 -55 -38z"/>
<path d="M14503 9432 c70 -75 66 -94 -41 -227 -66 -81 -88 -83 -152 -12 -23
27 -27 42 -29 115 -1 21 -6 32 -15 32 -8 0 -25 -15 -37 -32 -12 -18 -32 -44
-44 -58 -12 -14 -25 -37 -29 -52 -6 -26 -5 -26 37 -21 23 2 51 6 61 8 42 9
106 -49 106 -95 0 -26 -146 -180 -171 -180 -30 0 -23 -11 47 -74 44 -40 69
-55 76 -48 7 7 6 16 -1 30 -23 44 -13 75 40 127 74 73 182 202 219 263 36 59
54 72 102 72 l33 0 -45 37 c-25 21 -65 58 -90 84 -25 26 -61 55 -80 64 l-35
18 48 -51z"/>
<path d="M13996 9158 c-30 -45 -40 -88 -25 -103 81 -75 165 -145 177 -145 7 0
-12 23 -42 51 -61 55 -68 72 -70 157 -1 62 -16 76 -40 40z"/>
<path d="M14854 9135 c9 -13 16 -44 16 -68 0 -39 -7 -51 -68 -124 -38 -44 -86
-111 -106 -148 -53 -96 -85 -136 -127 -154 -42 -19 -39 -27 23 -73 50 -38 91
-37 138 5 21 17 73 57 116 87 44 30 102 73 129 96 40 34 112 74 131 74 11 0 0
-79 -37 -272 -22 -117 -38 -222 -34 -235 3 -15 25 -32 66 -53 34 -16 63 -30
66 -30 10 0 -9 95 -20 102 -14 9 -13 134 2 171 6 16 11 76 11 135 1 59 7 143
15 187 8 44 15 81 15 83 0 1 -7 2 -15 2 -9 0 -33 -16 -53 -36 -20 -20 -55 -44
-78 -54 -23 -10 -57 -32 -77 -50 -20 -17 -78 -63 -129 -101 -130 -97 -177 -91
-103 12 19 27 35 55 35 63 0 7 6 19 14 25 7 6 30 40 50 74 20 34 62 89 93 121
55 57 57 58 100 52 25 -3 43 -2 43 4 0 12 -37 36 -70 45 -14 4 -48 25 -76 46
-28 22 -59 39 -69 39 -16 0 -16 -2 -1 -25z"/>
<path d="M15310 8877 c0 -2 11 -18 25 -37 19 -26 23 -41 19 -69 -8 -53 -15
-73 -34 -101 -10 -14 -34 -56 -54 -93 -20 -38 -43 -75 -51 -83 -18 -18 -28
-55 -23 -81 3 -13 11 -5 33 32 84 147 168 274 187 287 33 21 78 30 92 19 7 -6
18 -6 25 -1 10 6 3 15 -27 34 -23 14 -45 26 -49 26 -5 0 -33 16 -63 35 -46 30
-80 43 -80 32z"/>
<path d="M15730 8636 c0 -8 14 -23 30 -33 24 -14 30 -24 30 -53 0 -19 -11 -55
-24 -80 -13 -25 -31 -70 -40 -101 -24 -85 -122 -286 -145 -298 -35 -19 -60
-12 -106 30 -41 38 -45 46 -45 88 0 54 -12 76 -34 68 -20 -8 -46 -66 -46 -100
0 -23 27 -57 45 -57 23 0 278 -129 350 -177 55 -36 89 -41 123 -17 22 15 52
73 52 101 0 20 -47 9 -75 -17 -30 -28 -73 -41 -112 -34 -51 10 -58 33 -38 128
21 102 40 155 84 231 19 33 45 83 58 110 36 76 38 79 68 94 23 11 32 11 54 0
14 -7 29 -15 34 -17 4 -2 7 3 7 10 0 12 -99 65 -215 115 -22 9 -43 19 -47 21
-5 2 -8 -3 -8 -12z"/>
<path d="M16190 8431 c0 -7 15 -26 34 -44 52 -49 72 -100 86 -220 15 -123 15
-122 -55 -132 -49 -8 -66 -20 -94 -65 -28 -46 -27 -107 2 -141 12 -15 56 -44
97 -66 68 -35 277 -123 293 -123 18 0 4 21 -23 35 -40 21 -40 65 -2 143 16 31
48 111 71 177 24 66 49 139 58 162 17 51 55 83 94 83 46 0 33 13 -34 36 -34
12 -87 30 -117 42 -30 11 -57 16 -58 11 -2 -5 8 -23 23 -41 23 -27 26 -38 21
-70 -9 -55 -64 -190 -84 -208 -11 -9 -18 -30 -18 -55 0 -45 -47 -170 -74 -199
-40 -42 -139 11 -158 83 -13 55 4 126 41 162 26 26 34 29 75 24 26 -3 58 -8
70 -11 13 -3 22 -1 20 3 -1 4 -19 42 -39 83 -20 41 -51 118 -68 170 -32 97
-65 144 -104 153 -12 2 -30 8 -39 12 -11 4 -18 3 -18 -4z"/>
<path d="M16860 8216 c0 -3 13 -25 30 -48 23 -34 33 -64 45 -138 8 -52 26
-165 40 -250 13 -85 27 -179 31 -208 11 -86 45 -80 98 18 l27 50 -25 26 c-38
41 -69 191 -45 220 22 26 179 -8 179 -39 0 -8 -22 -46 -50 -86 -49 -71 -62
-105 -37 -96 6 3 26 27 42 53 16 26 55 75 87 110 58 64 98 133 98 169 0 26 18
41 61 49 63 12 65 26 6 44 -74 23 -127 31 -127 19 0 -6 11 -25 24 -42 50 -67
-8 -177 -93 -177 -16 0 -32 4 -35 8 -3 5 -44 15 -91 22 -95 15 -99 18 -109 89
-8 61 10 125 40 141 13 8 24 16 24 20 0 4 -39 15 -87 24 -49 9 -98 20 -110 23
-13 3 -23 3 -23 -1z"/>
<path d="M19430 8029 c-106 -8 -211 -23 -283 -40 -39 -9 -60 -23 -108 -73 -33
-33 -73 -89 -90 -123 -27 -53 -30 -69 -25 -107 11 -71 48 -171 82 -218 56 -80
174 -117 314 -99 46 6 124 11 172 11 102 0 112 11 49 55 -52 35 -61 66 -61
196 0 65 -7 144 -19 201 -25 124 -20 145 36 170 24 10 41 23 38 29 -4 5 -7 8
-8 7 -1 -1 -45 -5 -97 -9z m-102 -48 c17 -10 41 -112 42 -176 0 -27 7 -104 15
-170 19 -153 19 -209 0 -225 -10 -9 -42 -11 -105 -8 -80 4 -95 7 -132 34 -66
46 -84 80 -98 189 -15 116 -8 207 20 269 18 36 30 48 63 61 84 31 170 43 195
26z"/>
<path d="M17830 8021 c0 -5 16 -19 35 -31 35 -22 35 -22 35 -95 0 -40 -3 -86
-6 -102 l-6 -30 -117 -5 c-132 -6 -162 -16 -210 -77 -69 -87 -61 -182 20 -240
56 -41 93 -51 229 -61 63 -5 124 -10 135 -12 15 -2 19 2 17 17 -17 104 -19
163 -12 319 5 100 12 195 17 211 5 17 23 39 41 50 17 11 31 23 32 26 0 7 -153
39 -187 39 -13 0 -23 -4 -23 -9z m29 -291 c11 0 13 -18 7 -102 -4 -57 -12
-128 -19 -158 -12 -53 -14 -55 -51 -61 -52 -9 -131 32 -158 81 -21 39 -20 112
2 162 17 37 139 91 185 82 11 -2 26 -4 34 -4z"/>
<path d="M18221 7982 c-9 -7 -14 -31 -14 -74 -1 -84 10 -102 33 -51 27 60 62
91 112 98 41 6 195 -9 207 -20 2 -3 7 -57 9 -119 4 -104 3 -115 -16 -134 -15
-15 -17 -22 -7 -26 19 -7 28 -93 20 -202 l-8 -96 -98 4 -99 4 -53 52 c-29 29
-56 49 -60 46 -12 -12 -8 -89 6 -107 10 -13 40 -17 177 -22 313 -12 310 -12
310 0 0 7 -12 15 -27 18 -60 13 -58 5 -61 276 -3 287 -1 299 67 320 23 6 41
16 41 21 0 13 -17 13 -25 0 -4 -6 -14 -8 -23 -6 -44 14 -474 29 -491 18z"/>
<path d="M18359 7749 c-16 -29 -16 -148 1 -178 11 -21 12 -20 47 21 38 46 68
67 96 68 31 0 8 20 -24 20 -29 0 -37 6 -83 64 l-23 30 -14 -25z"/>
<path d="M17612 5283 c-5 -10 -12 -52 -15 -93 -3 -41 -15 -102 -27 -135 -13
-35 -21 -82 -21 -117 0 -35 -10 -89 -24 -134 -13 -42 -29 -120 -35 -174 -6
-53 -19 -120 -30 -148 -13 -34 -19 -74 -19 -121 1 -70 -14 -132 -38 -162 -7
-8 -13 -39 -13 -67 0 -29 -11 -109 -24 -179 -14 -71 -28 -150 -33 -178 l-8
-50 -73 2 c-40 2 -83 8 -95 14 -57 31 -637 8 -714 -28 -17 -8 -47 -14 -65 -12
-44 3 -91 -8 -148 -37 -26 -13 -58 -24 -71 -24 -13 0 -48 -10 -79 -22 -61 -24
-296 -133 -320 -148 -8 -5 -46 -28 -85 -51 -38 -23 -88 -59 -110 -80 -22 -20
-51 -42 -65 -49 -46 -24 -184 -147 -237 -211 -29 -35 -79 -96 -112 -136 -139
-169 -307 -475 -368 -673 -11 -36 -32 -103 -47 -150 -57 -185 -71 -308 -71
-620 0 -253 2 -288 17 -310 10 -14 24 -58 33 -98 8 -40 21 -82 29 -95 8 -12
18 -40 22 -62 22 -125 187 -357 333 -469 92 -70 156 -112 190 -124 17 -6 44
-20 58 -32 17 -13 33 -18 49 -14 17 4 36 -2 62 -19 36 -24 44 -25 264 -32 170
-5 237 -3 270 6 23 7 48 14 53 14 6 1 30 7 55 15 25 7 61 14 80 16 19 1 42 11
50 22 9 10 34 25 55 32 22 7 47 18 55 25 8 8 29 17 45 21 17 4 32 10 35 13 7
8 88 61 94 61 16 0 126 83 126 95 0 8 10 19 23 25 12 7 63 54 113 106 108 112
134 121 134 47 0 -92 -22 -329 -34 -363 -7 -19 -9 -46 -6 -60 l6 -25 454 -5
c250 -3 459 -2 463 1 4 3 10 55 14 115 3 60 11 134 18 164 12 48 17 114 30
380 1 37 12 89 25 120 16 40 23 83 26 160 5 100 19 183 34 205 4 6 13 51 20
100 6 50 20 121 31 160 10 38 19 94 19 124 0 30 11 91 25 136 13 44 28 125 33
178 6 66 15 103 25 115 12 13 19 51 26 123 5 57 18 131 30 164 12 32 21 82 21
110 0 28 9 84 20 124 12 41 27 121 35 178 9 57 25 129 36 161 14 38 21 77 20
117 -1 38 6 81 19 119 11 33 25 100 30 148 6 49 22 132 35 186 14 53 23 102
21 109 -3 7 8 63 23 125 16 62 32 148 36 192 3 43 12 88 19 100 8 11 19 64 25
116 6 52 20 122 31 154 11 33 20 80 20 105 1 25 7 75 16 111 8 36 21 108 30
160 9 52 23 124 31 160 26 110 42 203 43 248 l0 42 -520 0 c-484 0 -520 -1
-528 -17z m-675 -2319 c61 -1 79 -6 111 -28 22 -15 53 -28 70 -31 74 -9 75 -9
67 -89 -3 -39 -15 -114 -26 -166 -11 -52 -28 -147 -39 -210 -10 -63 -28 -140
-39 -170 -12 -31 -21 -78 -21 -111 0 -30 -11 -93 -25 -139 -14 -46 -25 -100
-25 -119 0 -20 -9 -55 -20 -79 -11 -24 -25 -62 -31 -85 -16 -61 -110 -251
-164 -332 -97 -146 -293 -315 -364 -315 -11 0 -23 -4 -26 -10 -3 -5 -16 -10
-28 -10 -13 0 -33 -8 -46 -17 -16 -11 -52 -18 -103 -21 -75 -4 -82 -3 -156 33
-180 87 -186 92 -217 152 -10 21 -27 49 -36 63 -24 36 -65 173 -78 260 -19
130 -20 163 -6 240 8 41 17 100 20 130 22 181 124 445 213 550 17 21 32 43 32
48 0 6 17 31 38 56 20 24 48 60 62 80 14 19 44 47 66 61 23 14 46 37 52 50 6
14 35 36 64 51 29 14 62 34 73 43 21 18 110 59 142 64 10 2 34 13 53 25 27 17
52 22 105 23 39 1 84 5 100 9 17 5 48 6 70 2 22 -3 73 -7 112 -8z"/>
<path d="M19794 5248 c-78 -8 -93 -13 -103 -31 -7 -12 -40 -37 -73 -56 -76
-42 -153 -112 -179 -163 -11 -21 -32 -71 -47 -111 -25 -67 -27 -83 -27 -223
l0 -151 38 -75 c55 -108 115 -172 180 -193 28 -9 66 -27 82 -38 27 -20 46 -22
177 -25 145 -4 148 -3 210 26 35 16 80 35 101 43 21 7 65 37 97 66 59 53 157
189 165 227 41 210 44 259 16 349 -11 34 -22 75 -26 92 -4 20 -43 67 -115 139
l-108 109 -98 8 c-55 4 -121 9 -149 12 -27 3 -91 1 -141 -5z"/>
<path d="M9378 4980 c-28 -58 -66 -141 -85 -185 -34 -78 -86 -186 -125 -255
-17 -32 -39 -76 -170 -350 -63 -132 -100 -204 -113 -220 -6 -8 -18 -31 -25
-50 -14 -35 -151 -317 -183 -375 -20 -36 -177 -365 -177 -370 0 -2 -39 -91
-86 -197 -231 -514 -372 -850 -412 -978 -11 -36 -29 -83 -40 -105 -11 -22 -23
-59 -27 -82 -13 -83 -39 -59 -50 47 -4 36 -8 133 -10 215 -2 83 -10 215 -18
295 -9 80 -18 240 -22 355 -6 223 -19 398 -36 505 -5 36 -14 139 -19 230 -12
213 -28 380 -39 405 -5 11 -12 115 -14 230 -3 116 -10 244 -16 285 -6 41 -17
109 -23 150 -6 41 -13 129 -15 195 -6 206 -15 309 -31 333 l-14 22 -686 -2
-686 -3 -13 -99 c-6 -54 -18 -106 -26 -115 -8 -9 -18 -43 -22 -76 -4 -33 -15
-85 -24 -115 -10 -30 -24 -86 -31 -125 -7 -38 -21 -90 -30 -115 -10 -25 -21
-66 -24 -91 -3 -25 -15 -67 -26 -94 -12 -27 -23 -77 -25 -112 -3 -38 -14 -84
-29 -115 -13 -29 -27 -82 -30 -118 -3 -35 -15 -81 -25 -101 -11 -20 -22 -65
-25 -100 -4 -38 -16 -82 -31 -111 -15 -28 -25 -64 -25 -89 0 -22 -11 -74 -25
-115 -14 -41 -25 -88 -25 -105 0 -16 -6 -44 -13 -62 -8 -18 -22 -68 -31 -112
-10 -44 -28 -111 -41 -150 -12 -38 -25 -96 -28 -127 -3 -31 -15 -78 -26 -104
-12 -25 -21 -65 -21 -88 0 -22 -11 -76 -25 -119 -14 -43 -25 -87 -25 -98 0
-12 -13 -60 -29 -108 -15 -47 -31 -107 -34 -133 -4 -25 -15 -72 -25 -105 -11
-32 -24 -80 -30 -108 -13 -60 -43 -176 -77 -301 -14 -49 -25 -101 -25 -115 0
-13 -11 -59 -25 -102 -13 -43 -28 -101 -31 -130 -4 -29 -15 -68 -25 -87 -9
-19 -20 -64 -24 -100 -4 -36 -18 -86 -31 -112 -13 -26 -24 -65 -24 -85 0 -21
-7 -63 -15 -93 -29 -103 -36 -135 -40 -178 -2 -24 -11 -52 -20 -62 -10 -11
-21 -49 -26 -95 -11 -84 -35 -166 -53 -177 -8 -5 -7 -11 2 -20 10 -10 111 -13
475 -13 l462 0 3 30 c2 17 8 35 13 41 14 17 39 125 39 170 0 27 6 46 19 58 18
16 25 45 37 147 2 24 14 71 24 104 11 33 27 97 35 142 7 46 18 90 23 100 6 10
15 53 22 96 6 43 20 97 30 120 10 23 21 71 25 106 3 36 12 76 20 91 7 14 20
67 29 119 9 51 25 114 35 140 11 25 22 69 26 96 3 28 15 79 25 115 10 36 21
85 25 110 4 25 17 79 30 120 25 85 62 243 71 310 3 25 19 96 35 159 16 62 29
129 29 148 0 19 7 47 15 62 8 16 19 67 25 115 6 48 21 117 35 154 13 37 28
109 34 159 6 51 16 105 23 120 6 16 17 69 24 118 7 50 20 117 28 150 9 33 16
79 16 102 0 53 15 93 35 93 8 0 15 5 15 10 0 24 26 7 42 -28 13 -29 18 -81 23
-232 14 -486 29 -744 45 -815 6 -27 13 -135 15 -240 4 -189 11 -281 40 -469 8
-55 15 -145 15 -200 0 -56 7 -159 16 -231 28 -237 33 -285 39 -403 3 -64 8
-135 10 -157 2 -22 7 -71 11 -110 3 -38 10 -77 14 -85 4 -8 10 -80 14 -160 15
-337 20 -374 52 -389 17 -7 137 -11 387 -11 301 0 366 2 383 15 12 8 42 56 67
107 26 51 53 104 60 118 8 14 49 97 91 185 42 88 85 176 95 195 11 19 71 139
135 265 64 127 120 237 125 245 5 8 39 78 76 155 37 77 82 169 101 205 123
236 474 955 514 1054 18 43 48 103 66 133 18 30 36 69 39 86 4 18 15 48 25 67
10 19 30 60 43 90 14 30 43 93 64 140 22 47 47 103 55 125 44 112 62 154 84
191 13 22 24 50 24 62 0 11 16 41 35 66 19 25 34 49 34 54 -9 55 19 88 49 59
14 -15 14 -23 4 -69 -7 -29 -23 -111 -36 -183 -14 -71 -31 -150 -40 -175 -8
-25 -19 -96 -24 -157 -6 -79 -14 -120 -27 -139 -13 -21 -19 -54 -22 -138 -3
-75 -11 -131 -25 -171 -12 -34 -24 -108 -29 -170 -4 -60 -15 -134 -23 -163 -8
-30 -17 -95 -21 -145 -8 -127 -26 -225 -42 -238 -8 -7 -13 -32 -13 -63 0 -61
-24 -243 -45 -341 -8 -38 -15 -101 -15 -140 -1 -38 -8 -88 -16 -110 -19 -49
-42 -200 -42 -275 0 -31 -7 -82 -16 -115 -8 -33 -20 -118 -26 -190 -12 -156
-18 -193 -38 -222 -9 -16 -16 -64 -20 -150 -4 -100 -10 -142 -28 -191 -13 -34
-24 -80 -24 -102 0 -36 2 -40 33 -45 17 -3 240 -5 495 -3 386 3 464 5 471 17
5 8 12 51 16 95 4 45 13 115 21 156 8 41 14 109 14 151 0 68 14 137 41 207 5
13 9 47 9 76 0 51 19 191 40 286 5 25 9 93 10 152 0 68 5 121 14 145 17 46 43
215 50 333 3 47 15 118 26 157 14 51 20 104 20 175 0 57 5 121 11 143 31 114
48 218 49 285 0 41 7 109 16 150 8 41 23 147 32 235 10 88 22 167 27 175 5 8
8 25 7 37 -2 12 2 32 8 44 7 12 16 81 21 153 4 72 15 160 23 196 9 36 16 107
16 158 0 66 7 121 25 190 16 61 28 148 34 232 5 74 16 153 24 175 12 32 38
307 37 398 0 9 8 25 18 35 15 15 20 41 25 120 l7 101 -42 5 c-24 3 -337 7
-697 9 l-654 2 -49 -105z"/>
<path d="M12865 3752 c-16 -2 -34 -8 -39 -13 -6 -5 -21 -9 -34 -9 -13 0 -31
-4 -41 -10 -10 -5 -52 -15 -92 -21 -41 -6 -100 -22 -131 -35 -32 -13 -66 -24
-76 -24 -11 0 -59 -20 -108 -43 -49 -24 -102 -47 -119 -51 -16 -4 -43 -18 -60
-30 -16 -13 -52 -35 -80 -48 -27 -14 -84 -54 -125 -89 -41 -34 -95 -75 -119
-90 -23 -15 -59 -47 -79 -71 -19 -24 -59 -68 -87 -98 -69 -74 -167 -205 -195
-260 -12 -25 -33 -56 -46 -70 -29 -32 -93 -170 -150 -325 -25 -66 -51 -136
-59 -155 -8 -19 -19 -62 -26 -95 -6 -33 -21 -87 -32 -120 -19 -56 -21 -83 -21
-430 0 -359 0 -371 21 -416 12 -25 27 -76 33 -113 8 -43 21 -77 35 -95 13 -15
27 -41 31 -57 6 -26 35 -91 68 -152 19 -36 137 -181 185 -228 23 -24 52 -46
64 -50 12 -4 56 -36 99 -71 55 -45 90 -66 116 -70 20 -3 56 -19 79 -35 27 -20
48 -28 60 -24 12 4 33 -2 54 -17 57 -38 90 -48 132 -38 33 8 42 6 67 -15 19
-16 40 -24 62 -24 18 1 62 -3 96 -9 87 -13 537 -14 642 0 47 6 102 12 122 13
20 1 45 9 55 18 14 12 39 16 112 15 60 -1 96 2 98 9 11 33 31 43 103 49 41 3
84 12 95 18 11 7 40 19 65 26 25 7 63 22 84 33 22 11 62 27 90 35 58 17 96 47
91 72 -1 9 -6 66 -10 126 -4 61 -11 128 -17 149 -12 47 -15 82 -23 251 -6 138
-11 165 -26 165 -5 0 -55 -18 -112 -41 -56 -22 -126 -45 -156 -49 -33 -6 -62
-18 -73 -30 -13 -14 -31 -20 -56 -20 -55 1 -90 -6 -162 -32 -60 -21 -81 -23
-275 -23 -353 0 -503 29 -640 122 -82 56 -103 77 -158 160 -50 74 -87 188 -87
264 0 35 2 38 33 43 17 3 192 7 387 9 381 4 473 14 755 81 55 13 118 27 140
31 22 3 63 14 90 25 28 10 77 27 110 37 77 23 117 43 254 128 220 137 351 300
432 540 l33 100 -1 186 -1 187 -47 118 c-69 178 -71 181 -153 276 -42 49 -80
98 -84 109 -4 10 -15 19 -24 19 -17 0 -63 29 -102 66 -29 26 -150 94 -167 94
-7 0 -42 16 -79 35 -44 23 -85 36 -121 39 -29 2 -64 11 -77 19 -12 8 -50 18
-83 23 -59 7 -482 12 -540 6z m345 -775 c36 -16 72 -37 80 -46 47 -52 100
-148 100 -180 0 -41 -42 -130 -82 -176 -47 -53 -164 -115 -216 -115 -17 0 -33
-4 -36 -8 -8 -13 -102 -31 -196 -37 -47 -3 -110 -12 -140 -21 -89 -25 -135
-30 -330 -29 l-185 0 -3 28 c-2 19 6 43 24 70 15 23 46 77 67 119 90 175 357
388 487 388 16 0 32 4 35 10 13 20 74 29 200 27 120 -1 135 -3 195 -30z"/>
<path d="M22695 3749 c-208 -6 -266 -13 -301 -41 -7 -5 -41 -8 -75 -7 -64 2
-140 -18 -186 -47 -12 -8 -42 -14 -66 -14 -29 0 -53 -7 -69 -19 -13 -11 -38
-23 -54 -27 -37 -9 -350 -160 -389 -188 -16 -12 -43 -28 -58 -36 -16 -8 -40
-25 -54 -38 -14 -13 -42 -34 -62 -46 -59 -38 -377 -360 -407 -413 -26 -46 -56
-94 -129 -205 -47 -74 -134 -277 -150 -355 -8 -39 -22 -73 -34 -85 -13 -11
-21 -31 -21 -50 0 -16 -9 -68 -20 -113 -38 -159 -53 -589 -25 -720 32 -150
104 -357 156 -450 77 -138 286 -356 406 -423 26 -14 63 -37 82 -49 19 -13 40
-23 48 -23 8 0 27 -8 41 -19 15 -10 44 -21 64 -24 21 -3 52 -17 70 -30 26 -20
50 -27 106 -31 53 -5 81 -12 103 -29 30 -22 34 -22 382 -22 l352 0 105 28 c64
16 123 26 150 24 30 -3 53 2 70 13 43 29 101 46 185 57 77 9 93 18 104 58 6
23 8 150 4 344 -4 217 -3 318 5 340 9 26 9 37 -4 56 l-15 23 -47 -18 c-26 -10
-72 -23 -102 -30 -30 -7 -73 -22 -95 -33 -30 -16 -60 -21 -120 -22 -44 0 -84
-3 -90 -6 -5 -4 -18 -5 -27 -4 -10 2 -18 -1 -18 -7 0 -7 -44 -8 -127 -4 -156
7 -173 8 -173 16 0 4 -17 6 -37 5 -21 -1 -47 4 -58 11 -11 7 -46 15 -77 19
-45 6 -69 16 -121 54 -35 25 -79 64 -98 86 -19 22 -37 42 -40 45 -24 19 -72
120 -89 185 -11 43 -25 84 -32 92 -17 21 -24 270 -8 318 7 20 23 88 35 150 19
93 34 134 86 236 34 68 82 148 106 177 24 30 43 57 43 60 0 4 28 34 61 67 34
33 78 76 98 96 20 20 56 49 81 64 25 16 47 31 50 36 5 7 31 18 155 63 33 12
76 31 95 41 50 26 167 38 375 38 242 1 348 -16 418 -65 27 -19 39 2 92 170 25
81 51 158 57 172 6 14 16 48 23 75 7 28 25 82 40 120 15 39 30 84 35 100 4 17
15 45 25 62 14 28 14 37 3 60 -18 37 -88 69 -166 76 -36 4 -72 13 -82 22 -9 8
-30 15 -46 15 -17 0 -55 4 -85 10 -75 14 -198 16 -454 9z"/>
<path d="M25788 3754 c-2 -1 -50 -5 -108 -8 -57 -4 -107 -11 -110 -17 -4 -5
-25 -12 -48 -14 -23 -2 -46 -6 -51 -9 -4 -3 -42 -6 -82 -7 -41 -1 -79 -6 -86
-11 -7 -5 -17 -7 -22 -4 -5 4 -16 -2 -23 -12 -10 -14 -31 -21 -87 -26 -57 -5
-77 -11 -90 -28 -13 -16 -32 -22 -77 -26 -43 -3 -67 -11 -87 -28 -16 -13 -38
-24 -49 -24 -11 0 -32 -8 -46 -19 -15 -10 -58 -33 -97 -51 -38 -18 -89 -46
-112 -61 -23 -16 -52 -33 -65 -38 -13 -5 -37 -20 -54 -34 -16 -13 -40 -28 -53
-32 -13 -4 -51 -35 -85 -70 -33 -34 -78 -70 -98 -80 -22 -10 -58 -43 -85 -77
-52 -65 -100 -122 -178 -212 -27 -32 -65 -83 -83 -113 -18 -31 -43 -70 -56
-87 -31 -41 -151 -289 -176 -362 -11 -32 -26 -65 -33 -73 -15 -17 -57 -185
-82 -324 -9 -48 -24 -105 -33 -125 -15 -32 -17 -77 -17 -337 0 -288 1 -302 23
-355 12 -30 27 -81 33 -114 5 -32 26 -88 46 -125 20 -36 54 -101 77 -145 56
-108 229 -275 349 -337 45 -22 92 -49 105 -60 15 -11 40 -19 64 -19 21 0 50
-8 64 -17 27 -18 36 -19 242 -29 135 -6 230 2 337 31 28 8 74 17 103 20 34 5
55 13 61 24 5 9 34 25 64 34 30 10 68 30 84 46 15 15 49 34 76 42 32 9 63 29
97 62 28 26 50 52 50 56 0 5 18 21 40 36 22 15 40 32 40 37 0 5 26 35 58 67
74 75 128 149 137 189 8 40 62 82 76 61 14 -22 10 -227 -5 -299 -8 -36 -12
-68 -10 -71 2 -3 -1 -33 -6 -65 -5 -32 -11 -96 -14 -142 l-6 -82 473 2 472 3
6 225 c4 124 14 281 23 350 10 69 21 199 26 289 6 91 17 194 25 230 23 95 23
94 35 228 7 81 18 138 31 168 13 29 22 76 25 126 2 48 10 89 20 103 8 13 19
62 24 109 5 47 14 95 20 106 14 26 28 95 40 194 6 43 17 95 26 115 8 20 17 64
20 98 2 33 11 85 20 115 19 69 33 131 44 194 4 28 15 75 23 105 8 30 17 73 20
95 3 22 17 87 31 145 13 58 27 128 31 155 4 28 11 65 17 83 7 23 7 37 -2 47
-22 26 -102 56 -180 66 -43 5 -94 16 -114 24 -19 8 -42 12 -50 9 -8 -3 -25 1
-38 10 -20 13 -69 18 -162 16 -16 0 -36 6 -45 14 -9 8 -36 14 -61 14 -25 1
-67 6 -95 12 -43 10 -609 23 -617 14z m82 -789 c135 -13 140 -14 140 -41 0
-14 -6 -24 -15 -24 -17 0 -22 -19 -29 -115 -3 -38 -15 -99 -26 -133 -11 -35
-20 -83 -20 -107 0 -23 -9 -71 -20 -105 -11 -35 -25 -93 -31 -129 -23 -147
-86 -392 -126 -496 -29 -74 -84 -200 -95 -220 -7 -11 -24 -45 -39 -75 -14 -30
-43 -75 -63 -98 -20 -24 -36 -47 -36 -51 0 -3 -37 -45 -83 -93 -58 -61 -99
-94 -139 -113 -32 -15 -62 -33 -69 -41 -6 -8 -19 -14 -28 -14 -9 0 -24 -7 -34
-15 -11 -7 -28 -12 -39 -10 -11 2 -31 -3 -44 -11 -30 -21 -117 -20 -146 0 -12
9 -38 16 -56 16 -38 0 -108 43 -161 99 -85 91 -154 354 -130 500 5 35 12 67
14 70 1 3 8 50 15 105 6 54 21 119 32 145 11 25 32 83 48 128 15 45 37 95 48
110 10 15 40 68 65 116 26 48 64 108 84 133 90 105 252 264 303 296 81 51 231
128 248 128 9 0 24 8 34 17 14 12 50 19 140 25 67 5 124 11 127 13 2 3 21 3
40 0 20 -3 61 -7 91 -10z"/>
<path d="M29870 3753 c-74 -2 -144 -7 -155 -12 -11 -5 -44 -21 -74 -35 -34
-16 -63 -23 -78 -20 -16 4 -36 -2 -61 -18 -20 -14 -48 -29 -62 -33 -123 -38
-434 -308 -503 -436 -12 -24 -39 -66 -60 -94 -20 -27 -37 -55 -37 -61 0 -6 -6
-17 -14 -23 -11 -9 -16 -5 -26 19 -10 24 -10 46 -1 103 33 208 52 526 33 552
-10 14 -857 14 -871 0 -5 -5 -12 -71 -16 -145 -3 -74 -15 -187 -26 -251 -10
-63 -23 -185 -28 -270 -6 -101 -16 -179 -30 -228 -12 -41 -21 -96 -21 -122 0
-62 -18 -190 -35 -254 -7 -27 -16 -77 -19 -110 -4 -33 -13 -81 -21 -107 -7
-26 -23 -104 -35 -175 -12 -70 -26 -133 -31 -139 -5 -7 -16 -64 -24 -127 -15
-124 -23 -166 -35 -182 -4 -5 -10 -46 -13 -90 -4 -44 -15 -107 -27 -139 -11
-33 -20 -78 -20 -102 0 -57 -17 -138 -41 -197 -12 -30 -21 -79 -24 -130 -3
-53 -13 -108 -29 -155 -15 -43 -26 -96 -26 -127 0 -29 -9 -81 -19 -116 -25
-84 -34 -152 -26 -199 l6 -38 492 -1 c387 -1 496 1 508 11 19 15 39 126 39
215 1 43 7 68 24 97 14 21 22 45 19 52 -3 8 -1 20 4 27 5 6 10 38 11 69 0 32
9 88 20 125 22 75 55 245 77 393 7 52 20 124 28 160 9 36 23 110 32 165 10 55
26 118 36 141 10 22 21 65 24 95 4 34 13 60 26 72 10 10 19 30 19 45 0 56 83
222 192 386 56 85 218 246 268 268 25 11 57 30 71 44 14 13 54 33 90 43 35 11
81 26 101 35 38 16 197 25 312 17 54 -4 61 -2 82 22 27 32 41 75 55 177 6 41
17 98 26 125 8 28 16 64 18 80 6 53 24 149 40 205 8 30 18 80 21 110 6 60 19
121 40 188 20 60 18 71 -13 83 -39 15 -59 16 -213 12z"/>
<path d="M31800 3752 c-14 -2 -32 -11 -40 -21 -25 -30 -96 -47 -134 -33 -35
13 -46 10 -106 -30 -14 -9 -52 -23 -85 -31 -33 -9 -96 -33 -140 -55 -44 -21
-91 -42 -105 -45 -14 -3 -41 -20 -60 -37 -23 -20 -42 -29 -54 -26 -13 3 -30
-6 -50 -27 -39 -41 -93 -82 -167 -127 -50 -31 -191 -174 -254 -258 -11 -15
-44 -58 -74 -95 -29 -38 -71 -97 -92 -130 -48 -77 -154 -290 -167 -337 -6 -19
-27 -80 -47 -135 -20 -55 -43 -131 -51 -170 -8 -38 -22 -78 -32 -88 -15 -17
-17 -54 -17 -412 1 -377 2 -396 22 -442 11 -26 26 -73 33 -103 7 -30 20 -73
30 -95 10 -22 30 -67 45 -100 33 -75 108 -194 160 -254 23 -25 48 -58 57 -72
9 -14 32 -33 50 -42 18 -9 44 -28 58 -43 62 -67 240 -164 355 -194 28 -7 59
-21 70 -31 11 -10 38 -20 60 -22 22 -3 60 -10 85 -16 150 -34 179 -36 500 -35
366 2 432 5 451 20 38 29 161 46 174 24 5 -8 14 -6 30 4 18 12 26 13 31 4 5
-7 15 -2 29 16 20 25 31 29 90 32 46 3 75 11 94 25 14 10 44 22 66 24 22 3 67
19 100 35 34 17 72 30 84 30 13 0 36 14 52 31 28 30 29 34 29 133 0 60 -6 124
-15 156 -9 33 -17 119 -21 215 -5 153 -17 235 -36 235 -4 0 -25 -9 -45 -20
-21 -11 -48 -20 -60 -20 -13 0 -42 -8 -66 -19 -78 -34 -98 -41 -117 -41 -11 0
-36 -10 -57 -21 -23 -13 -69 -25 -116 -30 -43 -5 -105 -18 -137 -29 -53 -18
-84 -19 -322 -18 -204 1 -271 5 -298 16 -19 8 -37 17 -40 21 -3 4 -31 13 -63
19 -36 7 -73 23 -95 41 -21 15 -60 40 -88 54 -81 41 -142 132 -193 288 -23 69
-39 133 -36 141 5 12 46 14 258 12 331 -2 523 10 657 42 76 19 109 23 121 16
24 -16 162 19 404 99 205 69 269 93 286 109 34 32 64 54 118 85 32 19 100 79
159 140 85 89 109 122 143 194 45 95 81 204 98 297 14 74 15 326 1 340 -5 5
-28 63 -50 128 -23 65 -55 140 -73 165 -74 109 -163 205 -251 270 -81 60 -191
121 -219 121 -5 0 -31 13 -56 28 -56 35 -90 44 -160 44 -44 -1 -54 3 -58 18
-3 11 -17 21 -32 23 -47 8 -570 15 -621 9z m300 -751 c14 -5 51 -17 82 -26 75
-20 107 -49 153 -139 44 -86 43 -110 -6 -203 -36 -69 -87 -109 -190 -151 -93
-37 -184 -57 -317 -71 -57 -6 -113 -16 -125 -23 -13 -8 -72 -13 -147 -15 -69
-1 -166 -6 -217 -10 -106 -10 -153 -2 -153 27 0 11 15 43 34 72 18 29 37 64
41 78 27 92 146 234 256 305 36 24 70 48 74 54 12 20 103 61 136 61 17 0 48 9
68 20 20 11 54 24 76 30 48 11 200 6 235 -9z"/>
<path d="M19206 3698 c-3 -7 -7 -44 -11 -83 -3 -38 -12 -76 -19 -85 -21 -23
-26 -47 -30 -147 -3 -61 -11 -105 -25 -134 -11 -25 -22 -78 -25 -124 -4 -44
-15 -108 -26 -143 -11 -35 -24 -108 -29 -162 -7 -71 -17 -116 -35 -156 -19
-41 -26 -73 -26 -117 0 -33 -9 -93 -20 -131 -11 -39 -24 -110 -29 -157 -5 -47
-16 -103 -25 -125 -8 -21 -22 -81 -30 -132 -9 -51 -18 -96 -20 -100 -2 -4 -12
-64 -21 -132 -9 -69 -25 -143 -36 -166 -10 -22 -19 -59 -19 -81 0 -50 -26
-208 -42 -248 -6 -16 -14 -66 -18 -110 -3 -45 -14 -95 -24 -115 -11 -21 -21
-75 -27 -135 -5 -56 -18 -127 -29 -160 -11 -32 -20 -74 -20 -94 0 -20 -12 -81
-25 -136 -14 -55 -28 -130 -32 -168 l-6 -67 509 2 509 3 13 50 c7 28 16 92 21
143 6 57 16 103 27 119 11 18 19 62 25 146 7 85 15 130 29 156 12 23 22 73 29
139 5 57 14 109 19 115 13 18 31 112 36 192 2 39 14 95 26 125 12 30 26 97 31
149 6 52 17 108 26 124 9 18 17 67 20 116 3 53 14 114 29 158 13 39 24 90 24
113 0 45 28 170 41 185 5 5 9 27 9 49 0 56 21 167 36 191 7 11 15 65 19 120 4
55 15 125 25 155 10 30 24 102 30 160 7 60 19 116 28 130 18 28 18 28 30 130
6 41 17 104 25 140 21 88 47 241 47 272 0 14 -7 29 -16 32 -9 3 -236 6 -505 6
-383 0 -490 -3 -493 -12z"/>
</g>
</svg>
