<?xml version="1.0" standalone="no"?>
<!DOCTYPE svg PUBLIC "-//W3C//DTD SVG 20010904//EN"
 "http://www.w3.org/TR/2001/REC-SVG-20010904/DTD/svg10.dtd">
<svg version="1.0" xmlns="http://www.w3.org/2000/svg"
 width="900.000000pt" height="500.000000pt" viewBox="0 0 900.000000 500.000000"
 preserveAspectRatio="xMidYMid meet">

<g transform="translate(0.000000,500.000000) scale(0.100000,-0.100000)"
fill="#000000" stroke="none">
<path d="M6549 3373 c-88 -249 -153 -418 -167 -435 -14 -16 -34 -28 -48 -28
-13 0 -24 -4 -24 -10 0 -6 43 -10 110 -10 67 0 110 4 110 10 0 6 -15 10 -32
10 -71 0 -75 24 -28 164 l32 97 120 -3 120 -3 38 -106 c59 -166 58 -149 6
-149 -25 0 -46 -4 -46 -10 0 -6 65 -10 175 -10 110 0 175 4 175 10 0 6 -13 10
-29 10 l-29 0 -162 435 c-89 239 -166 435 -170 435 -4 0 -72 -183 -151 -407z
m135 -28 c25 -77 46 -143 46 -148 0 -4 -47 -7 -105 -7 -58 0 -105 4 -105 8 0
7 78 246 95 291 10 25 21 0 69 -144z"/>
<path d="M2440 3750 c0 -5 20 -10 45 -10 l45 0 0 -380 c0 -256 -4 -387 -11
-403 -11 -25 -47 -47 -74 -47 -8 0 -15 -4 -15 -10 0 -6 45 -10 115 -10 70 0
115 4 115 10 0 6 -13 10 -30 10 -17 0 -39 9 -50 20 -19 19 -20 33 -19 408 l0
387 140 -405 c77 -223 142 -411 144 -418 3 -8 12 -12 21 -10 12 2 55 116 154
406 75 221 140 405 143 409 4 3 7 -174 7 -395 l0 -402 -55 0 c-30 0 -55 -4
-55 -10 0 -6 72 -10 195 -10 123 0 195 4 195 10 0 6 -23 10 -50 10 l-50 0 2
413 3 412 48 3 c26 2 47 7 47 13 0 6 -57 8 -147 7 l-147 -3 -101 -292 c-55
-160 -102 -294 -105 -297 -3 -3 -50 130 -105 294 l-100 300 -152 0 c-95 0
-153 -4 -153 -10z"/>
<path d="M3500 3750 c0 -5 23 -10 50 -10 l50 0 0 -415 0 -415 -50 0 c-27 0
-50 -4 -50 -10 0 -6 125 -10 355 -10 l355 0 0 142 c0 78 -3 138 -7 134 -4 -4
-13 -35 -20 -68 -17 -83 -50 -130 -114 -162 -48 -24 -64 -26 -171 -26 l-118 0
0 215 0 215 55 0 c98 0 140 -39 152 -141 13 -106 23 -40 23 147 0 183 -9 241
-23 141 -14 -98 -47 -127 -147 -127 l-60 0 0 190 0 190 99 0 c54 0 113 -5 132
-11 79 -27 139 -101 139 -174 0 -19 5 -35 10 -35 6 0 10 47 10 120 l0 120
-335 0 c-217 0 -335 -4 -335 -10z"/>
<path d="M4300 3751 c0 -7 21 -11 50 -11 l50 0 0 -415 0 -415 -50 0 c-27 0
-50 -4 -50 -10 0 -6 72 -10 195 -10 123 0 195 4 195 10 0 6 -25 10 -55 10
l-55 0 0 210 0 210 65 0 c36 0 81 -6 100 -14 55 -23 66 -51 77 -193 10 -139
29 -200 70 -227 39 -26 108 -30 171 -12 68 20 87 39 29 30 -59 -9 -71 14 -81
164 -7 97 -13 127 -31 156 -28 47 -92 84 -172 100 l-63 13 76 17 c46 10 95 29
122 47 99 65 111 190 27 270 -65 62 -117 72 -412 76 -182 3 -258 2 -258 -6z
m459 -22 c17 -6 38 -23 45 -38 21 -40 28 -131 17 -201 -17 -102 -68 -140 -188
-140 l-53 0 0 195 0 195 74 0 c40 0 87 -5 105 -11z"/>
<path d="M5180 3750 c0 -5 20 -10 45 -10 l45 0 0 -415 0 -415 -45 0 c-25 0
-45 -4 -45 -10 0 -6 70 -10 190 -10 120 0 190 4 190 10 0 6 -22 10 -50 10
l-50 0 0 415 0 415 50 0 c28 0 50 5 50 10 0 6 -70 10 -190 10 -120 0 -190 -4
-190 -10z"/>
<path d="M5620 3623 c1 -133 9 -156 25 -68 21 117 99 185 212 185 l43 0 0
-415 0 -415 -55 0 c-30 0 -55 -4 -55 -10 0 -6 75 -10 205 -10 130 0 205 4 205
10 0 6 -25 10 -55 10 l-55 0 0 416 0 417 64 -5 c77 -7 114 -27 150 -82 24 -37
33 -60 50 -138 4 -16 11 -28 16 -28 6 0 10 53 10 135 l0 135 -380 0 -380 0 0
-137z"/>
<path d="M7140 3750 c0 -5 23 -10 50 -10 l50 0 0 -415 0 -415 -50 0 c-27 0
-50 -4 -50 -10 0 -6 70 -10 190 -10 120 0 190 4 190 10 0 6 -22 10 -50 10
l-50 0 0 415 0 415 50 0 c28 0 50 5 50 10 0 6 -70 10 -190 10 -120 0 -190 -4
-190 -10z"/>
<path d="M7580 3750 c0 -5 9 -10 20 -10 11 0 30 -16 45 -37 l25 -38 0 -357 c0
-345 -1 -359 -20 -378 -11 -11 -31 -20 -45 -20 -14 0 -25 -4 -25 -10 0 -6 45
-10 115 -10 70 0 115 4 115 10 0 6 -16 10 -35 10 -22 0 -43 8 -55 20 -19 19
-20 33 -20 362 l0 341 285 -380 c232 -309 290 -380 308 -379 l22 1 5 418 c5
400 6 419 24 433 11 8 30 14 43 14 13 0 23 5 23 10 0 6 -43 10 -110 10 -67 0
-110 -4 -110 -10 0 -5 14 -10 30 -10 17 0 39 -9 50 -20 19 -19 20 -33 20 -292
-1 -217 -3 -270 -13 -257 -7 8 -110 144 -230 302 l-219 287 -124 0 c-76 0
-124 -4 -124 -10z"/>
<path d="M8490 3746 c-23 -29 -8 -57 40 -75 50 -18 67 -54 32 -65 -24 -8 -68
8 -75 26 -2 7 -7 10 -10 7 -4 -3 0 -15 9 -27 21 -31 87 -31 108 0 21 30 2 58
-50 73 -28 8 -39 16 -39 30 0 26 62 35 71 11 7 -17 24 -22 24 -7 0 36 -85 56
-110 27z"/>
<path d="M8640 3676 c0 -102 18 -116 22 -18 l3 67 23 -68 c13 -37 29 -66 34
-65 6 2 21 31 34 63 l23 60 0 -62 c1 -35 5 -63 11 -63 6 0 10 35 10 86 0 104
-13 107 -48 11 -14 -37 -28 -65 -31 -62 -3 4 -15 34 -27 68 -13 39 -27 63 -37
65 -15 3 -17 -8 -17 -82z"/>
<path d="M180 3111 c0 -471 1 -511 17 -527 37 -37 1002 -884 1008 -884 3 0 5
432 5 960 l0 960 -515 0 -515 0 0 -509z"/>
<path d="M5520 2420 l0 -240 30 0 29 0 3 112 3 112 108 -1 c59 -1 116 -2 127
-2 19 -1 20 -8 20 -111 l0 -110 30 0 30 0 0 240 0 240 -30 0 -30 0 0 -100 0
-100 -130 0 -130 0 0 100 0 100 -30 0 -30 0 0 -240z"/>
<path d="M6080 2420 l0 -240 170 0 170 0 0 29 0 28 -137 0 -138 -1 -3 82 -3
82 131 0 130 0 0 25 0 25 -130 0 -131 0 3 77 3 77 138 -1 137 0 0 28 0 29
-170 0 -170 0 0 -240z"/>
<path d="M6708 2631 c-5 -14 -43 -114 -83 -221 -40 -107 -76 -203 -80 -212 -6
-15 -2 -18 23 -18 31 0 35 5 77 128 3 8 33 12 102 12 l98 0 24 -70 c23 -68 25
-70 57 -70 l33 0 -28 78 c-15 42 -54 149 -86 237 l-58 161 -34 1 c-28 1 -36
-4 -45 -26z m79 -148 c18 -53 31 -99 29 -102 -2 -3 -35 -6 -73 -5 -53 1 -67 4
-65 15 7 35 65 189 71 189 4 0 21 -43 38 -97z"/>
<path d="M7090 2420 l0 -240 151 0 150 0 -3 28 -3 27 -100 2 c-55 0 -108 2
-117 2 -17 1 -18 18 -18 211 l0 210 -30 0 -30 0 0 -240z"/>
<path d="M7432 2633 c3 -27 5 -28 63 -30 33 0 70 -2 83 -2 l22 -1 0 -210 0
-210 30 0 30 0 2 212 3 211 75 1 c74 1 75 1 78 29 l3 27 -196 0 -196 0 3 -27z"/>
<path d="M7950 2420 l0 -240 30 0 30 0 0 110 c0 66 4 110 10 111 6 0 57 1 115
1 58 0 110 -1 115 -1 6 -1 10 -45 10 -111 l0 -110 30 0 30 0 0 240 0 240 -30
0 -30 0 0 -100 0 -100 -125 0 -125 0 0 100 0 100 -30 0 -30 0 0 -240z"/>
</g>
</svg>
