<?xml version="1.0" standalone="no"?>
<!DOCTYPE svg PUBLIC "-//W3C//DTD SVG 20010904//EN"
 "http://www.w3.org/TR/2001/REC-SVG-20010904/DTD/svg10.dtd">
<svg version="1.0" xmlns="http://www.w3.org/2000/svg"
 width="300.000000pt" height="150.000000pt" viewBox="0 0 300.000000 150.000000"
 preserveAspectRatio="xMidYMid meet">

<g transform="translate(0.000000,150.000000) scale(0.100000,-0.100000)"
fill="#000000" stroke="none">
<path d="M368 1150 c-39 -30 -53 -73 -39 -120 32 -107 172 -107 201 0 13 47
-4 98 -41 124 -32 22 -91 20 -121 -4z"/>
<path d="M688 1141 c-29 -26 -33 -35 -33 -81 0 -46 4 -55 33 -81 45 -41 102
-41 143 0 25 25 29 37 29 81 0 44 -4 56 -29 81 -41 41 -98 41 -143 0z"/>
<path d="M89 901 c-33 -33 -36 -58 -14 -101 27 -53 103 -53 130 0 22 43 19 68
-14 101 -37 37 -65 37 -102 0z"/>
<path d="M1591 888 c-64 -33 -84 -66 -89 -141 -3 -52 0 -67 20 -96 34 -51 76
-72 146 -72 68 -1 108 16 145 61 44 52 48 147 9 199 -33 45 -67 62 -128 68
-49 4 -67 0 -103 -19z m152 -38 c48 -56 42 -173 -10 -221 -36 -34 -97 -32
-128 4 -46 53 -42 171 8 225 32 35 98 31 130 -8z"/>
<path d="M2702 781 c-28 -69 -58 -143 -67 -164 -16 -38 -16 -38 6 -35 15 2 26
16 38 48 l17 45 54 0 54 0 17 -45 c15 -41 20 -45 53 -48 20 -2 36 -1 36 3 0 3
-11 31 -24 63 -13 31 -40 100 -60 154 -53 138 -61 136 -124 -21z m87 -68 c1
-9 -13 -13 -39 -13 -22 0 -40 4 -40 9 0 5 9 31 21 58 l21 48 18 -45 c11 -25
19 -51 19 -57z"/>
<path d="M342 878 c15 -13 32 -36 38 -51 6 -17 10 -126 10 -263 l0 -234 140 0
140 0 0 238 c0 267 0 266 -73 304 -34 18 -64 22 -162 26 l-120 4 27 -24z"/>
<path d="M681 872 l34 -30 3 -256 3 -256 145 0 146 0 -4 234 c-3 218 -4 236
-24 262 -38 52 -86 68 -218 72 l-119 5 34 -31z"/>
<path d="M1125 853 c-4 -26 -15 -99 -24 -161 l-18 -113 21 3 c19 3 22 12 28
97 4 52 9 99 11 104 1 5 26 -38 55 -97 28 -58 55 -106 59 -106 4 0 31 49 58
108 l50 107 7 -50 c4 -28 10 -76 13 -107 l6 -58 36 0 c35 0 36 0 30 38 -3 20
-11 82 -17 137 -15 136 -18 145 -38 145 -13 0 -34 -32 -72 -111 l-55 -110 -53
108 c-62 128 -86 144 -97 66z"/>
<path d="M1910 740 l0 -160 84 0 c77 0 84 2 89 21 6 21 3 21 -49 16 l-54 -6 0
145 0 144 -35 0 -35 0 0 -160z"/>
<path d="M2145 740 l0 -160 35 0 35 0 0 160 0 160 -35 0 -35 0 0 -160z"/>
<path d="M2300 740 c0 -146 2 -160 18 -160 15 0 17 11 14 110 -2 65 0 110 6
110 5 0 53 -50 107 -110 61 -70 104 -110 114 -108 14 3 16 25 19 161 2 147 1
157 -16 157 -17 0 -18 -8 -14 -105 3 -63 1 -105 -5 -105 -5 0 -51 47 -103 105
-68 78 -99 105 -116 105 l-24 0 0 -160z"/>
<path d="M2913 872 c-8 -14 -8 -19 1 -19 7 0 13 9 13 19 1 10 1 18 0 18 -1 0
-7 -8 -14 -18z"/>
<path d="M78 687 c21 -22 22 -33 22 -190 l0 -167 120 0 120 0 0 158 c0 151 -1
159 -22 180 -36 33 -73 42 -170 42 l-91 0 21 -23z"/>
<path d="M1210 479 l0 -39 -46 0 -46 0 6 35 c6 32 5 35 -16 35 -22 0 -23 -3
-23 -90 0 -86 1 -90 22 -90 19 0 22 5 20 43 l-2 42 43 3 42 3 0 -48 c0 -42 3
-49 20 -49 19 0 20 7 20 92 0 83 -2 92 -20 97 -17 4 -20 0 -20 -34z"/>
<path d="M1320 420 l0 -95 50 0 c33 0 50 4 50 12 0 9 -10 11 -30 6 -30 -5 -30
-5 -30 37 0 42 0 42 30 37 21 -5 30 -3 30 7 0 8 -10 11 -30 8 -29 -4 -30 -3
-30 33 0 35 1 36 30 30 22 -5 30 -3 30 7 0 9 -15 13 -50 13 l-50 0 0 -95z"/>
<path d="M1525 488 c-57 -139 -63 -158 -50 -158 7 0 16 11 19 25 5 21 12 25
40 25 28 0 36 -5 43 -27 6 -17 17 -27 32 -28 16 -1 20 2 16 14 -36 100 -72
181 -78 181 -4 0 -14 -15 -22 -32z m35 -80 c0 -5 -11 -8 -24 -8 -24 0 -24 2
-14 31 l11 32 13 -24 c7 -13 13 -27 14 -31z"/>
<path d="M1804 511 c-12 -12 -1 -21 21 -15 l25 6 0 -86 c0 -79 2 -86 20 -86
17 0 19 8 22 83 3 78 4 82 26 80 12 -2 22 3 22 10 0 8 -20 12 -66 12 -36 0
-67 -2 -70 -4z"/>
<path d="M2275 511 c-48 -20 -72 -78 -54 -130 17 -47 83 -74 133 -55 29 11 17
20 -23 16 -31 -3 -42 0 -55 19 -20 30 -21 88 0 117 16 24 62 30 81 11 8 -8 13
-7 18 1 16 26 -54 40 -100 21z"/>
<path d="M2471 479 c-42 -95 -60 -149 -51 -149 6 0 15 11 20 25 8 20 16 25 44
25 28 0 36 -5 43 -27 6 -17 17 -27 31 -28 12 -1 22 -1 22 0 0 8 -74 182 -81
189 -5 6 -16 -8 -28 -35z m17 -77 c-28 -5 -31 1 -16 33 l12 28 12 -29 c11 -26
10 -29 -8 -32z"/>
<path d="M2630 420 c0 -89 1 -96 20 -96 17 0 20 7 20 46 l0 45 28 -44 c18 -29
36 -45 50 -46 27 -2 27 -3 -5 45 l-26 41 23 24 c20 21 22 28 12 50 -12 25 -19
28 -84 29 l-38 1 0 -95z m84 64 c9 -24 8 -31 -10 -48 -25 -25 -34 -19 -34 24
0 33 4 40 19 40 10 0 22 -7 25 -16z"/>
<path d="M2820 420 l0 -95 50 0 c33 0 50 4 50 12 0 9 -10 11 -30 6 -30 -5 -30
-5 -30 37 0 42 0 42 30 37 21 -5 30 -3 30 7 0 8 -10 11 -30 8 -29 -4 -30 -3
-30 33 0 35 1 36 30 30 22 -5 30 -3 30 7 0 9 -15 13 -50 13 l-50 0 0 -95z"/>
<path d="M1680 417 l0 -92 50 1 c50 2 67 17 20 18 -24 1 -25 3 -28 84 -3 74
-5 82 -22 82 -18 0 -20 -7 -20 -93z"/>
<path d="M1990 420 c0 -82 2 -90 19 -90 16 0 20 8 23 43 3 42 3 42 46 45 l42
3 0 -48 c0 -42 3 -49 20 -49 19 0 20 7 20 93 0 86 -1 93 -20 93 -16 0 -20 -7
-20 -35 0 -35 0 -35 -45 -35 -45 0 -45 0 -45 35 0 28 -4 35 -20 35 -19 0 -20
-7 -20 -90z"/>
</g>
</svg>
