<?xml version="1.0" standalone="no"?>
<!DOCTYPE svg PUBLIC "-//W3C//DTD SVG 20010904//EN"
 "http://www.w3.org/TR/2001/REC-SVG-20010904/DTD/svg10.dtd">
<svg version="1.0" xmlns="http://www.w3.org/2000/svg"
 width="938.000000pt" height="373.000000pt" viewBox="0 0 938.000000 373.000000"
 preserveAspectRatio="xMidYMid meet">

<g transform="translate(0.000000,373.000000) scale(0.100000,-0.100000)"
fill="#000000" stroke="none">
<path d="M470 2456 c-418 -107 -596 -566 -358 -922 82 -123 209 -212 353 -249
78 -20 240 -19 318 1 103 26 195 80 273 158 130 130 191 286 182 461 -14 247
-163 443 -406 532 -84 32 -273 41 -362 19z m293 -206 c139 -52 242 -185 263
-338 15 -117 -50 -275 -147 -354 -122 -99 -259 -121 -405 -67 -45 17 -76 39
-130 93 -94 94 -118 152 -118 286 0 125 24 188 104 273 118 126 277 165 433
107z"/>
<path d="M1587 2460 c-105 -27 -193 -97 -236 -189 -36 -79 -36 -194 2 -267 45
-89 112 -134 294 -197 182 -64 235 -101 249 -173 10 -52 -29 -121 -85 -151
-117 -61 -258 1 -296 130 l-16 57 -106 0 -106 0 7 -62 c12 -121 85 -228 193
-286 80 -41 153 -56 259 -50 162 9 264 70 326 196 30 61 33 74 33 162 -1 83
-4 101 -27 145 -28 54 -82 109 -138 143 -19 11 -95 41 -168 65 -73 25 -146 54
-164 64 -72 42 -93 120 -46 170 30 33 94 63 136 63 70 0 143 -47 162 -106 l12
-34 105 0 106 0 -6 45 c-14 102 -96 203 -205 253 -45 20 -74 26 -151 28 -53 2
-113 -1 -134 -6z"/>
<path d="M2629 2455 c-179 -44 -321 -159 -399 -326 -150 -322 11 -709 346
-831 83 -30 273 -37 364 -13 165 42 307 155 374 295 20 41 36 80 36 87 0 10
-29 13 -118 13 l-117 0 -20 -36 c-10 -19 -45 -60 -77 -90 -239 -221 -628 -25
-628 316 0 297 298 494 557 369 54 -26 135 -104 152 -148 l13 -31 120 0 c136
0 131 -6 81 95 -75 151 -214 260 -387 300 -75 18 -222 18 -297 0z"/>
<path d="M3856 2454 c-203 -49 -368 -215 -423 -427 -19 -75 -21 -221 -4 -297
50 -217 218 -392 426 -445 34 -9 103 -15 161 -15 158 0 267 41 352 134 23 25
45 46 47 46 3 0 5 -34 5 -75 l0 -75 105 0 105 0 0 570 0 570 -105 0 -105 0 0
-75 c0 -41 -2 -75 -4 -75 -3 0 -29 24 -58 53 -90 90 -193 127 -348 126 -52 0
-122 -7 -154 -15z m259 -189 c127 -33 233 -122 276 -233 33 -83 33 -242 -1
-327 -32 -83 -132 -183 -215 -215 -83 -33 -216 -33 -297 -1 -67 26 -148 95
-184 158 -187 318 78 707 421 618z"/>
<path d="M5193 2455 c-60 -18 -125 -59 -161 -100 -17 -19 -34 -35 -37 -35 -3
0 -5 27 -5 60 l0 60 -100 0 -100 0 0 -570 0 -570 105 0 105 0 0 322 c0 360 7
421 54 500 37 63 115 115 188 124 l48 7 0 108 0 109 -27 -1 c-16 0 -47 -6 -70
-14z"/>
</g>
</svg>
