<?xml version="1.0" standalone="no"?>
<!DOCTYPE svg PUBLIC "-//W3C//DTD SVG 20010904//EN"
 "http://www.w3.org/TR/2001/REC-SVG-20010904/DTD/svg10.dtd">
<svg version="1.0" xmlns="http://www.w3.org/2000/svg"
 width="270.000000pt" height="187.000000pt" viewBox="0 0 270.000000 187.000000"
 preserveAspectRatio="xMidYMid meet">

<g transform="translate(0.000000,187.000000) scale(0.100000,-0.100000)"
fill="#000000" stroke="none">
<path d="M462 1168 c-13 -13 -16 -48 -4 -48 4 0 13 14 19 30 12 31 6 39 -15
18z"/>
<path d="M314 1155 c-23 -17 -38 -19 -29 -4 4 6 -2 5 -14 -2 -14 -10 -17 -15
-8 -21 21 -14 59 -9 73 10 25 33 13 43 -22 17z"/>
<path d="M575 1140 c-9 -15 -1 -23 21 -18 15 3 16 4 1 16 -11 9 -17 10 -22 2z"/>
<path d="M345 1130 c-4 -6 6 -10 22 -10 22 0 25 2 13 10 -19 12 -27 12 -35 0z"/>
<path d="M226 1103 c-5 -12 -3 -13 7 -5 10 9 13 3 14 -29 1 -22 -2 -52 -8 -66
-9 -25 0 -42 23 -43 6 0 52 140 46 145 -2 1 -20 5 -40 8 -27 4 -38 2 -42 -10z"/>
<path d="M310 1052 c-11 -29 -20 -59 -20 -66 0 -15 63 -36 109 -36 l31 0 0 74
0 74 -50 4 -50 3 -20 -53z"/>
<path d="M570 1103 c1 -5 7 -19 15 -33 l14 -25 1 33 c0 22 -5 32 -15 32 -8 0
-15 -3 -15 -7z"/>
<path d="M540 1066 c-17 -36 -50 -45 -74 -21 -15 15 -16 12 -16 -39 l0 -56 43
0 c48 0 59 6 76 37 14 28 14 62 -2 89 -12 22 -12 21 -27 -10z"/>
<path d="M770 1021 l0 -71 35 0 c28 0 35 4 35 19 0 14 10 21 38 25 20 4 45 9
55 12 13 4 17 -1 17 -25 0 -26 4 -31 24 -31 21 0 25 5 28 38 2 30 7 38 26 40
18 3 22 -1 22 -21 0 -14 7 -30 15 -37 19 -16 98 -25 122 -14 14 6 7 9 -26 13
-62 8 -67 31 -7 31 34 0 46 4 46 15 0 18 20 20 21 3 1 -7 2 -24 2 -38 2 -18 9
-26 25 -28 20 -3 22 1 22 37 0 33 4 41 19 41 14 0 17 -6 14 -24 -7 -33 29 -56
89 -56 59 0 64 18 6 22 -60 4 -53 22 10 26 50 3 52 2 52 -22 0 -21 5 -26 25
-26 20 0 25 5 25 24 0 40 11 56 37 56 15 0 23 5 21 13 -3 6 -10 12 -16 11 -7
-1 -30 -2 -52 -2 -34 -2 -40 -5 -40 -24 -1 -21 -2 -22 -14 -6 -19 26 -60 38
-95 28 -17 -5 -43 -5 -58 0 -27 8 -27 9 -5 15 32 10 27 25 -9 25 -21 0 -40 -9
-55 -25 -19 -21 -29 -24 -51 -18 -16 4 -41 6 -58 4 -16 -2 -39 -3 -50 -2 -11
0 -40 0 -64 0 -27 0 -50 6 -62 17 -13 12 -43 19 -94 22 l-75 5 0 -72z m110 19
c0 -13 -7 -20 -20 -20 -13 0 -20 7 -20 20 0 13 7 20 20 20 13 0 20 -7 20 -20z
m520 -21 c0 -5 -12 -9 -26 -9 -22 0 -24 2 -14 14 12 15 40 11 40 -5z m-245 1
c4 -6 -5 -10 -19 -10 -14 0 -26 5 -26 10 0 6 9 10 19 10 11 0 23 -4 26 -10z"/>
<path d="M1970 1069 c0 -17 -5 -20 -21 -16 -59 16 -111 -43 -74 -83 14 -15 31
-19 81 -19 l64 1 0 69 c0 67 -1 69 -25 69 -19 0 -25 -5 -25 -21z m0 -69 c0
-23 -4 -30 -20 -30 -23 0 -35 22 -26 45 3 8 15 15 26 15 16 0 20 -7 20 -30z"/>
<path d="M1656 1053 c-4 -4 -23 -6 -42 -4 l-34 3 0 -51 c0 -50 1 -51 29 -51
27 0 30 3 33 38 2 30 7 38 26 40 13 2 21 9 19 15 -4 14 -21 20 -31 10z"/>
<path d="M1743 1049 c-23 -7 -35 -17 -39 -36 -10 -38 24 -63 87 -63 62 0 74
18 14 22 -60 4 -62 22 -2 26 58 4 64 26 12 48 -19 7 -36 14 -37 13 -2 0 -18
-5 -35 -10z m57 -29 c0 -5 -11 -10 -25 -10 -14 0 -25 5 -25 10 0 6 11 10 25
10 14 0 25 -4 25 -10z"/>
<path d="M690 1033 c0 -12 5 -25 10 -28 13 -8 13 15 0 35 -8 12 -10 11 -10 -7z"/>
<path d="M644 933 c-18 -25 -41 -133 -28 -133 11 0 64 31 65 38 1 4 2 33 4 65
3 65 -9 74 -41 30z"/>
<path d="M201 904 c-16 -64 -7 -66 23 -5 25 48 25 51 7 51 -14 0 -22 -12 -30
-46z"/>
<path d="M317 877 c-15 -31 -27 -64 -27 -72 0 -25 39 -17 52 10 13 30 40 40
68 25 19 -10 20 -8 20 39 l0 49 -43 3 -43 4 -27 -58z"/>
<path d="M498 933 l-48 -4 0 -75 0 -74 38 0 c20 0 54 3 75 6 l37 7 0 54 c0 45
-4 58 -22 74 -13 10 -25 18 -28 17 -3 -1 -26 -3 -52 -5z"/>
<path d="M812 910 c-52 -21 -51 -99 2 -119 13 -5 78 -9 145 -8 l121 2 0 43 c0
36 -4 44 -26 52 -33 13 -91 13 -99 0 -4 -6 8 -10 29 -10 50 0 53 -16 4 -23
-23 -3 -47 -13 -54 -21 -13 -19 -65 -21 -82 -4 -33 33 -2 78 53 78 15 0 24 4
20 10 -8 12 -82 12 -113 0z m218 -89 c0 -12 -29 -23 -41 -15 -18 10 -9 24 16
24 14 0 25 -4 25 -9z"/>
<path d="M1440 851 l0 -71 30 0 c25 0 30 4 30 25 0 22 4 25 39 25 23 0 48 8
64 20 26 21 81 27 92 10 3 -6 -5 -10 -19 -10 -42 0 -76 -18 -76 -40 0 -24 -4
-22 83 -25 l67 -2 0 44 c0 38 -3 45 -27 54 -16 6 -46 9 -68 7 -28 -3 -43 0
-52 11 -8 11 -34 17 -87 19 l-76 4 0 -71z m105 24 c0 -13 -8 -21 -22 -23 -19
-3 -23 1 -23 23 0 22 4 26 23 23 14 -2 22 -10 22 -23z m153 -57 c-3 -7 -13
-13 -23 -13 -10 0 -20 6 -22 13 -3 7 5 12 22 12 17 0 25 -5 23 -12z"/>
<path d="M1900 893 c-10 -12 -11 -18 -2 -21 7 -2 12 -19 12 -37 0 -43 17 -53
92 -53 l57 0 3 41 c2 30 8 43 20 45 13 3 17 -6 20 -40 3 -39 6 -43 31 -46 22
-3 27 1 27 19 0 22 0 22 21 3 25 -23 119 -27 127 -5 3 9 -1 11 -16 7 -24 -8
-72 2 -72 15 0 5 23 9 50 9 54 0 61 9 30 40 -28 28 -84 27 -114 -3 -23 -23
-23 -23 -32 -3 -8 18 -19 21 -76 23 l-68 2 0 -39 c0 -42 -9 -54 -34 -44 -24 9
-21 55 4 61 11 3 20 9 20 14 0 5 -9 9 -20 9 -11 0 -20 5 -20 10 0 16 -44 11
-60 -7z m361 -38 c0 -5 -9 -11 -21 -13 -20 -3 -27 8 -13 22 10 9 34 3 34 -9z"/>
<path d="M1090 834 c0 -51 1 -54 25 -54 20 0 25 5 25 26 0 36 17 64 40 64 11
0 20 4 20 9 0 4 -25 9 -55 9 l-55 0 0 -54z"/>
<path d="M1240 877 c-18 -9 -25 -21 -25 -42 0 -21 7 -33 25 -42 39 -20 120
-15 120 7 0 5 -15 6 -32 4 -21 -4 -40 0 -53 10 -19 14 -17 15 33 16 58 0 69
17 30 44 -27 19 -64 20 -98 3z m68 -24 c2 -8 -5 -13 -17 -13 -21 0 -35 13 -24
24 10 10 36 3 41 -11z"/>
<path d="M1770 834 c0 -51 1 -54 25 -54 22 0 25 4 25 34 0 37 21 62 46 52 10
-4 14 -1 12 6 -3 8 -26 13 -56 15 l-52 1 0 -54z"/>
<path d="M2336 882 c-3 -3 -6 -27 -6 -54 0 -45 2 -48 25 -48 22 0 25 4 25 34
0 42 24 65 48 48 10 -7 32 -19 50 -28 39 -18 32 -39 -10 -30 -21 4 -28 2 -26
-7 6 -15 41 -21 84 -12 45 8 47 41 4 56 -40 14 -38 29 3 29 24 0 28 3 17 10
-20 13 -66 13 -90 0 -10 -6 -21 -6 -24 -2 -6 10 -91 13 -100 4z"/>
<path d="M637 795 c-18 -7 -36 -27 -48 -54 l-18 -42 29 21 c29 20 76 78 69 84
-2 2 -17 -2 -32 -9z"/>
<path d="M287 773 c-12 -11 -8 -73 4 -73 7 0 9 13 5 38 -3 20 -3 31 0 25 8
-18 24 -16 24 2 0 15 -21 21 -33 8z"/>
<path d="M513 768 c-42 -6 -63 -14 -63 -23 0 -10 9 -12 34 -8 26 4 36 1 48
-16 12 -17 17 -19 26 -8 15 18 33 67 24 66 -4 -1 -35 -6 -69 -11z"/>
<path d="M409 730 c-13 -30 -14 -36 -2 -38 21 -5 25 2 21 40 l-4 33 -15 -35z"/>
<path d="M398 663 c6 -2 18 -2 25 0 6 3 1 5 -13 5 -14 0 -19 -2 -12 -5z"/>
</g>
</svg>
