<?xml version="1.0" standalone="no"?>
<!DOCTYPE svg PUBLIC "-//W3C//DTD SVG 20010904//EN"
 "http://www.w3.org/TR/2001/REC-SVG-20010904/DTD/svg10.dtd">
<svg version="1.0" xmlns="http://www.w3.org/2000/svg"
 width="512.000000pt" height="512.000000pt" viewBox="0 0 512.000000 512.000000"
 preserveAspectRatio="xMidYMid meet">

<g transform="translate(0.000000,512.000000) scale(0.100000,-0.100000)"
fill="#000000" stroke="none">
<path d="M2777 4408 c9 -10 63 -134 63 -143 0 -1 -21 -10 -47 -20 -160 -59
-297 -161 -323 -240 -21 -61 -19 -144 3 -160 9 -7 78 -33 152 -59 339 -117
508 -233 592 -404 38 -76 38 -76 38 -202 -1 -109 -4 -134 -27 -197 -14 -40
-45 -100 -68 -134 -40 -59 -41 -61 -12 -41 82 59 207 223 259 340 101 227 100
518 -1 746 -95 213 -295 404 -508 486 -97 37 -135 46 -121 28z"/>
<path d="M2078 4302 c-75 -58 -137 -145 -169 -238 -32 -94 -34 -257 -3 -324
l20 -44 146 139 147 138 -46 51 c-79 88 -112 189 -82 249 6 12 23 34 37 50 38
40 21 33 -50 -21z"/>
<path d="M2826 3130 c6 -8 53 -71 103 -140 64 -87 90 -116 85 -95 -12 51 -44
106 -92 157 -44 48 -119 108 -96 78z"/>
<path d="M910 2331 c-78 -24 -158 -88 -179 -144 -17 -44 -13 -137 8 -182 31
-70 111 -126 259 -182 128 -48 153 -71 132 -123 -31 -74 -188 -67 -337 17
l-63 35 0 -91 c0 -104 0 -104 106 -143 49 -18 81 -22 184 -22 110 -1 131 2
175 22 63 29 121 85 136 131 17 50 14 139 -5 186 -32 77 -91 118 -256 180
-124 47 -164 83 -146 130 8 22 67 45 114 45 49 0 143 -25 211 -55 29 -14 55
-25 57 -25 2 0 4 38 4 84 l0 85 -56 20 c-30 12 -74 26 -97 31 -49 11 -211 12
-247 1z"/>
<path d="M1491 2314 c-84 -70 9 -201 107 -150 42 22 58 72 38 119 -26 62 -92
76 -145 31z"/>
<path d="M3560 1915 l0 -416 88 3 87 3 3 413 2 412 -90 0 -90 0 0 -415z"/>
<path d="M2090 2069 c-25 -5 -64 -22 -87 -39 l-43 -30 0 30 0 30 -90 0 -90 0
0 -280 0 -281 88 3 87 3 5 186 c5 169 7 189 25 209 48 53 112 64 150 25 25
-24 25 -25 25 -225 l0 -200 85 0 85 0 0 181 0 181 38 39 c42 41 78 55 118 45
45 -12 54 -54 54 -261 l0 -186 88 3 87 3 0 215 c0 190 -2 219 -19 250 -40 76
-82 102 -165 103 -72 0 -119 -15 -173 -58 l-43 -34 -23 29 c-42 54 -116 75
-202 59z"/>
<path d="M3127 2070 c-21 -6 -51 -17 -67 -25 -36 -19 -40 -19 -40 0 0 12 -16
15 -85 15 l-85 0 0 -415 0 -415 90 0 90 0 0 155 0 155 43 -23 c58 -31 174 -31
232 0 150 80 193 312 85 461 -53 73 -171 114 -263 92z m70 -150 c45 -27 67
-74 67 -142 -1 -65 -19 -99 -67 -128 -39 -24 -88 -25 -133 -4 l-34 16 0 123 0
123 33 16 c43 21 95 20 134 -4z"/>
<path d="M1462 1783 l3 -278 88 -3 87 -3 0 281 0 280 -90 0 -90 0 2 -277z"/>
<path d="M3800 2055 c0 -3 46 -108 103 -234 l104 -228 -22 -49 c-13 -27 -50
-109 -83 -181 l-61 -133 93 0 93 0 184 406 c101 224 186 411 187 415 2 5 -39
9 -90 9 l-94 0 -54 -126 c-30 -69 -57 -127 -61 -129 -4 -3 -31 54 -60 125
l-54 130 -92 0 c-51 0 -93 -2 -93 -5z"/>
</g>
</svg>
