<?xml version="1.0" standalone="no"?>
<!DOCTYPE svg PUBLIC "-//W3C//DTD SVG 20010904//EN"
 "http://www.w3.org/TR/2001/REC-SVG-20010904/DTD/svg10.dtd">
<svg version="1.0" xmlns="http://www.w3.org/2000/svg"
 width="375.000000pt" height="130.000000pt" viewBox="0 0 375.000000 130.000000"
 preserveAspectRatio="xMidYMid meet">

<g transform="translate(0.000000,130.000000) scale(0.100000,-0.100000)"
fill="#000000" stroke="none">
<path d="M616 1256 l-39 -23 28 -7 27 -7 -5 -412 c-6 -491 -14 -549 -100 -671
-30 -42 -104 -86 -147 -86 -55 0 -55 10 0 37 53 27 101 79 127 140 43 101 46
132 50 571 3 232 2 422 -2 422 -3 0 -24 -9 -47 -21 -39 -20 -40 -21 -19 -32
l22 -12 -1 -377 c0 -214 -5 -401 -11 -433 -27 -149 -121 -256 -209 -238 l-33
6 36 18 c48 25 103 92 121 148 9 25 20 78 26 116 10 72 14 765 5 765 -3 0 -25
-10 -48 -22 -37 -20 -39 -23 -19 -26 l24 -4 -4 -376 c-5 -429 -8 -450 -80
-528 -32 -35 -47 -44 -74 -44 -44 0 -50 13 -13 29 16 7 41 32 54 56 45 76 53
158 55 528 l1 339 -63 -35 c-35 -19 -91 -49 -126 -67 l-63 -33 3 -356 c3 -312
5 -361 20 -394 10 -22 26 -41 37 -44 10 -2 24 -16 31 -29 8 -13 17 -24 21 -24
5 0 22 -12 38 -28 79 -74 94 -82 146 -82 40 0 63 7 105 33 90 53 147 161 170
322 11 81 14 905 3 905 -5 0 -25 -11 -47 -24z"/>
<path d="M2146 1217 c-27 -20 -18 -71 13 -75 13 -2 28 2 32 10 26 40 -10 91
-45 65z"/>
<path d="M1375 1198 c5 -13 11 -116 14 -230 6 -200 7 -207 30 -232 48 -51 154
-60 210 -19 43 32 50 72 50 276 l1 188 30 13 c42 17 27 26 -47 26 -67 0 -79
-9 -38 -28 14 -6 25 -20 25 -29 1 -16 1 -330 0 -376 0 -31 -54 -77 -90 -77
-46 0 -86 25 -99 61 -7 19 -11 108 -11 221 l0 188 25 12 c42 19 28 28 -41 28
-64 0 -66 -1 -59 -22z"/>
<path d="M2980 1210 c0 -5 7 -10 15 -10 8 0 19 -9 25 -19 10 -21 14 -151 4
-151 -3 0 -17 9 -31 20 -77 60 -183 -38 -183 -170 0 -139 113 -229 192 -153
l28 27 0 -28 c0 -22 4 -27 16 -22 9 3 31 6 50 6 19 0 34 5 34 10 0 6 -6 10
-14 10 -8 0 -18 5 -21 11 -4 6 -6 116 -6 245 l2 234 -56 0 c-30 0 -55 -4 -55
-10z m5 -182 c62 -55 52 -272 -15 -308 -55 -29 -90 35 -90 161 0 85 16 140 47
158 25 15 29 14 58 -11z"/>
<path d="M2340 1170 c0 -41 -23 -83 -54 -100 -32 -17 -33 -28 -3 -32 22 -3 22
-6 25 -153 3 -170 9 -185 72 -185 56 0 72 18 78 85 3 42 2 56 -7 51 -6 -4 -11
-23 -11 -42 0 -45 -16 -74 -40 -74 -34 0 -41 33 -38 177 l3 138 43 3 c23 2 42
7 42 12 0 5 -19 10 -42 12 l-43 3 -3 68 c-3 65 -22 97 -22 37z"/>
<path d="M1895 1058 c-11 -6 -30 -23 -42 -37 l-22 -26 -1 33 c0 32 0 32 -50
32 -54 0 -64 -9 -27 -25 21 -10 22 -16 25 -135 3 -144 0 -166 -28 -175 -42
-13 -17 -25 54 -25 80 0 101 10 61 28 -24 11 -25 14 -25 124 0 126 16 172 66
184 51 13 59 -9 62 -181 l3 -155 50 0 c49 0 66 13 30 25 -26 8 -31 33 -31 173
0 117 -1 124 -25 147 -26 27 -66 32 -100 13z"/>
<path d="M2096 1061 c-3 -4 6 -13 19 -19 25 -12 25 -12 25 -157 0 -145 0 -145
-25 -157 -39 -18 -19 -28 55 -28 74 0 94 10 55 28 l-25 12 0 165 0 165 -49 0
c-28 0 -52 -4 -55 -9z"/>
<path d="M2573 1050 c-99 -60 -100 -269 -1 -330 40 -24 109 -26 143 -4 28 18
61 92 47 106 -6 6 -12 -1 -17 -20 -15 -72 -98 -108 -139 -63 -22 24 -45 87
-46 124 l0 27 106 0 106 0 -7 38 c-22 119 -107 174 -192 122z m102 -20 c10
-11 20 -42 23 -70 l5 -50 -72 0 c-78 0 -78 1 -65 68 13 65 72 93 109 52z"/>
<path d="M820 601 c0 -5 11 -12 25 -15 l25 -6 0 -225 0 -225 -25 -12 c-44 -20
-27 -28 59 -28 84 0 118 12 74 26 -13 4 -26 12 -30 18 -4 6 -8 57 -8 114 l0
102 85 0 85 0 0 -102 c0 -57 -4 -108 -8 -114 -4 -6 -17 -14 -30 -18 -44 -14
-10 -26 74 -26 86 0 103 8 59 28 l-25 12 0 225 0 225 25 6 c52 13 22 24 -65
24 -53 0 -90 -4 -90 -10 0 -5 6 -10 14 -10 35 0 46 -29 46 -121 l0 -89 -85 0
-85 0 0 89 c0 92 11 121 46 121 8 0 14 5 14 10 0 6 -37 10 -90 10 -49 0 -90
-4 -90 -9z"/>
<path d="M1830 602 c0 -4 10 -12 23 -17 22 -10 22 -13 25 -230 2 -198 1 -221
-15 -232 -28 -21 -35 -15 -28 27 8 48 -7 53 -20 8 -19 -62 -30 -29 -36 104 -3
73 -9 141 -13 151 -20 44 -102 59 -161 31 -58 -27 -73 -114 -20 -114 33 0 45
43 20 70 -16 17 -16 19 4 29 11 6 33 11 50 11 39 0 61 -31 61 -86 0 -41 -1
-42 -52 -60 -28 -11 -69 -35 -91 -54 -33 -30 -39 -41 -39 -75 0 -51 28 -75 89
-75 34 0 49 6 67 25 l23 25 11 -25 c9 -19 19 -25 45 -25 18 0 38 5 44 11 8 8
13 8 17 0 8 -13 142 -15 150 -2 3 4 -6 13 -19 19 l-25 12 0 240 0 240 -55 0
c-30 0 -55 -3 -55 -8z m-114 -386 c-11 -85 -65 -133 -104 -94 -17 17 -15 79 4
106 19 28 86 63 98 52 5 -5 5 -33 2 -64z"/>
<path d="M2200 601 c0 -5 9 -11 20 -14 19 -5 20 -14 20 -231 0 -215 -1 -226
-20 -236 -38 -20 -20 -30 55 -30 43 0 75 4 75 10 0 6 -4 10 -9 10 -5 0 -17 7
-25 16 -19 18 -23 166 -6 223 18 64 83 105 107 69 4 -7 10 -83 13 -168 l5
-155 44 -3 c24 -2 49 2 54 7 8 8 8 11 0 11 -6 0 -19 7 -27 16 -13 12 -16 41
-16 145 l0 131 -29 29 c-40 39 -82 39 -123 -1 -16 -16 -31 -30 -34 -30 -2 0
-4 47 -4 105 l0 105 -50 0 c-27 0 -50 -4 -50 -9z"/>
<path d="M2077 583 c-4 -3 -7 -18 -7 -32 0 -34 -33 -87 -59 -96 -28 -8 -27
-23 2 -27 21 -3 22 -7 27 -154 6 -174 10 -184 76 -184 33 0 46 5 58 22 18 25
23 123 6 113 -5 -3 -10 -25 -10 -49 0 -23 -5 -47 -12 -54 -15 -15 -45 -16 -53
-2 -3 5 -6 76 -6 157 l0 148 40 3 c53 4 53 20 -1 24 l-42 3 3 68 c2 61 -4 78
-22 60z"/>
<path d="M1323 440 c-98 -59 -98 -271 1 -331 38 -23 108 -25 141 -3 27 18 61
92 47 106 -5 5 -14 -8 -21 -32 -23 -76 -105 -95 -147 -33 -22 33 -39 107 -29
124 4 5 51 9 107 9 l100 0 -7 38 c-22 119 -107 174 -192 122z m102 -20 c10
-11 20 -42 23 -70 l5 -50 -72 0 c-79 0 -80 1 -61 72 19 67 68 89 105 48z"/>
<path d="M2644 431 c-129 -78 -112 -311 25 -352 66 -20 130 24 142 97 7 38
-13 30 -27 -11 -16 -48 -37 -65 -79 -65 -38 0 -59 21 -74 75 -34 123 11 255
87 255 29 0 71 -34 59 -47 -4 -3 -7 -3 -7 2 0 4 -7 2 -15 -5 -18 -15 -20 -51
-3 -68 35 -35 66 10 49 69 -20 65 -94 88 -157 50z"/>
<path d="M2930 443 c-25 -10 -52 -37 -61 -61 -12 -32 6 -64 34 -60 28 4 37 56
12 74 -15 11 -15 13 4 23 30 17 76 13 94 -7 11 -12 17 -36 17 -63 l0 -45 -65
-28 c-73 -32 -115 -74 -115 -116 0 -42 9 -59 42 -76 40 -21 91 -11 117 22 l21
26 9 -25 c11 -28 41 -42 70 -32 19 6 41 52 41 86 0 32 -19 21 -22 -14 -2 -20
-8 -32 -18 -32 -12 0 -16 25 -20 142 -5 129 -7 145 -27 164 -22 22 -101 35
-133 22z m96 -259 c-14 -69 -81 -111 -106 -65 -26 49 1 109 62 140 l43 21 3
-32 c2 -17 1 -46 -2 -64z"/>
<path d="M3193 442 c-32 -3 -47 -22 -18 -22 27 0 35 -38 35 -164 0 -100 -3
-128 -16 -140 -8 -9 -20 -16 -25 -16 -6 0 -7 -5 -4 -10 7 -12 165 -14 165 -2
0 4 -14 13 -31 19 l-31 12 3 118 c4 133 23 185 69 192 24 3 25 3 7 -17 -22
-24 -19 -50 6 -66 38 -23 59 51 25 91 -25 30 -74 6 -106 -52 -10 -18 -11 -16
-12 16 0 40 -11 47 -67 41z"/>
<path d="M3494 440 c-31 -12 -72 -65 -84 -108 -14 -52 -13 -92 5 -143 51 -144
215 -157 255 -20 12 42 -6 40 -23 -2 -20 -47 -44 -67 -81 -67 -53 0 -96 61
-96 136 l0 34 104 0 103 0 -8 46 c-20 105 -93 157 -175 124z m91 -33 c8 -13
18 -44 21 -70 l7 -47 -73 0 -73 0 5 45 c7 62 31 95 68 95 20 0 35 -8 45 -23z"/>
</g>
</svg>
