<svg id="compass-svgrepo-com" xmlns="http://www.w3.org/2000/svg" width="28.125" height="28.126" viewBox="0 0 28.125 28.126">
  <defs>
    <style>
      .cls-1 {
        fill: #0e153a;
      }
    </style>
  </defs>
  <g id="Group_71" data-name="Group 71" transform="translate(0)">
    <g id="Group_70" data-name="Group 70">
      <path id="Path_90" data-name="Path 90" class="cls-1" d="M14.071,0A14.063,14.063,0,1,0,28.133,14.063,14.079,14.079,0,0,0,14.071,0Zm6.951,8.011-4.454,8.276a.659.659,0,0,1-.268.268L8.025,21.008a.659.659,0,0,1-.893-.893l4.453-8.275a.659.659,0,0,1,.268-.268l8.276-4.453a.659.659,0,0,1,.893.893Z" transform="translate(-0.008 0)"/>
    </g>
  </g>
  <g id="Group_73" data-name="Group 73" transform="translate(11.637 11.628)">
    <g id="Group_72" data-name="Group 72">
      <path id="Path_91" data-name="Path 91" class="cls-1" d="M223.6,220.984a2.438,2.438,0,1,0,2.437,2.437A2.437,2.437,0,0,0,223.6,220.984Z" transform="translate(-221.164 -220.984)"/>
    </g>
  </g>
</svg>
