<svg id="doc1" xmlns="http://www.w3.org/2000/svg" width="354.269" height="435.572" viewBox="0 0 354.269 435.572">
  <defs>
    <style>
      .cls-1 {
        fill: #80362d;
      }

      .cls-2 {
        fill: #ffd7a3;
      }

      .cls-3 {
        fill: #545465;
      }

      .cls-4 {
        fill: #fdc88e;
      }

      .cls-5 {
        fill: #ffe1b2;
      }

      .cls-6 {
        fill: #e4ebf0;
      }

      .cls-7 {
        fill: #d0d7dc;
      }

      .cls-8 {
        fill: #b2b9bf;
      }
    </style>
  </defs>
  <g id="doctor-svgrepo-com_2_" data-name="doctor-svgrepo-com (2)" transform="translate(0 0)">
    <g id="Group_25" data-name="Group 25">
      <g id="Group_8" data-name="Group 8" transform="translate(190.76 13.174)">
        <path id="Path_41" data-name="Path 41" class="cls-1" d="M271.2,12.724l-47.69,258.889,34.065,6.813C329.68,225.626,360.621,12.724,271.2,12.724Z" transform="translate(-223.513 -12.724)"/>
      </g>
      <g id="Group_9" data-name="Group 9" transform="translate(45.27)">
        <path id="Path_42" data-name="Path 42" class="cls-1" d="M276.169,13.174c-11.923-7.239-74.848-25.624-122.632,0C94.776,44.683,43.4,157.379,126.286,272.063c.118.163,61.316-6.813,61.316-6.813Z" transform="translate(-82.988 0)"/>
      </g>
      <g id="Group_10" data-name="Group 10" transform="translate(115.818 224.373)">
        <path id="Path_43" data-name="Path 43" class="cls-2" d="M260.505,232.627h-.371V216.714h-95.38v15.9c0,15.574-.065,32.5-13.626,42.741V427.913H273.761v-152.8C260.547,264.848,260.505,248.067,260.505,232.627Z" transform="translate(-151.129 -216.714)"/>
      </g>
      <g id="Group_11" data-name="Group 11" transform="translate(136.257 357.631)">
        <path id="Path_44" data-name="Path 44" class="cls-3" d="M211.747,355.235a156.346,156.346,0,0,1-40.877-5.316v73.444h95.38v-77.94C250.794,351.591,232.029,355.235,211.747,355.235Z" transform="translate(-170.87 -345.424)"/>
      </g>
      <g id="Group_12" data-name="Group 12" transform="translate(129.443 223.976)">
        <path id="Path_45" data-name="Path 45" class="cls-4" d="M266.482,305.295a37.584,37.584,0,0,0,6.813,1.215V275.127c-13.213-10.265-13.256-27.047-13.256-42.487l-.009-.4V216.331l-75.3.4-20.439,6.813C177.915,238.869,219.645,292.521,266.482,305.295Z" transform="translate(-164.289 -216.331)"/>
      </g>
      <g id="Group_13" data-name="Group 13" transform="translate(81.755 60.862)">
        <path id="Path_46" data-name="Path 46" class="cls-5" d="M308.987,133.727c0,54.558-54.26,122.632-95.38,122.632s-95.38-68.074-95.38-122.632,42.7-74.942,95.38-74.942S308.987,79.169,308.987,133.727Z" transform="translate(-118.228 -58.785)"/>
      </g>
      <g id="Group_14" data-name="Group 14" transform="translate(60.649 26.799)">
        <path id="Path_47" data-name="Path 47" class="cls-1" d="M227.953,25.884c-3.828,0-16.256,4.3-26.414,8.069L200.7,32.7l-3.829,3.011c-5.65,2.145-9.8,3.8-9.8,3.8l1.593,2.657c-25.859,20.373-84.856,66.979-90.161,72.285-6.813,6.813,40.877,180.63,40.877,81.755,0-82.606,45.893-98.965,88.567-109.006,19.3-4.542,24.981-15.9,27.251-27.251S234.767,25.884,227.953,25.884Z" transform="translate(-97.843 -25.884)"/>
      </g>
      <g id="Group_15" data-name="Group 15" transform="translate(197.573 13.174)">
        <path id="Path_48" data-name="Path 48" class="cls-1" d="M243.718,67.226c12.49,44.851,37.471,65.148,60.89,71.109,12.833,3.266,7.239-37.044,7.239-37.044S293.679,54.736,291.409,53.6,270.97,12.724,270.97,12.724L230.093,46.789Z" transform="translate(-230.093 -12.724)"/>
      </g>
      <g id="Group_16" data-name="Group 16" transform="translate(0 274.847)">
        <path id="Path_49" data-name="Path 49" class="cls-6" d="M162.564,265.465c-6.381,10.367-19.39,17.655-46.087,17.655h-2.27a74.942,74.942,0,0,0-74.942,74.942v47.69A20.439,20.439,0,0,0,59.7,426.19H199.5Z" transform="translate(-39.264 -265.465)"/>
      </g>
      <g id="Group_17" data-name="Group 17" transform="translate(194.03 274.847)">
        <path id="Path_50" data-name="Path 50" class="cls-6" d="M263.61,265.465C269.991,275.832,283,283.12,309.7,283.12h2.27a74.942,74.942,0,0,1,74.942,74.942v47.69a20.439,20.439,0,0,1-20.439,20.439h-139.8Z" transform="translate(-226.671 -265.465)"/>
      </g>
      <g id="Group_18" data-name="Group 18" transform="translate(54.502 381.068)">
        <ellipse id="Ellipse_10" data-name="Ellipse 10" class="cls-7" cx="20.439" cy="20.439" rx="20.439" ry="20.439"/>
      </g>
      <g id="Group_19" data-name="Group 19" transform="translate(240.156 307.83)">
        <path id="Path_51" data-name="Path 51" class="cls-7" d="M335.994,414.332l-8.423-5.789c7.485-10.89,11.778-27.217,11.778-44.8,0-30.467-13.26-56.207-28.954-56.207s-28.954,25.74-28.954,56.207c0,17.579,4.293,33.906,11.778,44.8l-8.422,5.789c-8.625-12.551-13.574-30.989-13.574-50.585,0-37.248,17.206-66.425,39.174-66.425S349.57,326.5,349.57,363.747C349.567,383.343,344.619,401.781,335.994,414.332Z" transform="translate(-271.222 -297.322)"/>
      </g>
      <g id="Group_20" data-name="Group 20" transform="translate(252.076 415.133)">
        <ellipse id="Ellipse_11" data-name="Ellipse 11" class="cls-3" cx="6.813" cy="6.813" rx="6.813" ry="6.813"/>
      </g>
      <g id="Group_21" data-name="Group 21" transform="translate(292.954 415.133)">
        <ellipse id="Ellipse_12" data-name="Ellipse 12" class="cls-3" cx="6.813" cy="6.813" rx="6.813" ry="6.813"/>
      </g>
      <g id="Group_22" data-name="Group 22" transform="translate(69.832 273.763)">
        <path id="Path_52" data-name="Path 52" class="cls-7" d="M111.821,383.647a5.109,5.109,0,0,1-5.109-5.109c0-88.288,41.728-112.486,43.505-113.472a5.11,5.11,0,0,1,4.988,8.919c-.5.29-38.274,22.956-38.274,104.553A5.109,5.109,0,0,1,111.821,383.647Z" transform="translate(-106.712 -264.419)"/>
      </g>
      <g id="Group_23" data-name="Group 23" transform="translate(64.154 390.72)">
        <ellipse id="Ellipse_13" data-name="Ellipse 13" class="cls-8" cx="10.787" cy="10.787" rx="10.787" ry="10.787"/>
      </g>
      <g id="Group_24" data-name="Group 24" transform="translate(260.592 287.393)">
        <path id="Path_53" data-name="Path 53" class="cls-7" d="M309.7,308.241a5.113,5.113,0,0,1-4.818-3.411c-4.44-12.58-11.666-17.9-11.738-17.952A5.11,5.11,0,1,1,299,278.506c.4.282,9.924,7.084,15.513,22.925a5.112,5.112,0,0,1-4.818,6.81Z" transform="translate(-290.961 -277.583)"/>
      </g>
    </g>
    <g id="Group_26" data-name="Group 26" transform="translate(245.264 135.805)">
      <path id="Path_54" data-name="Path 54" class="cls-5" d="M293.26,131.792c11.147-2.555,18.451,2.9,18.451,13.626,0,14.193-14.991,48.967-30.751,27.251S293.26,131.792,293.26,131.792Z" transform="translate(-276.156 -131.17)"/>
    </g>
  </g>
</svg>
