<svg id="phone-svgrepo-com" xmlns="http://www.w3.org/2000/svg" width="28.1" height="28.098" viewBox="0 0 28.1 28.098">
  <defs>
    <style>
      .cls-1 {
        fill: #0e153a;
      }
    </style>
  </defs>
  <g id="Group_74" data-name="Group 74" transform="translate(0 0)">
    <path id="Path_95" data-name="Path 95" class="cls-1" d="M27.819,22.04c-.989-1.869-4.636-4.006-4.636-4.006-.825-.47-1.821-.523-2.292.316a18.809,18.809,0,0,1-1.486,1.625,2.769,2.769,0,0,1-3.939-.391l-2.992-2.992L9.482,13.6a2.769,2.769,0,0,1-.391-3.939,18.809,18.809,0,0,1,1.625-1.486c.838-.471.786-1.466.316-2.292,0,0-2.137-3.647-4.006-4.636a2.048,2.048,0,0,0-2.407.362L3.3,2.931C-.894,7.122,1.169,11.854,5.36,16.045l3.83,3.83,3.83,3.83c4.191,4.191,8.923,6.255,13.114,2.063l1.322-1.322A2.048,2.048,0,0,0,27.819,22.04Z" transform="translate(-0.48 -0.485)"/>
    <path id="Path_96" data-name="Path 96" class="cls-1" d="M20.662,28.1c-2.626,0-5.489-1.508-8.49-4.509l-7.66-7.661A14.9,14.9,0,0,1,.2,9.123,7.226,7.226,0,0,1,2.448,2.08L3.77.758A2.557,2.557,0,0,1,6.789.3C8.766,1.35,10.911,4.982,11,5.137a2.575,2.575,0,0,1,.34,1.944,1.735,1.735,0,0,1-.805,1.04,17.455,17.455,0,0,0-1.5,1.352,2.254,2.254,0,0,0,.329,3.277l5.984,5.984a2.255,2.255,0,0,0,3.279.328,17.549,17.549,0,0,0,1.35-1.494,1.732,1.732,0,0,1,1.04-.805,2.565,2.565,0,0,1,1.938.337c.16.094,3.792,2.238,4.838,4.215h0a2.557,2.557,0,0,1-.454,3.019l-1.322,1.322A7.48,7.48,0,0,1,20.662,28.1ZM5.585,1.045a1.524,1.524,0,0,0-1.078.449L3.185,2.816A6.168,6.168,0,0,0,1.213,8.888a13.913,13.913,0,0,0,4.036,6.305l7.66,7.661c4.791,4.791,8.956,5.484,12.378,2.063L26.608,23.6a1.52,1.52,0,0,0,.27-1.8h0c-.908-1.715-4.4-3.78-4.439-3.8a1.609,1.609,0,0,0-1.139-.234.7.7,0,0,0-.436.356l-.054.079a15.361,15.361,0,0,1-1.595,1.723,3.287,3.287,0,0,1-4.6-.454L8.633,13.486a3.287,3.287,0,0,1-.454-4.6A15.413,15.413,0,0,1,9.9,7.291l.078-.054a.7.7,0,0,0,.356-.436A1.6,1.6,0,0,0,10.1,5.658c-.018-.03-2.082-3.526-3.8-4.434A1.531,1.531,0,0,0,5.585,1.045Z" transform="translate(0 -0.003)"/>
  </g>
</svg>
