<svg id="XMLID_51_" xmlns="http://www.w3.org/2000/svg" width="28" height="24.57" viewBox="0 0 28 24.57">
  <defs>
    <style>
      .cls-1 {
        fill: #ecf1ff;
      }
    </style>
  </defs>
  <path id="XMLID_53_" class="cls-1" d="M164.711,396.069a.331.331,0,0,0,.517.273l2.277-1.555-2.794-1.332v2.614Z" transform="translate(-154.997 -371.829)"/>
  <path id="XMLID_52_" class="cls-1" d="M27.855,30.44a.45.45,0,0,0-.308-.122.44.44,0,0,0-.2.047L.448,43.773a.819.819,0,0,0,.009,1.464l7.09,3.433L21.723,36.831,9.3,49.52,18.136,53.8a.791.791,0,0,0,.637.023.809.809,0,0,0,.451-.457l8.745-22.415A.463.463,0,0,0,27.855,30.44Z" transform="translate(-0.001 -30.318)"/>
</svg>
